<svg xmlns="http://www.w3.org/2000/svg" xmlns:xlink="http://www.w3.org/1999/xlink" viewBox="0 0 146.31 24.79"><defs><style>.cls-1,.cls-3{fill:none;}.cls-2{clip-path:url(#clip-path);}.cls-3{stroke:#fff;stroke-linejoin:round;stroke-width:2.74px;}.cls-4{fill:#464a92;}</style><clipPath id="clip-path" transform="translate(-19.29 -14.89)"><rect class="cls-1" width="209.84" height="75.29"/></clipPath></defs><title>資產 2</title><g id="圖層_2" data-name="圖層 2"><g id="圖層_3" data-name="圖層 3"><g class="cls-2"><path class="cls-3" d="M36.8,27.1h2.57v2.35H36.8Zm-5.11,0h2.46v2.35H31.69ZM33.1,16.35A33.74,33.74,0,0,1,31,20.9c-.61,0-1.21,0-1.85,0l.56,2.75c1.56-.05,3-.17,4.48-.34v1.29h-5v8.55h2.58V31.93h2.46v2.9L28.56,35,29,37.62q6-.25,11-.58c.1.39.22.82.34,1.26L43,37.16a28.3,28.3,0,0,0-2-4.84l-2.36,1.12.53,1.22-2.35.07v-2.8h5.12V24.62H36.8V23c.87-.15,1.74-.3,2.62-.49.24.49.49,1,.7,1.48l2.48-1.43a23.51,23.51,0,0,0-3.42-5.23l-2.29,1.44c.37.46.73.92,1.07,1.41a37,37,0,0,1-4,.53,28.42,28.42,0,0,0,2-3.47Zm-11.86.3V19.2h4.64v3H21.8L20.66,30.5l2.67.39.15-1.14h2.31a28.28,28.28,0,0,1-.39,5.17.79.79,0,0,1-.76.51A10.55,10.55,0,0,1,21.8,35l.58,2.85a11,11,0,0,0,2.55.38,2.91,2.91,0,0,0,2.58-1.09c.63-.61.95-3.89.95-9.92H23.79l.29-2.38h4.48V16.65Z" transform="translate(-19.29 -14.89)"/><path class="cls-3" d="M58.16,33.49a11.37,11.37,0,0,1-2.53-1.65H61A11.78,11.78,0,0,1,58.16,33.49Zm-5.81-1.65a13.92,13.92,0,0,0,2.7,2.72,39.37,39.37,0,0,1-6,1.07l1.44,2.67a34.47,34.47,0,0,0,7.58-2,27.08,27.08,0,0,0,7.9,2L67,35.53a34.48,34.48,0,0,1-5.62-.92,14.07,14.07,0,0,0,3.53-3.33V29.36H50.67v2.48Zm.51-9.41H49.53v-1.8h3.33Zm7.39,0H55.51v-1.8h4.74Zm-4.74,2.48h4.74v1.24H55.51Zm0-8.55v1.53H46.69v8.43a37.56,37.56,0,0,1-.37,5.3,33.3,33.3,0,0,1-1.26,5.05l2.67,1.63A26.26,26.26,0,0,0,49,33.66a32.69,32.69,0,0,0,.51-5.86V24.91h3.33V28.6H62.92V24.91h3.14V22.43H62.92v-1.8H67V17.89H58.35V16.36Z" transform="translate(-19.29 -14.89)"/><path class="cls-3" d="M76.58,16.26,74.3,17.69a10.23,10.23,0,0,1,.82,1H70v2.55h8.83v1.14h-8V25h8v1.41H69.65v2.67H74.2c-.32.34-.68.71-1.09,1.09a17.26,17.26,0,0,1-3.75,2.51L71.26,35a16.5,16.5,0,0,0,4.11-3.28s0-.05.07-.1v1.1h4.28v2.57H71.55v2.56H90.82V35.26H82.56V32.69h6.66V30.14H76.6c.25-.34.47-.68.69-1.05H91.11V26.42h-9.5V25h8V22.43h-8V21.29h9V18.74H85.45c.29-.49.61-1,.93-1.61l-3.14-.87c-.27.85-.56,1.68-.9,2.48H77.07l.94-.56A9.48,9.48,0,0,0,76.58,16.26Z" transform="translate(-19.29 -14.89)"/><path class="cls-3" d="M105.82,19.3h4.93v.94h-4.93Zm-7.58,0h4.93v.94H98.24Zm7.58,3.33h4.93v1h-4.93Zm-7.58,0h4.93v1H98.24Zm8.92,4.83h-5.33V26.15h5.33Zm0,4.09h-5.33V30h5.33ZM95.49,16.84v9.31h3.69v1.31H94.81V30h4.37v1.51H93.86v2.57H99.6a31.93,31.93,0,0,1-5.25,1.41l1.41,2.67a33.5,33.5,0,0,0,6.92-2.57l-1.09-1.51h6.25l-1.07,1.14A24.51,24.51,0,0,0,110,37c1,.44,2,.82,3,1.16l1.63-2.77a22.6,22.6,0,0,1-3.07-.77c-.48-.15-1-.34-1.48-.54h5.2V31.55H109.8V30h4.87V27.46H109.8V26.15h3.72V16.84Z" transform="translate(-19.29 -14.89)"/><path class="cls-3" d="M132.7,27l-2.67.66a14.94,14.94,0,0,0,2.18,5.3,19.58,19.58,0,0,1-5.13,3.25l2.09,2.09A21.25,21.25,0,0,0,134,35.24a14.48,14.48,0,0,0,4.1,3l2.09-2.47a12.67,12.67,0,0,1-4.2-2.8,20.32,20.32,0,0,0,2.41-5.37l-2.65-.75a20.92,20.92,0,0,1-1.58,3.74A9.94,9.94,0,0,1,132.7,27Zm4.35-5.61L135,22.82a13.83,13.83,0,0,0,3.6,4.28l1.8-2.29A12.59,12.59,0,0,1,137.05,21.39Zm-5.49.09a13.51,13.51,0,0,1-3.24,3.8l1.8,2.09A14.42,14.42,0,0,0,133.84,23ZM133,16.36v2.09h-3.89v2.67h10.64V18.45h-4V16.36Zm-8.44,7.51h1.14V25.2h-1.14Zm-3.62,0h1.14V25.2h-1.14Zm3.62,3.59h1.14V29h-1.14Zm-3.62,0h1.14V29h-1.14Zm-2.65-9.28v2.55h3.79v.75h-3.59v9.87h3.59v.78H118v2.55h4.08V38.3h2.48V34.68h4.18V32.13h-4.18v-.78h3.6V21.48h-3.6v-.75h4V18.18h-4V16.36h-2.48v1.82Z" transform="translate(-19.29 -14.89)"/><path class="cls-3" d="M142.86,21.58v2.75h8.58a13.58,13.58,0,0,1-2,5.1,21.33,21.33,0,0,1-7.17,6.3l1.63,2.57a23.29,23.29,0,0,0,7.42-6.39,17.58,17.58,0,0,0,2.11-3.77,20.75,20.75,0,0,0,2.62,4.62,17.24,17.24,0,0,0,6.64,5.54l1.53-2.94a14.36,14.36,0,0,1-5.91-4.74,19.37,19.37,0,0,1-3-6.29h8.07V21.58h-8.83V16.36h-2.94v5.22Z" transform="translate(-19.29 -14.89)"/></g><path class="cls-4" d="M28.56,16.64v8.17H24.08l-.29,2.38h4.67c0,6-.32,9.31-.95,9.92a2.9,2.9,0,0,1-2.57,1.09,11.09,11.09,0,0,1-2.56-.38L21.8,35a10.55,10.55,0,0,0,2.84.46.79.79,0,0,0,.76-.51,28.28,28.28,0,0,0,.39-5.17H23.48l-.15,1.14-2.67-.39,1.14-8.27h4.08v-3H21.24V16.64ZM36,17.2a29.17,29.17,0,0,1-2,3.48,34.64,34.64,0,0,0,4-.54c-.34-.48-.7-.94-1.07-1.41l2.29-1.43a23.68,23.68,0,0,1,3.43,5.23L40.13,24c-.22-.49-.46-1-.71-1.48-.87.19-1.75.34-2.62.48v1.66h5.13v7.31H36.8v2.8l2.35-.07-.53-1.22L41,32.32a26.78,26.78,0,0,1,2,4.84L40.32,38.3c-.12-.44-.24-.87-.34-1.26-3.33.22-7,.41-11,.58L28.56,35l5.59-.14v-2.9H31.69v1.24H29.12V24.62h5V23.33c-1.44.17-2.92.29-4.47.34l-.56-2.75c.63,0,1.24,0,1.84,0a33.74,33.74,0,0,0,2.14-4.55Zm-1.8,12.25V27.1H31.69v2.35Zm2.65,0h2.57V27.1H36.8Z" transform="translate(-19.29 -14.89)"/><path class="cls-4" d="M58.35,16.35v1.53H67v2.75H62.92v1.8h3.14v2.48H62.92V28.6H52.86V24.91H49.53V27.8A32.69,32.69,0,0,1,49,33.66a26.26,26.26,0,0,1-1.29,4.64l-2.67-1.63a33.3,33.3,0,0,0,1.26-5.05,37.56,37.56,0,0,0,.37-5.3V17.88h8.82V16.35ZM50.67,31.84V29.36H64.92v1.92a13.91,13.91,0,0,1-3.53,3.33,34.48,34.48,0,0,0,5.62.92L66,38.3a27.08,27.08,0,0,1-7.9-2,34.47,34.47,0,0,1-7.58,2L49,35.63a40.63,40.63,0,0,0,6-1.07,13.92,13.92,0,0,1-2.7-2.72Zm2.19-11.21H49.53v1.8h3.33Zm7.39,0H55.51v1.8h4.74Zm-4.74,5.52h4.74V24.91H55.51ZM61,31.84H55.63a11.6,11.6,0,0,0,2.53,1.65A11.78,11.78,0,0,0,61,31.84Z" transform="translate(-19.29 -14.89)"/><path class="cls-4" d="M78,18.17l-1,.56h5.27c.34-.8.63-1.62.9-2.48l3.14.88c-.32.58-.63,1.12-.93,1.6h5.18v2.56h-9v1.14h8V25h-8v1.41h9.51v2.67H77.29c-.22.36-.44.7-.68,1H89.22v2.56H82.56v2.57h8.27v2.56H71.55V35.26h8.17V32.69H75.44v-1.1c0,.05-.07.08-.07.1A16.32,16.32,0,0,1,71.26,35l-1.9-2.28a17.26,17.26,0,0,0,3.75-2.51c.41-.39.77-.75,1.09-1.09H69.65V26.42h9.22V25h-8V22.43h8V21.29H70V18.73h5.08a11.33,11.33,0,0,0-.82-1l2.28-1.44A9.93,9.93,0,0,1,78,18.17Z" transform="translate(-19.29 -14.89)"/><path class="cls-4" d="M113.53,16.84v9.31h-3.72v1.31h4.86V30h-4.86v1.5h5.51v2.58h-5.2c.49.2,1,.39,1.49.54a22.84,22.84,0,0,0,3.06.77L113,38.2A31.19,31.19,0,0,1,110,37a24,24,0,0,1-3.26-1.78l1.07-1.14h-6.25l1.09,1.51a33.29,33.29,0,0,1-6.92,2.57l-1.41-2.67a33,33,0,0,0,5.25-1.41H93.86V31.54h5.32V30H94.81V27.46h4.37V26.15H95.49V16.84Zm-10.36,3.4v-.95H98.24v.95Zm0,3.43V22.62H98.24v1.05Zm4,2.48h-5.33v1.31h5.33Zm0,3.89h-5.33v1.5h5.33Zm-1.34-9.8h4.93v-.95h-4.93Zm0,3.43h4.93V22.62h-4.93Z" transform="translate(-19.29 -14.89)"/><path class="cls-4" d="M122.05,18.17V16.35h2.48v1.82h4v2.56h-4v.75h3.6v9.87h-3.6v.78h4.18v2.55h-4.18V38.3h-2.48V34.68H118V32.13h4.08v-.78h-3.59V21.48h3.59v-.75h-3.79V18.17Zm0,7V23.86h-1.14V25.2Zm0,3.79V27.46h-1.14V29Zm2.48-3.79h1.15V23.86h-1.15Zm0,3.79h1.15V27.46h-1.15Zm9.63,1.56a20.73,20.73,0,0,0,1.58-3.75l2.65.76A20,20,0,0,1,136,32.93a12.46,12.46,0,0,0,4.21,2.79L138.1,38.2a14.73,14.73,0,0,1-4.11-3,21.4,21.4,0,0,1-4.81,3.06l-2.09-2.09A19.42,19.42,0,0,0,132.21,33,14.9,14.9,0,0,1,130,27.66L132.7,27A9.94,9.94,0,0,0,134.16,30.55ZM133.84,23a14.38,14.38,0,0,1-3.72,4.35l-1.79-2.09a13.46,13.46,0,0,0,3.23-3.79Zm1.9-6.66v2.09h4v2.68H129.08V18.44H133V16.35Zm4.64,8.46-1.8,2.29A13.67,13.67,0,0,1,135,22.82l2.06-1.44A12.77,12.77,0,0,0,140.38,24.81Z" transform="translate(-19.29 -14.89)"/><path class="cls-4" d="M151.58,21.58V16.35h2.95v5.23h8.82v2.75h-8.07a19.18,19.18,0,0,0,3,6.29,14.33,14.33,0,0,0,5.9,4.74l-1.53,2.94a17.14,17.14,0,0,1-6.63-5.54,20.78,20.78,0,0,1-2.63-4.62,17.58,17.58,0,0,1-2.11,3.77,23.29,23.29,0,0,1-7.42,6.39l-1.63-2.58a21.35,21.35,0,0,0,7.18-6.29,13.72,13.72,0,0,0,2-5.1h-8.58V21.58Z" transform="translate(-19.29 -14.89)"/></g></g></svg>