<svg xmlns="http://www.w3.org/2000/svg" viewBox="0 0 53.25 68.39"><defs><style>.cls-1{fill:#77a28e;}.cls-2{fill:#88baa3;}.cls-3{fill:#91c6ad;}.cls-4{fill:#aad1bd;}</style></defs><title>資產 26</title><g id="圖層_2" data-name="圖層 2"><g id="圖層_4" data-name="圖層 4"><path class="cls-1" d="M2.13,14.05,2,51.73A19.45,19.45,0,0,0,.55,44.3L.65,6.63A19.64,19.64,0,0,1,2.13,14.05Z"/><path class="cls-2" d="M53.25,14.29,53.14,52c0,5.35-1.43,10.63-4.27,16.43L49,30.72A37.15,37.15,0,0,0,53.25,14.29Z"/><path class="cls-3" d="M50.2,0C54.62,10.93,54.26,19.93,49,30.72L.11,22.61a19.28,19.28,0,0,0,.54-16Z"/><polygon class="cls-4" points="48.98 30.72 48.87 68.39 0 60.28 0.11 22.61 48.98 30.72"/></g></g></svg>