<svg xmlns="http://www.w3.org/2000/svg" viewBox="0 0 204.5 85.77"><defs><style>.cls-1{fill:#36a9e1;}.cls-2{fill:#fff;}.cls-3{isolation:isolate;}.cls-4{fill:#d62a1a;}.cls-5{fill:none;stroke:#fff;stroke-miterlimit:10;stroke-dasharray:2.54 1.27;}</style></defs><title>資產 11</title><g id="圖層_2" data-name="圖層 2"><g id="圖層_5" data-name="圖層 5"><ellipse class="cls-1" cx="106.04" cy="71.86" rx="30.69" ry="10.13"/><path class="cls-2" d="M92,67.07a20.62,20.62,0,0,1-2.13.24V68h4.23v.84h-3.3a8.35,8.35,0,0,0,1.43.82,9.83,9.83,0,0,0,2.12.65l-.8.92a12.55,12.55,0,0,1-2.18-1,9.76,9.76,0,0,1-1.5-1v1.41H89V69.24a6.89,6.89,0,0,1-1.19.9,14.28,14.28,0,0,1-2.36,1.12l-.93-.84a18,18,0,0,0,2.61-.94,7.23,7.23,0,0,0,1-.61H84.68V68H89v-.65c-.89.05-1.85.07-2.9.07l-.58-.8h1.18a30.79,30.79,0,0,0,5.82-.5l.68.7a.22.22,0,0,1,.07.19s0,.07,0,.07A.31.31,0,0,1,93,67a1.48,1.48,0,0,0-.25-.05C92.57,67,92.35,67,92,67.07Zm-.34,3.77.5.32c.06.06.1.1.1.14s-.08.17-.21.25L90,72.92h4.19v.88H90v.83a1.15,1.15,0,0,1-.4,1,3,3,0,0,1-1.73.32l-.38-1h1c.34,0,.54-.15.56-.46v-.67H84.59v-.88H89v-.62l.47,0,.83-.68H86.69v-.8H91.2l.26-.13A.44.44,0,0,1,91.7,70.84Z"/><path class="cls-2" d="M96.4,66.53h7.11c0,1.36,0,2.39,0,3.1a19.9,19.9,0,0,0,.18,3.07,5,5,0,0,0,.47,1.5c0,.11.09.15.14.15s.16-.23.3-.7l.71.62a4,4,0,0,1-.51,1.12c-.17.2-.3.3-.41.3s-.51-.19-.76-.56a5.61,5.61,0,0,1-.8-2.26,20.88,20.88,0,0,1-.2-3.24V67.41H97.28V69.5a16.08,16.08,0,0,1-.35,3.41,9.85,9.85,0,0,1-1,2.87L95,75.32a8.19,8.19,0,0,0,1-2.55,15.17,15.17,0,0,0,.36-3.27v-3Zm5.13,2c-.39.08-.77.17-1.16.23v1H102v3h-1.63v1.48c.38,0,.74-.06,1.11-.11-.13-.21-.26-.44-.4-.66l.76-.22A8.07,8.07,0,0,1,103,75.36l-.93.21a4.68,4.68,0,0,0-.21-.67c-1,.13-2.31.3-4.09.5-.08.11-.15.17-.22.17s-.11-.06-.11-.15l-.22-.89,2.3-.16V72.81h-.75v.46h-.88V69.79h1.63V69c-.49.08-1,.13-1.46.18l-.55-.75a18.07,18.07,0,0,0,2.11-.2,16.64,16.64,0,0,0,2-.39l.61.56a.23.23,0,0,1,.07.14c0,.07,0,.09-.13.09l-.23,0A2.43,2.43,0,0,0,101.53,68.58Zm-2,3.43V70.59h-.75V72Zm.88,0h.75V70.59h-.75Z"/><path class="cls-2" d="M108.89,66.6c.09,0,.15.08.15.14s-.09.19-.26.25c-.22.59-.43,1.12-.62,1.58v7.3h-1V70.52c-.22.4-.46.79-.71,1.2l-.71-.71A15.36,15.36,0,0,0,107,68.77a20.17,20.17,0,0,0,1-2.58Zm5.3.65c-.36.09-.75.16-1.13.23,0,.83,0,1.55,0,2.15h2.39v.88h-2.35a9.17,9.17,0,0,0,.09,1.1,5.19,5.19,0,0,0,.71,2.18c.26.47.48.69.63.69s.25-.46.46-1.38l.88.67a6.12,6.12,0,0,1-.52,1.22.93.93,0,0,1-.78.53,1.72,1.72,0,0,1-1.27-.82,5.51,5.51,0,0,1-1-2.54,15.68,15.68,0,0,1-.15-1.65h-1.93V73a16.42,16.42,0,0,0,1.84-.44v.84c-.62.21-1.58.49-2.89.84-.08.15-.14.21-.2.21s-.13,0-.14-.17l-.25-1c.23,0,.48-.06.72-.1V66.86l.45.23c.8-.08,1.56-.17,2.29-.29a14.7,14.7,0,0,0,2.33-.61l.67.73a.31.31,0,0,1,.12.23c0,.07,0,.09-.09.09l-.29-.08A4.32,4.32,0,0,0,114.19,67.25Zm-1.06,7.39v.88h-3.8v-.88Zm-1-7c-.6.1-1.21.19-1.84.27v1.72h1.88C112.11,69,112.09,68.36,112.09,67.64Z"/><path class="cls-2" d="M118.15,70.51a20.5,20.5,0,0,1-.19,3A22,22,0,0,1,117.4,76l-.92-.46a18.46,18.46,0,0,0,.55-2.24,19.76,19.76,0,0,0,.2-2.74v-4h9v.79h-8.13Zm4.06-.46v2.34a.85.85,0,0,1-.16.56l.64,0c.15,0,.23.07.23.14s0,.12-.16.21v.34h2.88v.79h-2.88v.46h3.69v.84H118v-.84h3.81v-.46H118.9v-.79h2.94v-.57s-.06,0-.09,0a1.93,1.93,0,0,1-.7.13l-.35-.83h.48c.12,0,.2-.12.2-.32h-2v1.13h-.88V70.05h3.68ZM122,67.53v2.22h-3.3V67.53Zm-.66,3.4v-.3h-2v.3Zm0,.75v-.29h-2v.29Zm-.22-3.27v-.33h-1.54v.33Zm0,.46h-1.54v.34h1.54Zm2.61.38V68.16c0-.17,0-.37,0-.63l.82.06c.14,0,.21,0,.21.11s-.07.17-.2.25v1.3h1.59V70h-1.3a4.29,4.29,0,0,0,.51,1.3,4.4,4.4,0,0,0,1.16,1.25l-.79.59a10,10,0,0,1-.8-1,5.24,5.24,0,0,1-.52-1.07s0,0,0,0,0,.13,0,.17a3.2,3.2,0,0,1-.59,1.08,5,5,0,0,1-.75.7l-.67-.62a3.55,3.55,0,0,0,.66-.55,2.35,2.35,0,0,0,.53-.78,4.26,4.26,0,0,0,.22-1h-1.32v-.75Zm2.51-.63-.55.51a6.65,6.65,0,0,0-.79-.93l.5-.46A7.94,7.94,0,0,1,126.28,68.62Z"/><g class="cls-3"><path class="cls-4" d="M107.35,18.49V9l3.58-.11V16.8l6-.19v1.57l-9.61.31M111,6l-.48,0c0,.14-.14.27-.34.29-4.51.38-8.27,2.62-9.7,5.55L102,11.5,99.5,14.44h0v.13h0c.19,0,.35.1.36.24.22,3.27,3.3,5.93,7.52,6.81l-.38-1,4,1.61h.33c0-.14.15-.27.35-.29,4.57-.34,8.4-2.6,9.84-5.56l-1.46.31,2.45-2.94v-.18h0c-.19,0-.35-.09-.36-.23-.25-3.25-3.32-5.89-7.52-6.77l.38,1L111,6h0"/><path class="cls-2" d="M122.53,13.7l-2.45,2.94,1.46-.31c-1.44,3-5.27,5.22-9.84,5.56-.2,0-.36.15-.35.29h0c0,.14.18.25.37.24h0c4.93-.37,9.05-2.83,10.55-6.06l1.38.57Z"/><path class="cls-2" d="M114.63,6.52c4.2.88,7.27,3.52,7.52,6.77,0,.14.17.24.36.23h0c.2,0,.36-.14.35-.29-.27-3.51-3.62-6.35-8.18-7.25l.84-1L111,6l4,1.61Z"/><path class="cls-2" d="M99.5,14.44,102,11.5l-1.46.31c1.43-2.93,5.19-5.17,9.7-5.55.2,0,.35-.15.34-.29h0c0-.14-.18-.24-.37-.24h0c-4.86.4-8.92,2.85-10.4,6l-1.37-.57,1.13,3.22Z"/><path class="cls-2" d="M107.4,21.62c-4.22-.88-7.3-3.54-7.52-6.81,0-.14-.17-.24-.36-.24h0c-.21,0-.36.15-.35.29.24,3.54,3.6,6.4,8.18,7.3l-.83,1,4.52-1-4-1.61Z"/><polyline class="cls-2" points="110.93 8.92 107.35 9.03 107.35 18.49 116.96 18.18 116.96 16.61 110.93 16.8 110.93 8.92"/></g><ellipse class="cls-5" cx="102.25" cy="42.88" rx="101.75" ry="42.38"/><g class="cls-3"><path class="cls-4" d="M179.16,22.71V13.25l3.57-.11V21l6-.19V22.4l-9.6.31m3.66-12.54-.49,0c0,.15-.14.28-.34.29-4.51.38-8.27,2.62-9.7,5.56l1.47-.32-2.46,2.94h0v.14h0c.19,0,.35.09.36.24.23,3.27,3.3,5.92,7.52,6.81l-.38-1,4,1.61.34,0c0-.14.14-.27.34-.28,4.57-.34,8.4-2.6,9.85-5.57l-1.47.32,2.45-2.94v-.18h0c-.19,0-.35-.1-.36-.24-.25-3.25-3.32-5.89-7.52-6.77l.39,1-4-1.61h0"/><path class="cls-2" d="M194.33,17.93l-2.45,2.94,1.47-.32c-1.45,3-5.28,5.23-9.85,5.57-.2,0-.35.14-.34.28h0c0,.14.17.24.37.23h0c4.92-.37,9-2.83,10.55-6.06l1.37.57Z"/><path class="cls-2" d="M186.43,10.74c4.2.88,7.27,3.52,7.52,6.77,0,.14.17.24.36.24h0c.21,0,.36-.15.35-.29-.27-3.52-3.62-6.35-8.18-7.26l.84-1-4.52,1,4,1.61Z"/><path class="cls-2" d="M171.3,18.66l2.46-2.94-1.47.32c1.43-2.94,5.19-5.18,9.7-5.56.2,0,.35-.14.34-.29h0c0-.14-.18-.24-.36-.23h0c-4.86.41-8.92,2.85-10.4,6.05l-1.37-.57,1.13,3.21Z"/><path class="cls-2" d="M179.2,25.85C175,25,171.91,22.31,171.68,19c0-.15-.17-.25-.36-.24h0c-.2,0-.36.14-.35.28.25,3.54,3.61,6.4,8.19,7.31l-.84,1,4.52-1-4-1.61Z"/><polyline class="cls-2" points="182.73 13.14 179.16 13.25 179.16 22.71 188.76 22.4 188.76 20.83 182.73 21.02 182.73 13.14"/></g></g></g></svg>