<svg xmlns="http://www.w3.org/2000/svg" viewBox="0 0 69.64 111.45"><defs><style>.cls-1{fill:#749637;}.cls-2{fill:#b5cf4c;}.cls-3{fill:#8ab243;}.cls-4{fill:#d1c55d;}</style></defs><title>資產 31</title><g id="圖層_2" data-name="圖層 2"><g id="圖層_4" data-name="圖層 4"><path class="cls-1" d="M28,12.79a38.33,38.33,0,0,0-12.48-3C9.18,9.55-.37,7,0,0,0,0,4.63,2.93,9,2.77c3-.1,5.84-.27,7.41-.38a12.13,12.13,0,0,0,2.08-.3c2.24-.52,8.26-1.54,10.93,1.68,2.81,3.41.07,6.09-.82,6.82a2.25,2.25,0,0,1-.36.24C28.06,11,27.61,11.4,28,12.79Z"/><path class="cls-2" d="M29.38,60c0-4.38.58-8.78.94-13.21a96,96,0,0,0,.13-13c0-.55-.07-1.09-.11-1.63s-.09-1.08-.15-1.63c-.11-1.08-.23-2.19-.27-3.32a17.9,17.9,0,0,1,.16-3.42,30.86,30.86,0,0,1,.69-3.31,33,33,0,0,1,1.05-3.19c.09-.26.2-.52.3-.78l.16-.38.15-.36a15.64,15.64,0,0,0,.49-1.51,31.39,31.39,0,0,0,.83-6.46,27.88,27.88,0,0,1,.27,3.3,19.69,19.69,0,0,1-.18,3.34,13.73,13.73,0,0,1-.34,1.67l-.45,1.59c-.15.52-.28,1-.4,1.56s-.23,1.05-.33,1.58A28.5,28.5,0,0,0,31.9,24a25.41,25.41,0,0,0-.06,3.15c0,1.06.09,2.14.16,3.24s.14,2.2.19,3.31c.1,2.2.15,4.41.12,6.62,0,1.11,0,2.21-.09,3.32s-.1,2.21-.17,3.31c-.26,4.32.4,8.71.63,13.08Z"/><path class="cls-2" d="M49.55,26.66s3.69,1.09,1.44,3.81-7.11,2.37-9.3,3.12-9.19.58-9.54,8.95L32,36.94a6,6,0,0,1,1.73-3.12C35.1,32.63,49.55,26.66,49.55,26.66Z"/><path class="cls-3" d="M32.85,34.8s3.28-9.74,16.7-8.14a1.06,1.06,0,0,1,.86.66c.65,1.9-5,4.24-9.76,4.71C35.33,32.55,32.85,34.8,32.85,34.8Z"/><path class="cls-2" d="M13.57,27.05s-3.7,1.09-1.44,3.8,7.1,2.37,9.3,3.12,9.18.58,9.53,9l.17-5.61A5.93,5.93,0,0,0,29.4,34.2C28,33,13.57,27.05,13.57,27.05Z"/><path class="cls-3" d="M30.27,35.19S27,25.44,13.57,27.05a1,1,0,0,0-.86.66c-.65,1.89,5,4.23,9.76,4.7C27.78,32.93,30.27,35.19,30.27,35.19Z"/><path class="cls-2" d="M27,10.3l.88.85c.28.29.56.58.83.88.54.6,1,1.22,1.54,1.86.24.33.47.66.69,1A12.25,12.25,0,0,1,31.54,16a9.08,9.08,0,0,1,.5,1.15,5.78,5.78,0,0,1,.29,1.26l-.89.09a5.81,5.81,0,0,0-.74-2.06c-.18-.32-.38-.65-.59-1s-.45-.63-.69-.93a23,23,0,0,0-1.52-1.75l-.82-.82c-.28-.27-.57-.54-.85-.78Z"/><path class="cls-3" d="M15.5,9.78a38.49,38.49,0,0,1,12.42,3l-.39-2.28C26.15,1.81,14.94,3.72,8.75,5.91S0,0,0,0C-.37,7,9.18,9.55,15.5,9.78Z"/><path class="cls-2" d="M31.54,24.53l-.89-.22a16.69,16.69,0,0,1,2.08-4.58,12.69,12.69,0,0,1,8.09-5.85l.19.9C33.68,16.32,31.56,24.45,31.54,24.53Z"/><path class="cls-3" d="M69.64,13.19l-.77.18c-2.14.52-8.12,2.16-10.66,4.79-3.12,3.24-10.63,5.66-16.75,2.95-3.47-2-3.18-3.24-1.91-4.1,1.08-.74,1.79-1.94,1.16-2.67h0a1.46,1.46,0,0,0-.47-.34,1.26,1.26,0,0,0-.86-1.85c-1.56-.52-4-2.08-1.27-5.66s7.56-5,13.4-3.12S66.22,13.75,69.64,13.19Z"/><path class="cls-1" d="M68.87,13.37c-2.14.52-8.12,2.16-10.66,4.79-3.12,3.24-10.63,5.66-16.75,2.95-3.47-2-3.18-3.24-1.91-4.1,1.08-.74,1.79-1.94,1.16-2.67,2.55-.77,15-4.32,21.34-2.1A18.37,18.37,0,0,0,68.87,13.37Z"/><path class="cls-2" d="M40.19,14a20.55,20.55,0,0,0,3-.57c1-.26,2-.54,3.05-.82l1.54-.41c.52-.13,1-.25,1.57-.36s1-.18,1.58-.26,1.06-.14,1.59-.19c1.06-.1,2.13-.14,3.2-.14a30.84,30.84,0,0,1,3.19.17A23.83,23.83,0,0,1,62.1,12a19.67,19.67,0,0,1,3,1,19.24,19.24,0,0,0-3.06-.75,23.7,23.7,0,0,0-3.13-.31c-1.05,0-2.1,0-3.14,0s-2.09.17-3.13.3-2.08.28-3.09.47c-.51.1-1,.22-1.52.35l-1.53.41c-1,.28-2,.56-3.07.82a20.53,20.53,0,0,1-3.18.59Z"/><path class="cls-2" d="M41.34,14.11a.89.89,0,0,0,.95-.57,1.49,1.49,0,0,0,.09-.3,1.84,1.84,0,0,0,0-.33,2.17,2.17,0,0,0-.11-.66c-.28-.87-.94-1.63-1.18-2.59a2.25,2.25,0,0,1-.06-.36c0-.13,0-.25,0-.37a2.72,2.72,0,0,1,.16-.71,3,3,0,0,1,.84-1.17,3.93,3.93,0,0,1,1.23-.73,3.75,3.75,0,0,1,1.4-.24,3.62,3.62,0,0,0-1.38.28,3.87,3.87,0,0,0-1.19.75,2.91,2.91,0,0,0-.78,1.15,2.64,2.64,0,0,0-.13.68,1.93,1.93,0,0,0,0,.34,1.37,1.37,0,0,0,.07.34,5.34,5.34,0,0,0,.59,1.26,7.12,7.12,0,0,1,.66,1.29,2.26,2.26,0,0,1,.15.73,2.36,2.36,0,0,1,0,.38,1.06,1.06,0,0,1,0,.19.7.7,0,0,1-.06.19,1.38,1.38,0,0,1-.5.62,1.08,1.08,0,0,1-.81.17Z"/><path class="cls-2" d="M45.76,13.05a11,11,0,0,1,1.12-2.5A10.25,10.25,0,0,1,48.6,8.44,7.81,7.81,0,0,1,50.88,7a5.48,5.48,0,0,1,2.65-.44A5.4,5.4,0,0,0,50.91,7a7.93,7.93,0,0,0-2.19,1.53,9.86,9.86,0,0,0-1.61,2.13,10.39,10.39,0,0,0-1,2.46Z"/><path class="cls-2" d="M53.3,11.64A3.9,3.9,0,0,1,54.71,10a5,5,0,0,1,2-.72,8,8,0,0,1,2.13,0,9.83,9.83,0,0,1,2.06.5,9.15,9.15,0,0,0-2.07-.41,8.11,8.11,0,0,0-2.09.08,4.78,4.78,0,0,0-1.91.77,3.48,3.48,0,0,0-1.24,1.57Z"/><path class="cls-2" d="M41.69,14.05a1.12,1.12,0,0,1,.82-.07,1.34,1.34,0,0,1,.66.43,1.46,1.46,0,0,1,.22.33,1.55,1.55,0,0,1,.13.36,2.37,2.37,0,0,1,0,.75,8,8,0,0,1-.28,1.41,5.63,5.63,0,0,0-.14.69,3.18,3.18,0,0,0,0,.69,2.42,2.42,0,0,0,.58,1.23,3.17,3.17,0,0,0,1.11.84,4,4,0,0,0,1.36.35,3.51,3.51,0,0,0,1.4-.18,3.37,3.37,0,0,1-1.4.22,4,4,0,0,1-1.4-.31A3.34,3.34,0,0,1,43.64,20a2.63,2.63,0,0,1-.65-1.3,3,3,0,0,1,0-.73,5.52,5.52,0,0,1,.11-.71,7.69,7.69,0,0,0,.24-1.38,2.46,2.46,0,0,0-.06-.67,1.57,1.57,0,0,0-.12-.3,1.2,1.2,0,0,0-.18-.26,1.17,1.17,0,0,0-.53-.32.77.77,0,0,0-.56.06Z"/><path class="cls-2" d="M46.27,13.19a10.41,10.41,0,0,0,4.12,3.49,7.83,7.83,0,0,0,2.63.74A5,5,0,0,0,55.7,17a5.08,5.08,0,0,1-2.69.52,8.06,8.06,0,0,1-2.69-.67A10.72,10.72,0,0,1,46,13.39Z"/><path class="cls-2" d="M53.76,12a3.42,3.42,0,0,0,2.38,2.71,6.83,6.83,0,0,0,1.91.33,14.25,14.25,0,0,0,2,0,16.13,16.13,0,0,1-2,.13,7.23,7.23,0,0,1-2-.26,3.82,3.82,0,0,1-1.72-1,3.94,3.94,0,0,1-.95-1.79Z"/><path class="cls-4" d="M49.12,71.78c-.06,0-.13-.06-.2-.1l-.21-.08a3,3,0,0,0-.43-.1c-.29,0-.59,0-.87-.07a3.76,3.76,0,0,1-1.63-.35,19.44,19.44,0,0,1-2.79-2,7.66,7.66,0,0,0-3.3-1.3l0,.14c-.19-.24-.38-.47-.59-.69s-.32-.33-.49-.49-.35-.3-.54-.44-.26-.18-.39-.27a7.18,7.18,0,0,0,.8,0c.38,0,.76-.09,1.14-.13l.55,0,.55,0a4.51,4.51,0,0,1,1,.11,4,4,0,0,1,.49.16l.12,0,.11.06.21.13a4.88,4.88,0,0,1,.78.74c.13.14.26.29.4.42a3.48,3.48,0,0,0,.48.38,2,2,0,0,0,.57.23,1,1,0,0,0,.3,0h.14s.78,0,.82,0a4.13,4.13,0,0,1-1.64-.48,3.52,3.52,0,0,1-.36-.41c-.11-.14-.21-.3-.32-.45a5.32,5.32,0,0,0-.36-.47,2.68,2.68,0,0,0-.45-.44,2.83,2.83,0,0,0-1.14-.53,5.06,5.06,0,0,0-2.39.08c-.38.09-.74.2-1.11.31l-.55.16-.33.09-.06,0c-.21-.11-.43-.21-.65-.3a4,4,0,0,0-1.4-.25c-.47,0-.91,0-1.35.06a3.94,3.94,0,0,1-.68,0q-.06-.57-.15-1.14a23.67,23.67,0,0,0-.56-4.49,7.61,7.61,0,0,1-3.29,0,7.32,7.32,0,0,0,.28,1.67,2.47,2.47,0,0,1,.07,1,1.92,1.92,0,0,1-.09.44,2.26,2.26,0,0,1-.49.55,4.42,4.42,0,0,1-.73.49c-.28.15-.57.28-.88.41-.62.26-1.3.5-2,.8a4.9,4.9,0,0,0-.52.24l-.13.06-.13.08-.08,0,0,0a8.29,8.29,0,0,1-3.77,1.13c-.33,0-.66,0-1,0s-.67-.07-1-.13c-.66-.13-1.3-.34-2-.54a8.78,8.78,0,0,0-2-.4,5.3,5.3,0,0,0-5,3.08,5.23,5.23,0,0,1,3-2.59,4.8,4.8,0,0,1,2-.26,8.34,8.34,0,0,1,2,.46,20.55,20.55,0,0,0,2,.62,8.85,8.85,0,0,0,1,.17,9.23,9.23,0,0,0,1.05,0,8.48,8.48,0,0,0,2.12-.3,8.72,8.72,0,0,0-1.16,1.4,4.94,4.94,0,0,0-.27.42,4,4,0,0,0-1.28-.34,4.76,4.76,0,0,0-1.64.12,4.63,4.63,0,0,0-1.51.66c-.46.3-3.42.89-3.71,1.35.47-.27,3.48-.72,3.95-.92a9.44,9.44,0,0,1,2.9-.71,9.68,9.68,0,0,1,1.21,0c-.11.17-.2.35-.3.53-.19.37-.36.76-.52,1.15a12.38,12.38,0,0,0-.64,2.48,10.81,10.81,0,0,0,0,2.54,10.23,10.23,0,0,1,1.31-4.59,8.78,8.78,0,0,1,.61-.93,8.07,8.07,0,0,1,.7-.83,7.36,7.36,0,0,1,1.59-1.24l.09,0-.06.14-.06.19,0,.1,0,.09-.11.39-.09.39c0,.13-.05.26-.07.39s-.05.26-.07.39c-.17,1-.25,2.1-.4,3.12l0,.19,0,.19c0,.13,0,.26-.07.38l-.07.38-.09.37c-.12.5-.28,1-.42,1.51a7.66,7.66,0,0,0-.27,1.59c0,.14,0,.28,0,.41s0,.27.07.41.07.26.11.38a2,2,0,0,0,.18.36,3.71,3.71,0,0,1-.12-.77v-.19a1.15,1.15,0,0,0,0-.19c0-.12,0-.25.05-.38a8.83,8.83,0,0,1,.44-1.47l.27-.74c.09-.25.18-.5.25-.76A10.82,10.82,0,0,0,24,73.11c.16-1.06.19-2.11.26-3.15l0-.19v-.2c0-.13,0-.26,0-.39l0-.38.05-.39,0-.1v-.09l0-.2,0-.19,0-.14c.18-.08.36-.16.53-.22l.22-.07.11,0,.12,0c.15,0,.31-.06.47-.11a10.07,10.07,0,0,0,4.71-2.85c.13.73.42,2.84.53,3.58l.21,1.55c.06.51.12,1,.16,1.54a18,18,0,0,1-.26,5.89,20,20,0,0,1-.58,2,13.2,13.2,0,0,1-3.36,1.51,12.06,12.06,0,0,1-2.15.44c-.18,0-.36,0-.55.06l-.55,0h-1.1a17,17,0,0,0-2.25.12,6.12,6.12,0,0,0-1.1.28,4.2,4.2,0,0,0-1,.54c-.3.23-.57.49-.84.74a6.41,6.41,0,0,1-.86.7,8,8,0,0,1-2,1,8.1,8.1,0,0,0,2-1,10,10,0,0,0,.89-.68,9.4,9.4,0,0,1,.85-.71,4,4,0,0,1,1-.48,5,5,0,0,1,1.07-.23,14.8,14.8,0,0,1,2.21,0l1.12,0h.57l.56,0a13,13,0,0,0,2.23-.38,13.71,13.71,0,0,0,2.95-1.13l0,.07c-.17.49-.35,1-.52,1.5l-.25.77-.23.78-.12.44h-.51l-.86,0-.86,0-.43,0h-.21a1.6,1.6,0,0,0-.23,0,1,1,0,0,0-.24,0l-.11,0-.12,0a2.86,2.86,0,0,0-.43.21l-.2.14a1.19,1.19,0,0,0-.18.15,3.34,3.34,0,0,0-.33.32c-.2.21-.38.44-.57.65a3.83,3.83,0,0,1-.28.29,3.47,3.47,0,0,1-.29.25l-.31.19a2.42,2.42,0,0,1-.35.12c-.12,0-.24,0-.37.06h-.41l-.87,0a3.42,3.42,0,0,0-.45,0,2.42,2.42,0,0,0-.45.1,2.35,2.35,0,0,0-.44.17,2.75,2.75,0,0,0-.4.26,4.19,4.19,0,0,0-.61.66c-.17.23-.34.46-.52.68l-.07.07-.08.08-.07.07-.08.07a1.09,1.09,0,0,1-.17.13l-.09.06-.09,0a1.76,1.76,0,0,0,.4-.16l.1-.05.09-.07.09-.06.09-.07c.23-.18.43-.39.64-.59a3.79,3.79,0,0,1,.62-.53,2,2,0,0,1,.71-.29,5.07,5.07,0,0,1,.8-.07l.85,0a3.38,3.38,0,0,0,.45,0,2.63,2.63,0,0,0,.48-.06,3.57,3.57,0,0,0,.46-.16,2.91,2.91,0,0,0,.42-.25,3.7,3.7,0,0,0,.29-.24,2.81,2.81,0,0,1-.1.31,6.43,6.43,0,0,1-.47,1l-.15.23a1,1,0,0,0-.08.11l-.08.11-.08.1-.08.11-.09.1L23,88l-.39.38a5.35,5.35,0,0,0-.42.41,2.2,2.2,0,0,0-.2.23,2.66,2.66,0,0,0-.33.57c0,.1-.07.2-.1.3s-.09.38-.13.55a.56.56,0,0,0,0,.12s0,.08,0,.12a1.6,1.6,0,0,1-.1.23,3,3,0,0,1-1.52,1.43l-.09,0a3.42,3.42,0,0,0,1.24-.31,2.5,2.5,0,0,0,.47-.39,3.05,3.05,0,0,0,.38-.49l.14-.28a1.78,1.78,0,0,0,.12-.29c.07-.19.11-.38.17-.55a2.25,2.25,0,0,1,.08-.24,2.12,2.12,0,0,1,.11-.21,3.47,3.47,0,0,1,.3-.4l.19-.19.2-.2.2-.21c.07-.07.13-.15.2-.23a4.32,4.32,0,0,0,.63-1,4.57,4.57,0,0,0,.33-1.13,4.32,4.32,0,0,0,0-.62l.15-.17c.2-.23.37-.46.55-.66a3.84,3.84,0,0,1,.27-.29l.15-.14.15-.11a2,2,0,0,1,.68-.32l.19,0,.21,0,.43-.07.85-.15.84-.16.43-.09h0A60.27,60.27,0,0,0,27.8,93.51a11.48,11.48,0,0,0-2.22,3.3,10.4,10.4,0,0,0-.69,2.49,8.31,8.31,0,0,0,0,2.34c.05-.79.51-2.28.6-3,.43-3.33,2.22-3.94,2.3-4a67.87,67.87,0,0,0,.69,7.44,1.62,1.62,0,0,1-.1.18,3.94,3.94,0,0,1-1,1.15,12.46,12.46,0,0,1-1.31.88l-.69.46a6.55,6.55,0,0,0-.66.52l-.16.15-.14.16-.15.16a1.83,1.83,0,0,0-.13.16l-.13.17-.12.18-.12.18-.1.19a6.52,6.52,0,0,0-.6,1.57,10,10,0,0,0-.27,1.62l0,.41c0,.13,0,.27,0,.41v.81a27.76,27.76,0,0,1,.81-3.11,7.51,7.51,0,0,1,.64-1.41,5.51,5.51,0,0,1,1-1.18,7.49,7.49,0,0,1,.6-.49l.65-.45c.22-.16.45-.31.67-.48a6.32,6.32,0,0,0,.64-.54,4.12,4.12,0,0,0,.86-1.17,41.55,41.55,0,0,0,1.47,5.6,10.47,10.47,0,0,1,.19,1.12c0,.07,0,.32.15.28s.11-.31.13-.37a2.93,2.93,0,0,0-.09-1.35c-.13-.46-.25-.93-.37-1.4-.23-.94-.42-1.89-.59-2.85-.1-.62-.19-1.25-.27-1.88,0-.32-.07-.64-.1-1,0-.15,0-.31-.05-.46s0-.38,0-.47l.06.1a4.48,4.48,0,0,0,.39.53l.12.12s0,0,.06.06l.06,0a.69.69,0,0,0,.13.11l.14.1.13.09.15.08.14.07.15.07.3.12.14.05.15,0c.4.12.8.21,1.19.32l.14,0,.15,0,.28.09.28.11.13.06.14.06a4.74,4.74,0,0,1,1,.69,4.84,4.84,0,0,1,.75.94,4.23,4.23,0,0,1,.47,1.12,4.43,4.43,0,0,0-.4-1.16,5,5,0,0,0-.71-1,4.32,4.32,0,0,0-1-.78l-.13-.08-.14-.08c-.13,0-.25-.12-.37-.16v0h0l.39-.06c.32,0,.64,0,1,0a7.74,7.74,0,0,1,1.86.2l.23,0,.22.07.11,0,.11,0,.11,0,.11,0c.3.1.59.24.91.36a3.12,3.12,0,0,0,2,.1,4.77,4.77,0,0,1-1.82-.55l-.42-.24-.23-.12-.23-.11-.12,0-.12,0-.12,0-.12,0-.25-.08-.25-.06a5.4,5.4,0,0,0-2-.08,5.52,5.52,0,0,0-1,.25,4.11,4.11,0,0,0-.6.28l-.07,0-.15,0c-.39-.14-.78-.26-1.15-.4l-.13,0L31,101a2.1,2.1,0,0,1-.26-.13l-.13-.07-.13-.07-.11-.08-.12-.08-.1-.09-.1-.09-.05,0s0,0,0,0l-.09-.11a3.46,3.46,0,0,1-.3-.47,4.66,4.66,0,0,0-.32-.56,2.47,2.47,0,0,0-.21-.27l-.08-.08c-.05-1-.06-2,0-3a42.33,42.33,0,0,1,.55-6,10.45,10.45,0,0,1,2.18,2.26,13,13,0,0,1,2.12,4.77,2.54,2.54,0,0,1,0-.48,16.16,16.16,0,0,0-.85-3.54c-.25-.74-.56-1.46-.8-2.2.32.14.71.18,1,.29s.71.23,1.06.31,1,.18,1.46.26a6.47,6.47,0,0,1,1.69.5,3.42,3.42,0,0,1,.74.47,2.46,2.46,0,0,1,.57.7,1.81,1.81,0,0,0-.34-.91,2.78,2.78,0,0,0-.72-.69,4.57,4.57,0,0,0-.88-.45c-.16-.06-.32-.1-.47-.14l-.48-.11c-.64-.1-1.26-.13-1.86-.2a14.58,14.58,0,0,1-2-.43,15.33,15.33,0,0,0-2.09-2.61c.11-.45.29-1.12.49-1.8a9,9,0,0,1,3.26.29,8.5,8.5,0,0,1,1.71.69,9.21,9.21,0,0,1,1.55,1A17.2,17.2,0,0,0,38.37,89a8.53,8.53,0,0,0,1.74.79,13.16,13.16,0,0,0,3.73.55,12.76,12.76,0,0,1-3.68-.7,7.19,7.19,0,0,1-1.66-.84A14.67,14.67,0,0,1,37,87.58a10,10,0,0,0-1.55-1.12,9,9,0,0,0-1.76-.79,9.3,9.3,0,0,0-3.23-.46c.19-.64.37-1.24.51-1.65.32-1,.69-1.88,1.09-2.84a32.27,32.27,0,0,0,1.12-3.07,15.57,15.57,0,0,0,.39-1.7c.1-.57.15-2.68.2-3.26l1.26,1,1,.59s1.78,1.57,2,1.7c0,0,.06.37.07.38a9.1,9.1,0,0,1-.19,1.47c-.14.64-.31,1.28-.41,2l0,.26,0,.25v.26a2.44,2.44,0,0,0,0,.27,4.64,4.64,0,0,0,.14,1,3.18,3.18,0,0,0,.41,1,2.21,2.21,0,0,0,.76.7A3.21,3.21,0,0,1,38,81.76a7.05,7.05,0,0,1,.08-1.89c.1-.64.23-1.3.27-2a5.05,5.05,0,0,0,0-1c0-.13.09-.58.06-.7.12.09.35.33.47.42.38.29.5.79.82,1.17a4.51,4.51,0,0,1,.44.61,3.78,3.78,0,0,1,.37.69,5.07,5.07,0,0,1,.25.78,5.66,5.66,0,0,1,.12.84,6.15,6.15,0,0,0,.06-.87,5.51,5.51,0,0,0-.1-.9,5.64,5.64,0,0,0-.24-.87,5.82,5.82,0,0,0-.35-.81,8.42,8.42,0,0,0-.93-1.46c-.17-.22-.35-.44-.53-.65s-.37-.41-.57-.6a2.28,2.28,0,0,0-.22-.22h0a12.21,12.21,0,0,0,1.31.64c.89.37,1.81.64,2.7.94A14.21,14.21,0,0,1,44.57,77a6.21,6.21,0,0,1,1.13.79,5.53,5.53,0,0,1,1,1,4.14,4.14,0,0,0-.73-1.25,6.08,6.08,0,0,0-1.09-1,10.47,10.47,0,0,0-2.63-1.27c-.91-.31-1.84-.54-2.74-.81a15.47,15.47,0,0,1-2.15-.8L37,73.41l-.3-.26-.3-.25-.59-.49-2-1.68c0-.53-.06-1-.1-1.57s-.09-1.09-.14-1.63-.13-1.29-.21-1.93a3.42,3.42,0,0,0,.63.16c.46.07.91.07,1.34.12A4.25,4.25,0,0,1,36,66a4.1,4.1,0,0,1,.59.2,5.77,5.77,0,0,1,.55.29,3.74,3.74,0,0,1,.53.35,6.25,6.25,0,0,1,.5.4c.17.14.32.29.48.44.31.3.61.62.91.95l.45.49.45.49a3,3,0,0,1,.68,1.12,1.27,1.27,0,0,0,0-.34,1.89,1.89,0,0,0-.09-.34,4,4,0,0,0-.31-.62c-.12-.2-.24-.38-.37-.57l-.27-.39a7.14,7.14,0,0,1,2.66,1c.48.31.93.65,1.41,1a7.63,7.63,0,0,0,1.52.88,4.05,4.05,0,0,0,1.74.3,3.38,3.38,0,0,1,1.65.26,2.78,2.78,0,0,1,1.14,1.21,9.17,9.17,0,0,1,.63,1.6,9.51,9.51,0,0,0-.56-1.63A2.92,2.92,0,0,0,49.12,71.78Z"/></g></g></svg>