<svg xmlns="http://www.w3.org/2000/svg" viewBox="0 0 141.52 315.02"><defs><style>.cls-1{isolation:isolate;}.cls-2{fill:#005c86;}.cls-3{fill:#007fba;}.cls-4{fill:#0076ad;}</style></defs><title>資產 3</title><g id="圖層_2" data-name="圖層 2"><g id="圖層_4" data-name="圖層 4"><g class="cls-1"><polygon class="cls-2" points="43.58 75.63 34.67 70.45 34.59 43.08 43.51 48.26 43.58 75.63"/><polygon class="cls-2" points="43.47 36.53 34.56 31.35 34.49 7.01 43.4 12.19 43.47 36.53"/><polygon class="cls-3" points="43.4 12.19 34.49 7.01 46.63 0 55.54 5.18 43.4 12.19"/><polygon class="cls-3" points="21.13 49.43 12.21 44.25 34.56 31.35 43.47 36.53 21.13 49.43"/><polygon class="cls-4" points="55.54 5.18 55.72 68.62 43.58 75.63 43.51 48.26 21.16 61.16 21.24 88.53 9.09 95.54 8.91 32.1 21.06 25.09 21.13 49.43 43.47 36.53 43.4 12.19 55.54 5.18"/><polygon class="cls-2" points="9.09 95.54 0.18 90.36 0 26.92 8.91 32.1 9.09 95.54"/><polygon class="cls-3" points="8.91 32.1 0 26.92 12.14 19.91 21.06 25.09 8.91 32.1"/></g><g class="cls-1"><polygon class="cls-2" points="129.38 295.11 120.47 289.93 120.39 262.56 129.3 267.74 129.38 295.11"/><polygon class="cls-2" points="129.27 256.01 120.36 250.83 120.29 226.48 129.2 231.66 129.27 256.01"/><polygon class="cls-3" points="129.2 231.66 120.29 226.48 132.42 219.47 141.34 224.65 129.2 231.66"/><polygon class="cls-3" points="106.92 268.91 98.01 263.73 120.36 250.83 129.27 256.01 106.92 268.91"/><polygon class="cls-4" points="141.34 224.65 141.52 288.1 129.38 295.11 129.3 267.74 106.95 280.64 107.03 308.01 94.89 315.02 94.71 251.57 106.85 244.56 106.92 268.91 129.27 256.01 129.2 231.66 141.34 224.65"/><polygon class="cls-2" points="94.89 315.02 85.98 309.84 85.8 246.4 94.71 251.57 94.89 315.02"/><polygon class="cls-3" points="94.71 251.57 85.8 246.4 97.94 239.38 106.85 244.56 94.71 251.57"/></g></g></g></svg>