<svg xmlns="http://www.w3.org/2000/svg" viewBox="0 0 285.53 111.06"><defs><style>.cls-1{fill:#fff;}</style></defs><title>資產 3</title><g id="圖層_2" data-name="圖層 2"><g id="圖層_1-2" data-name="圖層 1"><path class="cls-1" d="M1.29,5.17H.22v-1H1.29V1.45H.22v-1H3.37v1H2.27V4.21h.91v1H2.27V8l.82-.47.54.78A19.64,19.64,0,0,1,.5,9.73L0,8.85l1.29-.44ZM4.94,7.34a9.13,9.13,0,0,1-1.35,3.33,3.19,3.19,0,0,0-.8-.55A6.55,6.55,0,0,0,4,7.11ZM3.92.65c0-.16.06-.23.2-.23h6.55v.91H7.84v.86H10.4v.87H7.84V3.8h2.61v.86H7.84v.73h2.85a.18.18,0,0,1,.2.2,23.8,23.8,0,0,1-.1,4,1.54,1.54,0,0,1-.56,1c-.34.3-1.14.37-2.4.23l-.07-1A9.06,9.06,0,0,0,9.1,10a.56.56,0,0,0,.42-.12,1.43,1.43,0,0,0,.37-.78,15.47,15.47,0,0,0,0-2.72c0-.06-.05-.1-.14-.1H4.09a.15.15,0,0,1-.17-.17V.65Zm3,.68H5c-.08,0-.12,0-.11.12v.74h2Zm0,1.73h-2V3.8h2Zm0,2.33V4.66h-2v.73ZM5.26,7.26h.92a24.76,24.76,0,0,1,.09,3l-.91-.06a16.65,16.65,0,0,0-.1-3ZM7.6,7.07a24.57,24.57,0,0,1,.45,2.49l-.91.09a11.53,11.53,0,0,0-.46-2.44ZM8.86,6.8a18.88,18.88,0,0,1,.78,1.83l-.83.26a13.09,13.09,0,0,0-.75-1.78Z"/><path class="cls-1" d="M12.77,7a.65.65,0,0,1,0-.69c.17-.41.47-1.53.92-3.32H12.7v-1h1.13l.3-1.75,1,.18L14.9,1.94h1.83c.18,0,.26.11.25.32l-.07,1.07A15.58,15.58,0,0,1,15.8,7.87l1.11.78-.5.88-1.09-.77a10,10,0,0,1-1.84,2.07l-.94-.65a10,10,0,0,0,1.91-2Zm3.12-4H14.71a28.07,28.07,0,0,1-.93,3.37v.08l.12.12,1,.73a11.19,11.19,0,0,0,.65-2A15.66,15.66,0,0,0,15.89,2.94Zm3.86,4.73H17.16v-1h2.59v-1h1v1h2.48v1H20.77V9.61h2.95v1h-6.9v-1h2.93Zm0-5.28H17.53v-1h2.22V.13h1V1.39h2.4v1h-2.4V4.06h2.77v1H17.19v-1h2.56Z"/><path class="cls-1" d="M35.26,8.44H32.41l.15.21a3.1,3.1,0,0,0,1,.91,2.22,2.22,0,0,0,1.08.4A.4.4,0,0,0,35,9.82a3,3,0,0,0,.23-1.29l1,.3a4.36,4.36,0,0,1-.51,1.89.87.87,0,0,1-.72.33,3.53,3.53,0,0,1-1.66-.49,4.18,4.18,0,0,1-1.47-1.23,7.41,7.41,0,0,1-.95-2.22,27.6,27.6,0,0,1-.39-5.65c0-.13-.06-.19-.14-.18H26.72a.12.12,0,0,0-.12.13V4.49c0,1.71-.05,3.05-.13,4A16,16,0,0,1,26,11l-1-.27a25.63,25.63,0,0,0,.5-2.55,29.55,29.55,0,0,0,.12-3V.61a.2.2,0,0,1,.23-.23h5.26c.19,0,.29.11.3.35V2.86L32,2.8A20.48,20.48,0,0,0,33,.06l.87.27a17.78,17.78,0,0,1-.77,2.33l1.66-.2-.49-1.12.88-.29a21.41,21.41,0,0,1,1,2.74L35.35,4l-.26-.77-3.34.46L31.48,3a14.08,14.08,0,0,0,.75,5.13V4.39a.12.12,0,0,1,.13-.13h2.9c.1,0,.15,0,.15.13v3.9A.13.13,0,0,1,35.26,8.44Zm-8.49,2-.18-1,1.66-.19V8H27.11C27,8,27,8,27,7.87V3.58c0-.09,0-.12.12-.12h1.14V2.79l-1.19,0L27,1.93a17.22,17.22,0,0,0,3.07-.32l.13.91-1.11.2v.74h1.13c.09,0,.13,0,.13.12V7.87a.12.12,0,0,1-.13.13H29.08V9.25L30,9.14l-.31-.6.84-.35a17.7,17.7,0,0,1,1.09,2.36l-.86.31L30.39,10Zm1.48-6.21h-.4l0,0V7.13l0,0h.4Zm.83,2.91h.39s.05,0,.05,0V4.31l-.05,0h-.39Zm4.11-2.06s0,0,0,0V7.53l0,0h1.24l0,0V5.15l0,0Z"/><path class="cls-1" d="M39.33,1.46V6.24a10.6,10.6,0,0,1-.82,4.63l-.89-.55a10.19,10.19,0,0,0,.74-4.44V.55c0-.16.09-.24.26-.24h8.2c.19,0,.29.09.29.3A39.66,39.66,0,0,0,47.57,9c.06.2.12.31.17.32s.11-.07.12-.2l0-.94,1,0a5.43,5.43,0,0,1-.41,2.26.8.8,0,0,1-.6.42c-.3,0-.56-.23-.78-.72a8.56,8.56,0,0,1-.64-2.77C46.24,6,46.21,4,46.22,1.46c0-.13-.06-.2-.18-.2h-6.5A.19.19,0,0,0,39.33,1.46Zm0,9.36-.17-1,3.09-.34V7.83h-2.2a.12.12,0,0,1-.14-.14V4.08a.13.13,0,0,1,.14-.14h2.2V3l-2.4.06-.12-1a32.28,32.28,0,0,0,5.81-.41l.14.94a19,19,0,0,1-2.3.29l-.16,0v1h2.21a.13.13,0,0,1,.14.14V7.69a.12.12,0,0,1-.14.14H43.22V9.4L45,9.21l-.45-.76.9-.44a19.46,19.46,0,0,1,1.37,2.57l-.92.38-.38-.81Zm2.92-5.93H40.92l0,0v1.9l0,0h1.33Zm1,2h1.33s.05,0,.05,0V4.93l-.05,0H43.22Z"/><path class="cls-1" d="M50.88,8.05l-.79-.63A14.51,14.51,0,0,0,53.87,2.6h-3v-1h2A10.43,10.43,0,0,0,51.58.8L52.09,0a7.21,7.21,0,0,1,1.5,1l-.46.6h1.11l.5-1.57,1,.3-.43,1.27h4.4a.41.41,0,0,1,.3.16.41.41,0,0,1,.09.37l-.44,1.41h.59a.41.41,0,0,1,.31.15.38.38,0,0,1,.1.38L60.2,5.45h.61l.22,0q.18.09.18.51c0,1,0,1.83-.09,2.59a2.74,2.74,0,0,1-.48,1.65,2,2,0,0,1-1,.67,4.52,4.52,0,0,1-2.13-.13V9.6a5.22,5.22,0,0,0,.92.31,1.55,1.55,0,0,0,1.36-.4,1.77,1.77,0,0,0,.35-1.06,7.48,7.48,0,0,0,0-2A.14.14,0,0,0,60,6.41H52.47A15.3,15.3,0,0,1,50.88,8.05Zm2-.45a8.81,8.81,0,0,1-1.62,3.29,2.88,2.88,0,0,0-.76-.62,6.52,6.52,0,0,0,1.35-3Zm6.25-2.14.3-.93H53.85l-.62.93Zm-4.7,1.86a27.44,27.44,0,0,1,.26,3.26h-1a20,20,0,0,0-.26-3.2Zm4.14-3.74.3-1h-4l-.48,1ZM56.29,7a21.28,21.28,0,0,1,.79,3l-.95.15c-.08-.5-.36-1.48-.78-2.91Zm1.85-.34a14.19,14.19,0,0,1,1.11,2.2l-.89.34a16,16,0,0,0-1.11-2.14Z"/><path class="cls-1" d="M73.1,3.09c.24,0,.36.11.36.35v7.49h-1v-.49H64.09v.49h-1V3.44a.31.31,0,0,1,.35-.35h2.75V1.42H62.81v-1H73.7v1H70.13V3.09Zm-4,1H67.18v.83a3.33,3.33,0,0,1-.13.91,4,4,0,0,1-2.17,2.49l-.72-.87a4.75,4.75,0,0,0,.9-.47,2.53,2.53,0,0,0,1.11-2.06V4.09H64.23c-.1,0-.15,0-.14.13V9.44h8.35V8H69.61a.43.43,0,0,1-.49-.49Zm0-2.67H67.18V3.09h1.94ZM72.44,7V4.22c0-.09,0-.13-.16-.13H70.13V6.73A.24.24,0,0,0,70.4,7Z"/><path class="cls-1" d="M78.62,3.47H75.43V2.42h3.19V.13h1.07V10.85H78.62V8a32.6,32.6,0,0,1-2.84,1.63l-.61-.86a30.4,30.4,0,0,0,3.45-2Zm6.61-2.13.67.81A23.1,23.1,0,0,1,82.17,5V9.08a.84.84,0,0,0,.09.5.69.69,0,0,0,.57.2h1.5A.83.83,0,0,0,85,9.49a6,6,0,0,0,.17-2l1.06.16A5.79,5.79,0,0,1,86,10.38a1.11,1.11,0,0,1-.5.37,2.89,2.89,0,0,1-.77.07h-2.3a1.33,1.33,0,0,1-.75-.2,1.49,1.49,0,0,1-.53-1.36V0h1.07V3.72A24.59,24.59,0,0,0,85.23,1.34Z"/><path class="cls-1" d="M92,7.82a10.56,10.56,0,0,1-3.45,3L87.74,10a8.54,8.54,0,0,0,4.92-6.72H87.91v-1h4.86l0-.59V.17h1.06V1.65l0,.59h4.89v1H93.93l.11.6a12,12,0,0,0,4.89,6.26l-.93.74L96.51,9.61A11.94,11.94,0,0,1,93.32,5,10.78,10.78,0,0,1,92,7.82Zm1.11,0a21.46,21.46,0,0,1,1.78,2.54l-.88.48a17.45,17.45,0,0,0-1.74-2.47Z"/><path class="cls-1" d="M100.39,7.31v-1h4.93V1.42h-4.5v-1h10v1h-4.48V6.31h4.85v1h-4.85v3.58h-1.06V7.31Zm1.45-5.18a18,18,0,0,1,1.77,3.08l-.92.48a18.57,18.57,0,0,0-1.73-3Zm8.73.43a17.53,17.53,0,0,1-1.78,3.22l-.9-.51a18.87,18.87,0,0,0,1.76-3.15Z"/><path class="cls-1" d="M115.88,6.28a11,11,0,0,1-2.06,4.54l-1-.48a10,10,0,0,0,2-4.28Zm-2.5-3.13a13.54,13.54,0,0,1,2.21,1.27l-.54.86a11.41,11.41,0,0,0-2.18-1.23Zm.28-2.84a12.55,12.55,0,0,1,2.27,1.36l-.55.86a13.43,13.43,0,0,0-2.23-1.35Zm2.5,8.2v-1h3.21V5.83h-2.89v-1h2.89V3.26h-3.16v-1h4.17a14.18,14.18,0,0,0,1.1-2.14l.89.42a12.2,12.2,0,0,1-.84,1.72h2.14v1h-3.29V4.83h3.05v1h-3.05V7.51h3.48v1h-3.48V11h-1V8.51ZM117.8.07A8.89,8.89,0,0,1,119,1.61l-.79.56A9.33,9.33,0,0,0,117,.67Z"/><path class="cls-1" d="M131.23,10H125.5a3.68,3.68,0,0,1,1.84-3.11c1.09-.78,2.51-1.43,2.53-2.71a1.31,1.31,0,0,0-1.41-1.46c-1.08,0-1.4.91-1.44,2.06h-1.37c0-1.82,1-3.18,2.89-3.18a2.47,2.47,0,0,1,2.7,2.53,3.44,3.44,0,0,1-1.87,2.78c-1,.66-2,1.16-2.23,1.89h4.09Z"/><path class="cls-1" d="M138.46,5.91c0,1.87-.49,4.28-2.9,4.28s-2.9-2.41-2.9-4.28.49-4.29,2.9-4.29S138.46,4,138.46,5.91Zm-1.36,0c0-1.72-.34-3.17-1.54-3.17S134,4.19,134,5.91s.33,3.16,1.53,3.16S137.1,7.62,137.1,5.91Z"/><path class="cls-1" d="M145.64,10h-5.73a3.68,3.68,0,0,1,1.84-3.11c1.1-.78,2.51-1.43,2.54-2.71a1.31,1.31,0,0,0-1.42-1.46c-1.08,0-1.4.91-1.44,2.06h-1.37c0-1.82,1-3.18,2.89-3.18a2.47,2.47,0,0,1,2.7,2.53,3.44,3.44,0,0,1-1.87,2.78c-1,.66-2,1.16-2.23,1.89h4.09Z"/><path class="cls-1" d="M149.38,5.2c.91,0,1.85-.28,1.85-1.29a1.19,1.19,0,0,0-1.3-1.17,1.47,1.47,0,0,0-1.39,1.68h-1.37A2.71,2.71,0,0,1,150,1.62a2.38,2.38,0,0,1,2.65,2.2,1.73,1.73,0,0,1-1.19,1.77v0a2,2,0,0,1,1.53,2.06A3,3,0,0,1,147,7.32h1.37A1.53,1.53,0,0,0,150,9.07a1.46,1.46,0,0,0,1.61-1.47c0-1.28-1.12-1.45-2.19-1.4Z"/><path class="cls-1" d="M154.37,8.68v-1H156V4.07a.21.21,0,0,1,.24-.25h3.93V2h-3.5A6.85,6.85,0,0,1,155,4l-.74-.73a7.2,7.2,0,0,0,1.3-1.35A7.87,7.87,0,0,0,156.37,0l1,.25-.22.69h8V2h-3.86V3.82h3.59v1h-3.59V7.68h4.06v1h-4.06v2.26h-1.07V8.68Zm5.81-3.86h-3c-.09,0-.13,0-.12.13V7.68h3.1Z"/><path class="cls-1" d="M167,6.18a3.84,3.84,0,0,0-.22-.89l.86-.1a14.26,14.26,0,0,0,1-1.23,9.28,9.28,0,0,0-1.83-1.16l.39-.82a2,2,0,0,1,.53.27A20.63,20.63,0,0,0,168.82.09l.8.45a16.58,16.58,0,0,1-1.21,2.18l.68.49a7.9,7.9,0,0,0,.74-1.72l.89.25a9.92,9.92,0,0,1-1.93,3.31l1.15-.16-.23-.75.81-.19c.29,1,.5,1.73.62,2.31l-.81.13-.14-.59-.75.09v5h-.92V6Zm1.21.58a27.39,27.39,0,0,1-.39,3.58l-.91-.19a26.63,26.63,0,0,0,.41-3.5Zm2.36,0c.12,1,.19,1.73.21,2.23H170a11.56,11.56,0,0,0-.21-2.17Zm1.59-1.48a14.44,14.44,0,0,1-.95,5.78l-.88-.48.27-.65a13.45,13.45,0,0,0,.64-4.65V.87c0-.15.08-.22.25-.22a31.58,31.58,0,0,0,5.59-.5l.29,1a34.85,34.85,0,0,1-5.16.32s-.05.06-.05.16V2h5.05c.2,0,.29.1.29.27V4.19c0,.2-.09.29-.29.29h-5.05Zm0-2.37v.74h4.32c.06,0,.09,0,.09-.08V3c0-.06,0-.08-.09-.08ZM174.69,8v2.35h-.83V8h-.64v2.84h-.88V5.29c0-.14.06-.21.2-.21h5c.15,0,.22.07.22.21v4.82a1,1,0,0,1-.4.81,2.28,2.28,0,0,1-1.42,0l0-.57h-.51V8ZM173.86,6h-.57a.06.06,0,0,0-.07.07v1.2h.64Zm1.5,0h-.67V7.22h.67Zm.83,1.27h.65V6s0-.07-.09-.07h-.56Zm0,2.91a.72.72,0,0,0,.41,0,.46.46,0,0,0,.24-.39V8h-.65Z"/><path class="cls-1" d="M180.62,7.6l-.86-.26c.17-.56.37-1.33.57-2.28h-.94V4.14h4.17v.92h-2.29L181,6.35h2.16c.17,0,.25.09.24.23a11.6,11.6,0,0,1-.3,2.16c-.3,1.11-.67,1.74-1.08,1.88a1.81,1.81,0,0,1-.8.14,4.6,4.6,0,0,1-1.4-.44l0-1c.78.23,1.22.36,1.36.38a.62.62,0,0,0,.34-.09A1.39,1.39,0,0,0,182,9a5.46,5.46,0,0,0,.37-1.63s0-.07-.12-.07h-1.49Zm2.62-4h-3.47c-.08,0-.13,0-.13-.14V.58a.12.12,0,0,1,.13-.13h3.47c.09,0,.14,0,.14.13V3.42A.12.12,0,0,1,183.24,3.56ZM180.6,1.31s0,0,0,0V2.65l0,0h1.81l0,0V1.34l0,0Zm4.26,3.51V5.89A10.12,10.12,0,0,1,183.72,11l-.95-.48a8.62,8.62,0,0,0,1.11-4.23V2.38c0-.18.08-.25.26-.25h1.76v-2h1V.61h2.93v.91h-2.93v.61h2.88l.78.46a5.72,5.72,0,0,1-.47,2.06l-.91-.21a4.61,4.61,0,0,0,.29-1.27c0-.1,0-.15-.11-.13h-2.4v.88h1.93v.9h-1.93v.51a.45.45,0,0,0,.16.36.65.65,0,0,0,.36.16h1.48a.56.56,0,0,0,.28-.11,4,4,0,0,0,.24-.87l.89.31A3.78,3.78,0,0,1,190,6.39a1,1,0,0,1-.66.36h-2.4a1,1,0,0,1-.65-.31.85.85,0,0,1-.27-.61v-1Zm1.82,2.33v1a3.25,3.25,0,0,1-.11.78A3,3,0,0,1,184.94,11l-.71-.75a2.46,2.46,0,0,0,.67-.39,2.09,2.09,0,0,0,.81-1.69v-1ZM186,3h-1a.14.14,0,0,0-.15.15v.73H186Zm2.49,4.15V9.36a.51.51,0,0,0,.16.38.67.67,0,0,0,.37.15h.18a.5.5,0,0,0,.28-.1,7.64,7.64,0,0,0,.14-1.14l.91.18a5.47,5.47,0,0,1-.26,1.61,1,1,0,0,1-.67.36h-1.13a1,1,0,0,1-.66-.32.91.91,0,0,1-.29-.62V7.19Z"/><path class="cls-1" d="M193.76,1.56a6.77,6.77,0,0,1-1.14,1.53l-.82-.54A6.51,6.51,0,0,0,193.38.06l.91.32-.12.28h3v.9H195.5a6.07,6.07,0,0,1,.27,1l-.9.14-.3-1.18Zm-.41,6.18,0,.31-1-.17.28-2.67a.25.25,0,0,1,.26-.26H197V4h-4.16V3h9.11a.39.39,0,0,1,.23.1.33.33,0,0,1,.11.22V6.08h-1V5.91H198v.88h4.41a.25.25,0,0,1,.27.28,11.39,11.39,0,0,1-.16,2.46,1,1,0,0,1-.44.69,1.68,1.68,0,0,1-.93.27,8.42,8.42,0,0,1-1.8-.18l0-1a4.8,4.8,0,0,0,2,.22.35.35,0,0,0,.21-.27,5.89,5.89,0,0,0,.09-1.41s-.06-.07-.17-.07H198V11h-1V8.34a13.23,13.23,0,0,1-4.62,2.27l-.47-.92a12.66,12.66,0,0,0,4.38-1.95ZM197,5.91h-3.3c-.08,0-.13,0-.15,0l-.09.83H197Zm1.58-4.35a4.69,4.69,0,0,1-.92,1.29l-.85-.51A5.66,5.66,0,0,0,198.19,0l.92.3L199,.66h3.81v.9h-2.26a3.63,3.63,0,0,1,.37.93l-.89.25-.47-1.18ZM198,5h3.25V4.11c0-.09,0-.13-.16-.13H198Z"/><path class="cls-1" d="M210.24,10H204.5a3.69,3.69,0,0,1,1.85-3.11c1.09-.78,2.51-1.43,2.53-2.71a1.31,1.31,0,0,0-1.41-1.46c-1.08,0-1.41.91-1.44,2.06h-1.37c0-1.82,1-3.18,2.89-3.18a2.47,2.47,0,0,1,2.7,2.53,3.44,3.44,0,0,1-1.87,2.78c-1,.66-2,1.16-2.23,1.89h4.09Z"/><path class="cls-1" d="M212.93,7.6l-.87-.26c.17-.56.38-1.33.58-2.28h-.95V4.14h4.18v.92h-2.29l-.3,1.29h2.15c.17,0,.26.09.24.23a10.82,10.82,0,0,1-.3,2.16c-.3,1.11-.67,1.74-1.08,1.88a1.79,1.79,0,0,1-.8.14,4.57,4.57,0,0,1-1.39-.44l0-1c.78.23,1.22.36,1.35.38a.63.63,0,0,0,.35-.09c.12-.06.26-.27.43-.66a5.17,5.17,0,0,0,.37-1.63s0-.07-.12-.07H213Zm2.61-4h-3.46a.12.12,0,0,1-.14-.14V.58c0-.09.05-.13.14-.13h3.46c.1,0,.15,0,.15.13V3.42C215.69,3.52,215.64,3.56,215.54,3.56ZM212.9,1.31s0,0,0,0V2.65l0,0h1.81l0,0V1.34l0,0Zm4.26,3.51V5.89A10,10,0,0,1,216,11l-1-.48a8.52,8.52,0,0,0,1.12-4.23V2.38c0-.18.07-.25.25-.25h1.76v-2h1V.61h2.92v.91h-2.92v.61h2.87l.78.46a5.71,5.71,0,0,1-.46,2.06l-.91-.21a4.92,4.92,0,0,0,.28-1.27c0-.1,0-.15-.11-.13h-2.39v.88h1.93v.9h-1.93v.51a.44.44,0,0,0,.15.36.65.65,0,0,0,.36.16h1.49a.53.53,0,0,0,.27-.11,3.43,3.43,0,0,0,.24-.87l.89.31a3.28,3.28,0,0,1-.35,1.21,1,1,0,0,1-.66.36h-2.39a1,1,0,0,1-.65-.31.87.87,0,0,1-.28-.61v-1ZM219,7.15v1a3.21,3.21,0,0,1-.1.78A3,3,0,0,1,217.25,11l-.71-.75a2.46,2.46,0,0,0,.67-.39,2.09,2.09,0,0,0,.8-1.69v-1ZM218.31,3h-1a.14.14,0,0,0-.16.15v.73h1.15Zm2.5,4.15V9.36a.54.54,0,0,0,.15.38.67.67,0,0,0,.37.15h.18a.48.48,0,0,0,.28-.1,7.64,7.64,0,0,0,.14-1.14l.92.18a5.28,5.28,0,0,1-.27,1.61,1,1,0,0,1-.67.36h-1.13a1.05,1.05,0,0,1-.66-.32.9.9,0,0,1-.28-.62V7.19Z"/><path class="cls-1" d="M234.34,8.44h-2.85l.15.21a3,3,0,0,0,1,.91,2.16,2.16,0,0,0,1.07.4.38.38,0,0,0,.35-.14,3,3,0,0,0,.23-1.29l1,.3a4.36,4.36,0,0,1-.51,1.89.87.87,0,0,1-.72.33,3.56,3.56,0,0,1-1.66-.49,4.18,4.18,0,0,1-1.47-1.23A7.41,7.41,0,0,1,230,7.11a27.82,27.82,0,0,1-.38-5.65c0-.13-.06-.19-.15-.18H225.8a.12.12,0,0,0-.12.13V4.49c0,1.71,0,3.05-.13,4A17.37,17.37,0,0,1,225.1,11l-1-.27a25.63,25.63,0,0,0,.5-2.55,29.55,29.55,0,0,0,.12-3V.61A.2.2,0,0,1,225,.38h5.26c.2,0,.29.11.3.35V2.86l.57-.06a20.48,20.48,0,0,0,1-2.74l.88.27a19.76,19.76,0,0,1-.78,2.33l1.66-.2-.49-1.12.88-.29a21.41,21.41,0,0,1,1.05,2.74l-.87.25-.26-.77-3.34.46L230.56,3a14.08,14.08,0,0,0,.75,5.13V4.39a.12.12,0,0,1,.13-.13h2.9c.1,0,.15,0,.15.13v3.9A.13.13,0,0,1,234.34,8.44Zm-8.49,2-.18-1,1.66-.19V8h-1.14c-.09,0-.12,0-.12-.13V3.58c0-.09,0-.12.12-.12h1.14V2.79l-1.19,0-.07-.9a17.22,17.22,0,0,0,3.07-.32l.13.91-1.1.2v.74h1.12c.09,0,.14,0,.14.12V7.87a.12.12,0,0,1-.14.13h-1.12V9.25l.88-.11-.31-.6.84-.35a17.7,17.7,0,0,1,1.09,2.36l-.86.31-.34-.82Zm1.48-6.21h-.4l0,0V7.13l0,0h.4Zm.84,2.91h.38s0,0,0,0V4.31l0,0h-.38Zm4.1-2.06s0,0,0,0V7.53l0,0h1.25l0,0V5.15l0,0Z"/><path class="cls-1" d="M238.42,1.46V6.24a10.59,10.59,0,0,1-.83,4.63l-.89-.55a10.19,10.19,0,0,0,.74-4.44V.55c0-.16.09-.24.26-.24h8.2c.19,0,.29.09.29.3A39.66,39.66,0,0,0,246.65,9c.06.2.12.31.17.32s.11-.07.12-.2l0-.94,1,0a5.43,5.43,0,0,1-.41,2.26.8.8,0,0,1-.6.42c-.3,0-.56-.23-.78-.72a8.56,8.56,0,0,1-.64-2.77c-.14-1.41-.17-3.39-.16-5.94,0-.13-.06-.2-.18-.2h-6.5A.18.18,0,0,0,238.42,1.46Zm0,9.36-.18-1,3.09-.34V7.83h-2.2a.12.12,0,0,1-.14-.14V4.08a.13.13,0,0,1,.14-.14h2.2V3l-2.4.06-.12-1a32.28,32.28,0,0,0,5.81-.41l.14.94a19,19,0,0,1-2.3.29l-.16,0v1h2.21a.13.13,0,0,1,.14.14V7.69a.12.12,0,0,1-.14.14H242.3V9.4l1.75-.19-.45-.76.9-.44a20.91,20.91,0,0,1,1.38,2.57L245,11l-.38-.81Zm2.91-5.93H240l0,0v1.9l0,0h1.33Zm1,2h1.33s.05,0,.05,0V4.93l-.05,0H242.3Z"/><path class="cls-1" d="M255.82,4.73V6.4c0,.56-.4,1.12-1.21,1.67l-.76-.36c.76-.47,1.15-.91,1.15-1.31h-1V4.73Z"/><path class="cls-1" d="M263,6.61l-1-.05V3.18a.23.23,0,0,1,.07-.17l.17-.06h2.14V1.48c0-.1,0-.15-.15-.15H262v-1h3.23a.15.15,0,0,1,.16.16V4.07h-1V4h-1.21l-.1,0-.05.1V5.35h2.12a.23.23,0,0,1,.24.27c0,2.27-.05,3.59-.1,4a1.25,1.25,0,0,1-.54.92,2,2,0,0,1-.87.29,5.7,5.7,0,0,1-1.8-.31l0-1.09a3.56,3.56,0,0,0,2,.26.5.5,0,0,0,.26-.33,22.42,22.42,0,0,0,.09-2.79.1.1,0,0,0-.14-.1H263Zm2.83,4.26-.18-1,3-.32V7.86h-2.66a.12.12,0,0,1-.13-.14V4.27a.12.12,0,0,1,.13-.13h2.66v-1L266,3.31l-.24-1L267,2.26a15.86,15.86,0,0,0,1-2.2l.91.35a15.61,15.61,0,0,1-.76,1.78l3-.17-.78-1.1.8-.5a20.6,20.6,0,0,1,1.79,2.7l-.84.46-.38-.66-2,.14V4.14h2.56a.12.12,0,0,1,.13.13V7.72a.12.12,0,0,1-.13.14h-2.56v1.6l1.47-.15-.44-.86.94-.39a27.64,27.64,0,0,1,1.15,2.6l-1,.32-.26-.72Zm2.85-5.81h-1.78s-.05,0,0,0V6.91l0,0h1.78Zm1,1.89h1.67l.05,0V5.08l-.05,0h-1.67Z"/><path class="cls-1" d="M276.19,3.74V6.55a8,8,0,0,1-1,4.12l-.91-.39A7.79,7.79,0,0,0,275,8.35a10.89,10.89,0,0,0,.19-2.09V1.08a.24.24,0,0,1,.26-.27h4.07V0h1V.81H285v1h-1.75v1H285v1h-1.73V5.11a.43.43,0,0,1-.48.47H278a.41.41,0,0,1-.46-.47V3.74Zm0,7.27-.34-1a19.66,19.66,0,0,0,3.2-.61l.27-.08a20.56,20.56,0,0,1-2.12-1.19l.36-1a14.33,14.33,0,0,0,3,1.66,8.26,8.26,0,0,0,2.29-1.66c.06-.07,0-.11-.11-.1H276.9v-1h6.73l.7.58a7.18,7.18,0,0,1-2.65,2.56,22.57,22.57,0,0,0,3.67.67l-.46,1a23.05,23.05,0,0,1-4.38-1.11A19.23,19.23,0,0,1,276.18,11Zm1.31-9.25h-1.17a.12.12,0,0,0-.13.13v.9h1.3Zm4.78,0h-3.76v1h3.76Zm0,2h-3.76v.73c0,.11.06.15.16.15h3.43c.11,0,.17,0,.17-.15Z"/><path class="cls-1" d="M1,25.24H.08v-.91H11.14v.91H5.46V31h-1v-.81l-4.12.44L.19,29.7,1,29.62Zm8.65-1.38h-8a.22.22,0,0,1-.24-.24v-3a.21.21,0,0,1,.24-.23h8a.21.21,0,0,1,.24.23v3A.22.22,0,0,1,9.62,23.86ZM4.49,26.07v-.83H1.94v.83Zm0,1.62V26.9H1.94v.79Zm0,1.54v-.72H1.94v1Zm4.4-7.52v-.42s0-.05-.05-.05H2.35s-.05,0,0,.05v.42Zm-6.58.82V23s0,.05,0,.06H8.84L8.89,23v-.46ZM6.44,31l-.65-.77a6.52,6.52,0,0,0,1.77-.82l.14-.1a13.06,13.06,0,0,1-1.4-1.66L7,27.13a10.7,10.7,0,0,0,1.34,1.63,4.87,4.87,0,0,0,1.13-1.69c.06-.18,0-.28-.21-.27H6.19V26H10l.5.39a7.13,7.13,0,0,1-1,2.31l-.5.58a9.3,9.3,0,0,0,2.07,1l-.6.79a10.88,10.88,0,0,1-2.11-1.2A6.78,6.78,0,0,1,6.44,31Z"/><path class="cls-1" d="M13.77,26.62l-1-.05V23.18a.21.21,0,0,1,.08-.16L13,23h2.14V21.49c0-.11-.05-.16-.15-.16H12.77v-1H16a.15.15,0,0,1,.17.17v3.57h-1V24H13.93l-.11,0-.05.11v1.26H15.9a.22.22,0,0,1,.24.27c0,2.27-.05,3.59-.1,4a1.32,1.32,0,0,1-.54.92,1.93,1.93,0,0,1-.87.29,5.58,5.58,0,0,1-1.8-.3l0-1.1a3.47,3.47,0,0,0,2.05.26.42.42,0,0,0,.25-.33,21.15,21.15,0,0,0,.1-2.79c0-.08-.06-.11-.14-.1H13.77Zm2.84,4.25-.18-1,3-.32V27.86H16.8c-.09,0-.13,0-.13-.14V24.27c0-.08,0-.12.13-.12h2.66v-1l-2.75.19-.24-1,1.26-.07a14.75,14.75,0,0,0,1-2.2l.92.36a14.84,14.84,0,0,1-.76,1.77l3-.16-.78-1.11.8-.49a21.69,21.69,0,0,1,1.79,2.69l-.84.46-.38-.66-2,.14v1.09H23c.09,0,.14,0,.14.12v3.45a.12.12,0,0,1-.14.14H20.48v1.6l1.46-.15-.43-.86.94-.39a27.64,27.64,0,0,1,1.15,2.6l-1,.32-.27-.72Zm2.85-5.81H17.67s-.05,0,0,0v1.82l0,.05h1.79Zm1,1.9h1.67l0-.05V25.09l0,0H20.48Z"/><path class="cls-1" d="M26.29,30.49h-1V20.84a.29.29,0,0,1,.32-.32h2.66a.29.29,0,0,1,.33.32v8.47a.31.31,0,0,1-.35.34H26.29Zm.17-9c-.11,0-.17.06-.17.15V24.6h1.27V21.67c0-.09,0-.15-.17-.15Zm1.1,4.08H26.29v3h1.07a.18.18,0,0,0,.2-.2Zm1.49,1v-1h4.7V24.44h-4.7v-1h3V22.13H29.37v-.95H32V20.09h1v1.09h2.67v.95H33v1.36h3v1H34.77v1.13H35.9v1H34.77v3.22a1.15,1.15,0,0,1-.54,1,3.45,3.45,0,0,1-2.55-.07l0-1,.93.26.62.07a.5.5,0,0,0,.39-.16.43.43,0,0,0,.11-.34V26.57Zm1.53.36A10.15,10.15,0,0,1,31.78,29l-.92.46a10.75,10.75,0,0,0-1.16-2.06Z"/><path class="cls-1" d="M39.05,26.34c0-.09,0-.14-.12-.14H37.78v-1h2a.23.23,0,0,1,.26.26v2.83a1.71,1.71,0,0,0,.4.71c.42.63,1.36.91,2.76.86h.7V28.64h-3v-.91h3V27H41.37v-.87h2.56V25.4H41v-.86h1.53l-.49-1.23H40.67V22.4H44v-.78H41.13V20.7H44V20h1v.66H47.8v.92H44.92v.78h3.4v.91H46.66l-.36,1.23H48v.86H45v.75h2.71V27H45v.71h3.32v.91H45v1.19l3.5-.16-.25,1.12-5.58,0a3.36,3.36,0,0,1-2.94-1.4,2.69,2.69,0,0,1-.7.85,3.74,3.74,0,0,1-1.11.68L37.38,30a3.17,3.17,0,0,0,1.33-.79,2.13,2.13,0,0,0,.34-.8Zm-.89-3.82a10.1,10.1,0,0,1,2,1.12l-.54.87a11.65,11.65,0,0,0-1.94-1.11Zm.29-2.21a10.75,10.75,0,0,1,1.95,1.14l-.56.85a12.32,12.32,0,0,0-1.9-1.11Zm6.86,4.23.38-1.23H43.11l.46,1.23Z"/><path class="cls-1" d="M52.79,27.31H50.33v-1h2.46V24.79L50.2,25l-.27-1,.86,0a21.63,21.63,0,0,0,1.32-2.48h-2v-1h6.47v1H53.23c-.29.66-.7,1.46-1.2,2.39l3.23-.19-.66-1.28.92-.39A30.84,30.84,0,0,1,57,25.15l-1,.32-.35-.88-1.86.13v1.59h2.43v1H53.81v2.05c1.17-.18,2.06-.34,2.67-.5l.22,1a21.44,21.44,0,0,1-2.61.49c-1.62.21-3,.37-4,.43l-.18-1,2.87-.27Zm5.66-6.49v7.5h-1v-7.5Zm2.19-.69v9.62a1.15,1.15,0,0,1-.54,1,3.14,3.14,0,0,1-2.28-.13l0-1,.79.25c.42.09.72.09.85,0a.4.4,0,0,0,.11-.33V20.13Z"/><path class="cls-1" d="M63.65,26.62l-1-.05V23.18A.2.2,0,0,1,62.7,23l.17-.06H65V21.49c0-.11,0-.16-.15-.16H62.64v-1h3.23a.15.15,0,0,1,.16.17v3.57H65V24H63.8l-.1,0-.05.11v1.26h2.12a.22.22,0,0,1,.24.27c0,2.27-.05,3.59-.1,4a1.25,1.25,0,0,1-.54.92,1.93,1.93,0,0,1-.87.29,5.62,5.62,0,0,1-1.8-.3l0-1.1a3.47,3.47,0,0,0,2,.26.46.46,0,0,0,.26-.33,22.29,22.29,0,0,0,.09-2.79c0-.08-.06-.11-.14-.1H63.65Zm2.83,4.25-.18-1,3-.32V27.86H66.67c-.09,0-.13,0-.13-.14V24.27c0-.08,0-.12.13-.12h2.66v-1l-2.75.19-.23-1,1.25-.07a15.87,15.87,0,0,0,1-2.2l.91.36a14.84,14.84,0,0,1-.76,1.77l3-.16L71,20.92l.8-.49a20.6,20.6,0,0,1,1.79,2.69l-.84.46-.38-.66-2,.14v1.09h2.56c.08,0,.13,0,.13.12v3.45c0,.1-.05.14-.13.14H70.35v1.6l1.46-.15-.43-.86.94-.39a27.64,27.64,0,0,1,1.15,2.6l-1,.32-.26-.72Zm2.85-5.81H67.54s0,0,0,0v1.82l0,.05h1.79Zm1,1.9H72l0-.05V25.09l0,0H70.35Z"/><path class="cls-1" d="M75.39,24.8,74.78,24A3.24,3.24,0,0,0,77,21.45H75.26V20.5h6.19v.95H78l-.23.84h2.69l.72.48a5.91,5.91,0,0,1-.59,1.65c-.88,1.57-2.61,2.73-5.17,3.45l-.46-1a12,12,0,0,0,3-1.08A16.68,16.68,0,0,0,76,24.47Zm2.09,3.25a7.4,7.4,0,0,1-1.77,2.84l-.88-.58a6.88,6.88,0,0,0,1.69-2.6Zm1.25-2.79a3.36,3.36,0,0,0,1.21-1.83c0-.13,0-.19-.2-.19H77.25l-.45.61.81.58Zm1,2.78a17.47,17.47,0,0,1-.67,2.85l-1-.32a15.43,15.43,0,0,0,.65-2.77Zm2.37-.17a26.43,26.43,0,0,1,.57,2.92l-1,.1A16.86,16.86,0,0,0,81.15,28Zm.94-7.1v4.52h-1V20.77Zm2.53-.55v5.89a1.1,1.1,0,0,1-.53,1c-.45.31-1.38.28-2.77-.07V26l1.05.27.68.08a.62.62,0,0,0,.45-.19.41.41,0,0,0,.11-.33V20.22Zm-1.27,7.4a14.23,14.23,0,0,1,1.53,2.82l-.94.45a15.59,15.59,0,0,0-1.48-2.78Z"/><path class="cls-1" d="M97.48,28.44H94.63l.15.21a3.06,3.06,0,0,0,1,.92,2.16,2.16,0,0,0,1.07.4.47.47,0,0,0,.35-.14,3.11,3.11,0,0,0,.23-1.3l1,.31a4.3,4.3,0,0,1-.51,1.88.84.84,0,0,1-.72.33,3.5,3.5,0,0,1-1.66-.48,4.31,4.31,0,0,1-1.47-1.24,7.19,7.19,0,0,1-1-2.22,27.68,27.68,0,0,1-.38-5.65c0-.13-.06-.19-.15-.17H88.94a.11.11,0,0,0-.12.13V24.5c0,1.7,0,3-.13,4A17.51,17.51,0,0,1,88.24,31l-1-.27c.19-.78.37-1.64.5-2.56a29.46,29.46,0,0,0,.12-3V20.62c0-.16.07-.24.23-.24h5.26c.19,0,.29.12.3.35v2.13l.57-.06a20,20,0,0,0,1-2.74l.88.27a19.17,19.17,0,0,1-.78,2.33l1.66-.2-.49-1.12.88-.29a22.62,22.62,0,0,1,1,2.74l-.87.25-.26-.77L94,23.73,93.7,23a14.08,14.08,0,0,0,.75,5.13v-3.7a.12.12,0,0,1,.13-.13h2.9c.1,0,.15,0,.15.13V28.3C97.63,28.39,97.58,28.44,97.48,28.44Zm-8.49,2-.18-1,1.66-.19V28H89.33c-.09,0-.12,0-.12-.13V23.58c0-.08,0-.12.12-.12h1.14v-.67l-1.19.05-.07-.91a17.36,17.36,0,0,0,3.07-.31l.13.9-1.1.2v.74h1.12c.09,0,.14,0,.14.12v4.29c0,.09,0,.13-.14.13H91.31v1.25l.88-.11-.31-.6.84-.35a18.35,18.35,0,0,1,1.09,2.37l-.86.3L92.61,30Zm1.48-6.22h-.4l0,0v2.82l0,.05h.4Zm.84,2.91h.38s0,0,0-.05V24.31l0,0h-.38Zm4.1-2.06s0,0,0,0v2.37l0,0h1.25l0,0V25.16l0,0Z"/><path class="cls-1" d="M101.5,21.46v4.78a10.59,10.59,0,0,1-.83,4.63l-.89-.55a10.11,10.11,0,0,0,.74-4.43V20.56c0-.17.09-.25.26-.25H109c.19,0,.29.09.29.31a39.6,39.6,0,0,0,.46,8.38c.06.2.12.31.17.32s.11-.07.12-.2l0-.94,1,0a5.37,5.37,0,0,1-.41,2.25.82.82,0,0,1-.6.43c-.3,0-.56-.24-.78-.73a8.43,8.43,0,0,1-.64-2.77c-.14-1.41-.17-3.38-.16-5.94,0-.13-.06-.2-.18-.2h-6.5A.18.18,0,0,0,101.5,21.46Zm0,9.37-.18-1,3.09-.34V27.84h-2.2a.13.13,0,0,1-.14-.14V24.09a.12.12,0,0,1,.14-.14h2.2V23l-2.4.06-.12-.95a32.28,32.28,0,0,0,5.81-.41l.14.94a19.51,19.51,0,0,1-2.3.28l-.16,0v1h2.21a.12.12,0,0,1,.14.14V27.7a.13.13,0,0,1-.14.14h-2.21V29.4l1.75-.18-.45-.77.9-.43A21.61,21.61,0,0,1,109,30.58L108,31l-.38-.81Zm2.91-5.93h-1.33l0,0v1.91l0,.05h1.33Zm1,2h1.33s.05,0,.05-.05V24.93l-.05,0h-1.33Z"/><path class="cls-1" d="M114,21.65A6,6,0,0,1,112.79,23a4.13,4.13,0,0,0-.6-.77A5.38,5.38,0,0,0,113.88,20l.9.49-.13.22h2.75v.9h-1.69a5,5,0,0,1,.22,1.07l-1,.12a6.69,6.69,0,0,0-.24-1.19ZM112.76,28v-.91H120V26h-7.48v-.92h4.77v-.88h-3.88v-.91h3.88v-.57h.5a2.55,2.55,0,0,0-.52-.49,5.61,5.61,0,0,0,1.35-2.19l.93.39-.18.38h3.8v.91h-2.08l.06.17.23.92-.95.16a7.73,7.73,0,0,0-.34-1.25h-1.2l-.07.15a10.12,10.12,0,0,1-.68.85h.16v.57h4v.91h-4v.88h4.83V26H121v1h2V28h-2V29.7a1.13,1.13,0,0,1-.54,1c-.49.31-1.41.29-2.78,0v-1c1.19.31,2,.34,2.2.12a.44.44,0,0,0,.11-.33V28Zm2.63.23a12.64,12.64,0,0,1,1.31,1.48l-.83.58a10.56,10.56,0,0,0-1.26-1.43Z"/><path class="cls-1" d="M124.94,26.06a4.73,4.73,0,0,0-.24-.93l.84-.1.94-1.1a8.64,8.64,0,0,0-1.82-1.28l.44-.85a3.2,3.2,0,0,1,.53.31c.37-.61.73-1.29,1.09-2l.84.49a21.83,21.83,0,0,1-1.21,2.07l.66.52a7.89,7.89,0,0,0,.81-1.73l.94.29a9.77,9.77,0,0,1-2,3.14l1.43-.21-.31-.73.88-.29a21.16,21.16,0,0,1,.82,2.3l-.89.21-.16-.55-1.11.15V31h-1V25.87Zm1.14.77a26.4,26.4,0,0,1-.46,3.47l-.89-.19a23,23,0,0,0,.44-3.42Zm4.66.14a12.94,12.94,0,0,1-1.45,3.85l-1-.26c.24-.47.49-1,.72-1.51l-.82.07-.25-2.47.91-.14.23,2.35a16.75,16.75,0,0,0,1.15-6.1V21.43h-1.1v-1h5.36a.41.41,0,0,1,.33.15.34.34,0,0,1,.11.35l-.55,2.53h.73l.65.41a9.17,9.17,0,0,1-2,4.79,10.63,10.63,0,0,0,2,1.68L135,31a14.34,14.34,0,0,1-1.83-1.66,9.75,9.75,0,0,1-2.49,1.69l-.78-.79a10.73,10.73,0,0,0,2.21-1.34l.43-.39a9.69,9.69,0,0,1-1.4-4C131,25.7,130.82,26.51,130.74,27Zm2.59-3.51.45-2h-2.54v1.33l-.05.7Zm-.17,4.34a8.58,8.58,0,0,0,1.44-3.34h-2.52a8.59,8.59,0,0,0,.43,1.93A7,7,0,0,0,133.16,27.8Z"/><path class="cls-1" d="M143.78,24.73V26.4c0,.57-.41,1.12-1.21,1.67l-.77-.36c.77-.47,1.15-.91,1.15-1.31h-1V24.73Z"/><path class="cls-1" d="M150.56,30.71l-.94-.51a15,15,0,0,0,.92-5.1V20.92c0-.23.06-.34.23-.35a25.23,25.23,0,0,0,3.92-.42l.37,1a32.15,32.15,0,0,1-3.39.38c-.12,0-.17.06-.16.17v1h3.07a.29.29,0,0,1,.33.32v3.5c0,.21-.11.31-.33.31h-3.15A16.89,16.89,0,0,1,150.56,30.71Zm.95-7V25.1l0,.7h2.29c.07,0,.11,0,.11-.1V23.77a.1.1,0,0,0-.11-.1Zm5.18.65v1.57a5.6,5.6,0,0,1-.51,2.41,9.78,9.78,0,0,1-2,2.55l-.78-.81a7,7,0,0,0,1.92-2.29,4.76,4.76,0,0,0,.39-1.86v-5c0-.23.07-.35.27-.36a29,29,0,0,0,4.37-.37l.36,1a34.65,34.65,0,0,1-3.82.35c-.11,0-.17.06-.16.16v1.65h4v1H159.5V31h-1V24.32Z"/><path class="cls-1" d="M162.4,29.05v-1h4.81V26.62H163.1v-1h2.1c-.11-.37-.31-.91-.57-1.57H162.3v-1h4.91V21.84H163.1v-1h4.11v-.75h1v.75h4.13v1h-4.13v1.21h4.88v1h-2.37l-.29.86-.25.71h2.11v1h-4.08v1.43H173v1h-4.79V31h-1V29.05Zm6.7-3.43.43-1.13.15-.44h-4a16.18,16.18,0,0,1,.56,1.57Z"/><path class="cls-1" d="M175.42,27.1l-.86-.72A12.26,12.26,0,0,0,178,22.2l0,0h-3.25v-1h3.64l.37-1.07,1,.34-.26.73h5.88v1h-6.29l-.2.44a13.86,13.86,0,0,1-1.72,2.6v5.7h-1V26.33Zm5.73-1h-2.92v-1h2.92V23.16h1v1.91h3v1h-3v3.56h3.36v1H178v-1h3.14Z"/><path class="cls-1" d="M189.39,28.92a6.55,6.55,0,0,1-1.87,1.75,3,3,0,0,0-.49-.81,4.53,4.53,0,0,0,1.54-1.54Zm.71-5.2h-2.25a.11.11,0,0,1-.12-.12V20.45c0-.08,0-.12.12-.12h5.45c.09,0,.14,0,.14.12V23.6c0,.07-.05.12-.14.12h-2.23v.57h3v.9h-6.91v-.9h3ZM187.8,28c-.09,0-.12-.05-.12-.13V25.8c0-.08,0-.11.12-.11h5.55c.09,0,.13,0,.13.11v2.1a.12.12,0,0,1-.13.13h-2.19v1.88a1.06,1.06,0,0,1-.52,1,2.73,2.73,0,0,1-1.73,0v-1c.64.18,1,.23,1.18.12a.43.43,0,0,0,.1-.32V28Zm.84-1.57s0,0,0,0v.7l0,.05h3.87l.05-.05v-.7l-.05,0Zm3.87-4.8v-.48l0,0h-3.77s-.05,0,0,0v.48Zm-3.86.73v.47l0,.05h3.77l0-.05v-.47Zm3.95,5.95a10,10,0,0,1,.93,1.56l-.83.44a7.51,7.51,0,0,0-.91-1.5Zm5.67-1.09a9.19,9.19,0,0,1-1,1.52,7.93,7.93,0,0,1-3.4,2.23l-.59-.83A10,10,0,0,0,195.71,29a8.41,8.41,0,0,0,1.66-2.17Zm-.06-3.38A9.63,9.63,0,0,1,194.46,27l-.57-.87a7.92,7.92,0,0,0,3.49-2.83Zm-.37-3.21a8.15,8.15,0,0,1-3.25,2.6l-.54-.87a6.51,6.51,0,0,0,3-2.32Z"/><path class="cls-1" d="M199.62,24.43a2.94,2.94,0,0,0-.17-.81l.57,0,.73-.74a5.48,5.48,0,0,0-1.26-.87l.38-.73.3.19A13.4,13.4,0,0,0,201,20l.68.46a12.46,12.46,0,0,1-.93,1.36l.45.34a5.37,5.37,0,0,0,.55-1l.77.34a6.87,6.87,0,0,1-1.43,1.91l.6,0,.31-.62.72.31-.23.51a5,5,0,0,1-2.39,2.18l-.53-.64a7.53,7.53,0,0,0,1.4-.84Zm2.89,2h-1.87v-.73h3.9v-.44h-1.38c-.24,0-.37-.13-.36-.36V23.27h.79v.3a26.23,26.23,0,0,0,2.7-.21l.09.67a21,21,0,0,1-2.79.21v.07c0,.14.06.22.22.23h2.66s.06-.05.08-.18l.09-.73.68.24a2.29,2.29,0,0,1-.31,1.22.87.87,0,0,1-.45.13h-1.05v.44h4.14v.73h-2l-.32.57h3.16v.81H199.66V27h3.16ZM201.78,31h-.92V28.42a.24.24,0,0,1,.26-.27h7.93a.24.24,0,0,1,.27.27V31h-.92v-.32h-6.62Zm6.62-1.84V28.9c0-.08-.05-.12-.13-.12H201.9q-.14,0-.12.12v.23Zm-6.62.59V30h6.62v-.3ZM207,23.11h-4.15c-.06,0-.09,0-.09-.11V20.86a.08.08,0,0,1,.09-.09h1.34a5.08,5.08,0,0,0,.33-.7l.76.33-.15.37H207c.08,0,.1,0,.1.09V23C207.14,23.07,207.12,23.11,207,23.11Zm-.7,3.85.38-.57h-3.23l.28.57Zm0-5.27v-.3l0,0h-2.71l0,0v.3Zm-2.77.49v.29l0,.05h2.71l0-.05v-.29Zm4.87-1a.11.11,0,0,0-.12.12v4.06h-.83V20.52a.12.12,0,0,1,.13-.14h2.2l.54.46-.53,1.36a.48.48,0,0,0,0,.3,2.76,2.76,0,0,1,.47.67,1.64,1.64,0,0,1,0,1.27.9.9,0,0,1-.38.41,1.85,1.85,0,0,1-1.35,0V24a1.25,1.25,0,0,0,.87.17c.44-.18.38-.61-.19-1.25a1,1,0,0,1-.31-.65l.41-1.06Z"/><path class="cls-1" d="M217.11,29.43h-3.76V28.7h3.76v-.36l-4,.17-.17-.82,2.29-.07.73-.72h-2.17v-.73h7.7v.73h-1A12.83,12.83,0,0,1,222,28.18l-.53.52h.2v.73h-3.64v.44h4.82v.86H212.22v-.86h4.89Zm-4.82-4.25c0-.09.06-.15.17-.15h9.89l.76.36a7.66,7.66,0,0,1-.42,2.07l-.88-.29a7.48,7.48,0,0,0,.32-1.2c0-.08,0-.13-.11-.13H213.3c-.06,0-.09,0-.09.08v1.37h-.92Zm4.8-3.8h-4.4v-.81h4.4V20h1v.53h4.38v.81h-4.38v.38h3.77v.73H213.3v-.73h3.79Zm4.5,3.24h-8c-.08,0-.11,0-.11-.11V23c0-.08,0-.11.11-.11h8c.07,0,.1,0,.1.11v1.56C221.69,24.59,221.66,24.62,221.59,24.62Zm-7.18-1.1,0,0v.34l0,.05h6.33l0-.05v-.34l0,0Zm5.07,3.38H217l-.61.68,3.38-.09-.51-.39Zm-1.43,1.8h3.25l-.58-.51-2.67.12Z"/><path class="cls-1" d="M225,23.16a8.49,8.49,0,0,1,1.41,1.14l-.61.69a9.34,9.34,0,0,0-1.38-1.1Zm1.53,3.2a9.9,9.9,0,0,1-1.15,4.28l-1-.28a9,9,0,0,0,1.19-4.05Zm-1.48-6a9.71,9.71,0,0,1,1.5,1.23l-.62.68a8.74,8.74,0,0,0-1.47-1.18Zm2.38,4.28-.3,1.43-.69-.21a13,13,0,0,0,.29-1.37Zm-.78-.46a3.67,3.67,0,0,0-.19-.74l.59-.08.55-.64a5.2,5.2,0,0,0-1.14-.81l.37-.68.27.15.66-1.34.69.36a14.36,14.36,0,0,1-.76,1.4l.36.3a7.57,7.57,0,0,0,.49-1.06l.74.25a6.34,6.34,0,0,1-1.2,1.9l.72-.1-.14-.4.67-.19a6.79,6.79,0,0,1,.42,1.53l-.68.15-.07-.33-.52.08v2h-.79V24.05Zm1,5.62-.81-.26.29-1.87a.27.27,0,0,1,.3-.23H234v-.39c0-.05,0-.08-.11-.08h-6.75v-.78h7.47a.18.18,0,0,1,.21.2v2.13H234V28.2h-5.87c-.11,0-.17.09-.18.23l0,.2H235c.18,0,.27.08.26.26a4,4,0,0,1-.32,1.51l-.2.19c-.63.53-2.65.59-6,.2l0-.83a31.11,31.11,0,0,0,4.15.27,2.35,2.35,0,0,0,1.49-.33,2,2,0,0,0,.06-.5h-6.57Zm1.78-5.28.23,1.25-.72.06a7.48,7.48,0,0,0-.24-1.2Zm3.05-.42a4.18,4.18,0,0,0-.2-.77l.64-.08.47-.54a6.41,6.41,0,0,0-1.16-.92l0-.07h-2.7v-.57h2.79v.44l.27-.44.27.15.6-1.21.68.36a13.49,13.49,0,0,1-.71,1.3l.37.35a7.76,7.76,0,0,0,.52-1.11l.74.25A7,7,0,0,1,234,23.11l.65-.09-.14-.45.69-.19a12.45,12.45,0,0,1,.48,1.6l-.72.13-.08-.32-.54.08V26h-.78V24Zm-.28-3.84v.59H229.8v-.59Zm0,1.76v.58h-2.31V22Zm0,.82v.59h-2.21v-.59Zm-.1,3.07h-2a.08.08,0,0,1-.09-.09v-2c0-.06,0-.08.09-.08h2c.06,0,.1,0,.1.08v2A.09.09,0,0,1,232.05,25.91Zm-1.43-1.61,0,0v1l0,0h.86l0,0v-1l0,0Zm2.67.19c0,.55-.15,1-.23,1.48l-.72-.18a9.78,9.78,0,0,0,.21-1.43Zm2-.12a10.33,10.33,0,0,1,.36,1.42l-.72.11a6.33,6.33,0,0,0-.34-1.37Z"/><path class="cls-1" d="M244.54,20.07l1,.39-.36.88h2.71v1H237.16v-1h3.1a5.59,5.59,0,0,0-.48-.81l.9-.49a8.37,8.37,0,0,1,.73,1.3H244A6.08,6.08,0,0,0,244.54,20.07Zm-6,10.82h-1V23.42a.3.3,0,0,1,.35-.35h4.38c.25,0,.36.11.36.35V29.8a1.12,1.12,0,0,1-.48,1,3.19,3.19,0,0,1-2.17.06l-.07-1.13a2.25,2.25,0,0,0,1.44.2.52.52,0,0,0,.26-.46V28.39h-3.06Zm3.06-5.62V24.1a.07.07,0,0,0-.08-.07h-2.89c-.06,0-.09,0-.09.07v1.17Zm0,2.17V26.23h-3.06v1.21Zm3.27-4.1v5.49h-1V23.34Zm2.63-.45v6.86a1.17,1.17,0,0,1-.54,1,3.62,3.62,0,0,1-2.6-.07l0-1.05.95.26c.52.09.88.08,1-.08a.4.4,0,0,0,.11-.33v-6.6Z"/><path class="cls-1" d="M251.29,26.84a16.33,16.33,0,0,1-1,3.34l-.89-.29a17.31,17.31,0,0,0,1-3.29ZM252,20h1v1h2.16V22h-5.59v-.91H252Zm-1.93,6c-.08,0-.12-.05-.12-.14v-3a.11.11,0,0,1,.12-.12h4.64c.09,0,.14,0,.14.12v3a.13.13,0,0,1-.14.14H253v3.81a1.09,1.09,0,0,1-.5,1,2.52,2.52,0,0,1-1.86-.13l0-1,.61.21c.3.08.51.1.64,0a.39.39,0,0,0,.09-.31V26.05Zm.84-2.45s-.05,0,0,0v1.49l0,.05h3l0-.05V23.64l0,0ZM255,29l-1,.21-.56-2.3.92-.3Zm.37-5.8v-1h1.19l0-.57V20.17h1v2h2.71v1h-2.75l-.25,2.29A12.54,12.54,0,0,1,255.08,31l-.89-.53c1.3-1.42,2.07-3.86,2.31-7.29Zm3.15.91V29.6a.27.27,0,0,0,.29.3h.65s.06-.08.1-.26.08-1,.12-2l.94.26a15.39,15.39,0,0,1-.12,2.19.88.88,0,0,1-.33.58,1,1,0,0,1-.6.17H258c-.3,0-.46-.16-.46-.44v-6.3Zm.3-3.93.5.59a8.62,8.62,0,0,1,.58.77l-.82.5a7.77,7.77,0,0,0-1-1.3Z"/><path class="cls-1" d="M264.49,26.24a22.06,22.06,0,0,1-1.7,4.62l-.93-.42A22.5,22.5,0,0,0,263.6,26Zm-1.95-3a12.1,12.1,0,0,1,1.75,1.39l-.67.78a10.23,10.23,0,0,0-1.71-1.37Zm.29-2.94a10.18,10.18,0,0,1,1.79,1.51l-.69.75a10.67,10.67,0,0,0-1.75-1.47Zm8.95,1.76h-1.5a40.07,40.07,0,0,0,.65,4.47,13.07,13.07,0,0,0,1-3.25l.94.24a13,13,0,0,1-1.63,4.22l.5,1.57c.13.34.22.51.25.5s.11-.1.12-.26a6.79,6.79,0,0,0,0-1.3l.94.25a6.18,6.18,0,0,1-.37,2.16A.78.78,0,0,1,272,31a1.07,1.07,0,0,1-.69-.47,9.3,9.3,0,0,1-.76-1.9A7.63,7.63,0,0,1,267.26,31l-.61-.84a7.07,7.07,0,0,0,3.6-2.51,32.22,32.22,0,0,1-.91-5.53H266c-.08,0-.12,0-.12.11v3.45a10.06,10.06,0,0,1-1.28,5.19l-.91-.39a9.35,9.35,0,0,0,1-2.44,13.1,13.1,0,0,0,.24-2.65V21.42c0-.18.09-.26.25-.26h4.14l-.06-1.07,1,.14,0,.93h1.3l-.34-.65.89-.38,1,2.06-.91.32-.34-.8Zm-2.6.93v.91h-3V23Zm0,5.54h-2.81c-.08,0-.13,0-.13-.12V24.87c0-.08.05-.12.13-.12h2.81c.1,0,.14,0,.14.12v3.55C269.32,28.51,269.28,28.54,269.18,28.54Zm-2-2.89,0,0v1.9l0,.05h1.15s0,0,0-.05v-1.9l0,0Z"/><path class="cls-1" d="M278.15,27.7a9.41,9.41,0,0,1-3.23,2.46l-.61-.84a8.23,8.23,0,0,0,3.12-2.25Zm-2.95-2.08a10.6,10.6,0,0,1,1.58,1.3l-.66.72a9.55,9.55,0,0,0-1.54-1.27Zm.67-.29-1,0V22.52a.29.29,0,0,1,.06-.19l.16,0h3.24v-.78c0-.11-.06-.15-.17-.15h-3.27v-1h4.23c.12,0,.18.06.18.17v2.81h-1v-.14H276l-.09,0-.05.12v.71h3.39c.17,0,.25.08.24.23.05,2.93,0,4.66,0,5.17a1.64,1.64,0,0,1-.67,1.2,1.69,1.69,0,0,1-.85.29,5.14,5.14,0,0,1-1.73-.26l-.07-1.09a3.61,3.61,0,0,0,2,.22.63.63,0,0,0,.37-.49,31.36,31.36,0,0,0,.1-4.11.13.13,0,0,0-.16-.13h-2.55Zm8,2.37a9.63,9.63,0,0,1-3.24,2.55l-.62-.82a8.21,8.21,0,0,0,3.11-2.36Zm-3.07-2.26a9,9,0,0,1,1.68,1.33l-.64.74a10.7,10.7,0,0,0-1.64-1.32Zm.44-.25-1,0V22.43a.27.27,0,0,1,.07-.19l.16,0h3.47v-.73c0-.1-.05-.15-.16-.15h-3.55v-.95h4.51c.12,0,.18.06.18.16v2.77h-1v-.14h-2.57l-.11,0-.05.12V24h3.64c.17,0,.25.09.24.23.08,3,.08,4.76,0,5.27A1.57,1.57,0,0,1,283.6,31a5.4,5.4,0,0,1-1.68-.25l-.06-1.09a3.25,3.25,0,0,0,1.87.22.71.71,0,0,0,.38-.5,31.48,31.48,0,0,0,0-4.24c0-.08,0-.13-.15-.12h-2.8Z"/><path class="cls-1" d="M5.12,47.58H1v-1H5.12v-1.8L.71,45,.44,43.94,2,43.87a28.47,28.47,0,0,0,1.68-2.53H.55v-1H10.67v1H4.88A27.27,27.27,0,0,1,3.3,43.81l5-.23a15.69,15.69,0,0,0-1.14-1.22l.78-.66a21.19,21.19,0,0,1,2.93,3.57l-.81.62-1-1.32-3,.16v1.85h4.08v1H6.13v2.09H11v1H.17v-1h5Z"/><path class="cls-1" d="M13.89,48.24H12.83V42.47a.31.31,0,0,1,.36-.36h4.37v-2h1.06v2h4.31a.33.33,0,0,1,.38.37v5.76H22.24v-.51H18.62V51H17.56V47.73H13.89Zm3.67-1.56V43.15H14.05c-.11,0-.17.05-.16.15v3.38Zm4.68,0V43.3a.14.14,0,0,0-.15-.15H18.62v3.53Z"/><path class="cls-1" d="M26.88,43.75v2.81a7.91,7.91,0,0,1-1.05,4.12l-.91-.39a7.09,7.09,0,0,0,.79-1.93,11.65,11.65,0,0,0,.2-2.09V41.09a.24.24,0,0,1,.26-.27h4.07V40h1v.78h4.47v1H34v1h1.73v1H34v1.36a.42.42,0,0,1-.48.47H28.64a.41.41,0,0,1-.47-.47V43.75Zm0,7.27-.34-1a19.66,19.66,0,0,0,3.2-.61l.27-.08a21.88,21.88,0,0,1-2.13-1.19l.36-.95a14.58,14.58,0,0,0,3,1.65,8.25,8.25,0,0,0,2.29-1.65c.06-.08,0-.11-.11-.1H27.59v-1h6.72l.71.58a7.18,7.18,0,0,1-2.65,2.56A22.37,22.37,0,0,0,36,50l-.47,1a23,23,0,0,1-4.37-1.1A19.23,19.23,0,0,1,26.87,51Zm1.3-9.25H27a.12.12,0,0,0-.13.13v.9h1.29Zm4.79,0H29.19v1H33Zm0,2H29.19v.73c0,.1.06.15.17.15h3.43c.11,0,.17-.05.17-.15Z"/><path class="cls-1" d="M47.61,48.44H44.76l.15.22a3.1,3.1,0,0,0,1,.91A2.22,2.22,0,0,0,47,50a.43.43,0,0,0,.35-.14,3,3,0,0,0,.23-1.29l1,.3a4.23,4.23,0,0,1-.52,1.89.85.85,0,0,1-.72.32,3.5,3.5,0,0,1-1.65-.48,4.32,4.32,0,0,1-1.48-1.23,7.63,7.63,0,0,1-.94-2.23,26.7,26.7,0,0,1-.39-5.64c0-.13-.06-.19-.14-.18H39.07a.12.12,0,0,0-.12.13V44.5c0,1.71-.05,3-.13,4A17.67,17.67,0,0,1,38.36,51l-1-.27a23.94,23.94,0,0,0,.51-2.55,29.82,29.82,0,0,0,.12-3V40.62a.21.21,0,0,1,.23-.24h5.26q.28,0,.3.36v2.13l.56-.06a19.64,19.64,0,0,0,1-2.74l.87.27a18.06,18.06,0,0,1-.78,2.33l1.67-.2-.49-1.12.87-.3a20.69,20.69,0,0,1,1.06,2.75l-.88.24-.25-.76-3.34.46L43.83,43a13.86,13.86,0,0,0,.75,5.13V44.4c0-.09,0-.13.13-.13h2.9c.1,0,.14,0,.14.13v3.9C47.75,48.4,47.71,48.44,47.61,48.44Zm-8.49,2.05-.18-1,1.65-.19V48H39.46a.12.12,0,0,1-.13-.13v-4.3c0-.08,0-.11.13-.11h1.13V42.8l-1.18,0-.08-.9a18.22,18.22,0,0,0,3.08-.32l.13.91-1.11.2v.74h1.13c.09,0,.13,0,.13.11v4.3a.12.12,0,0,1-.13.13H41.43v1.24l.89-.1-.31-.6.84-.35a17.7,17.7,0,0,1,1.09,2.36l-.86.31L42.74,50Zm1.47-6.21H40.2l0,0v2.83l0,0h.39Zm.84,2.9h.39s0,0,0,0V44.31l0,0h-.39Zm4.11-2.06s0,0,0,0v2.38l0,0h1.24l0,0V45.16l0,0Z"/><path class="cls-1" d="M51.62,41.47v4.77a10.64,10.64,0,0,1-.83,4.64l-.88-.55a10.19,10.19,0,0,0,.74-4.44V40.56a.23.23,0,0,1,.25-.25h8.21c.19,0,.28.1.28.31A39.46,39.46,0,0,0,59.86,49c.06.2.12.3.17.32s.11-.08.12-.21l0-.94,1,0a5.47,5.47,0,0,1-.41,2.26.8.8,0,0,1-.6.42c-.3,0-.56-.23-.78-.73a8.39,8.39,0,0,1-.65-2.76c-.13-1.41-.16-3.39-.15-5.94,0-.13-.06-.2-.18-.2h-6.5A.18.18,0,0,0,51.62,41.47Zm0,9.36-.18-1,3.1-.34V47.84h-2.2a.12.12,0,0,1-.14-.14V44.09a.13.13,0,0,1,.14-.14h2.2V43l-2.4,0L52,42.1a32.08,32.08,0,0,0,5.8-.41l.15.94a17.56,17.56,0,0,1-2.3.28l-.16,0v1h2.21a.13.13,0,0,1,.14.14V47.7a.12.12,0,0,1-.14.14H55.51v1.57l1.75-.19-.46-.76.9-.44a19,19,0,0,1,1.38,2.56l-.92.39-.38-.81Zm2.92-5.93H53.21l0,0v1.9l0,0h1.33Zm1,2h1.33s0,0,0,0v-1.9l0,0H55.51Z"/><path class="cls-1" d="M69,44.74v1.67c0,.56-.41,1.12-1.21,1.67L67,47.71c.77-.47,1.15-.9,1.15-1.3h-1V44.74Z"/><path class="cls-1" d="M78.66,43H75.31V42h2.94a9.88,9.88,0,0,0-.92-1.41l.85-.55a9.83,9.83,0,0,1,1,1.58l-.66.38h3.19a13.73,13.73,0,0,0,1-2l.94.41A10.84,10.84,0,0,1,82.94,42h2.59v1H82.21v6.67h3.51v1H75.07v-1h3.59Zm-2.28,1.05a19.24,19.24,0,0,1,1.41,4.24l-1,.28a22.47,22.47,0,0,0-1.39-4.18Zm4.81,5.62V43H79.68v6.67Zm4.17-5.47A21.93,21.93,0,0,1,84,48.66l-1-.31A24.49,24.49,0,0,0,84.37,44Z"/><path class="cls-1" d="M88.64,43.12h-1.2v-1h1.2v-2h1v2h1.08v1H89.66v2l.76-.42.5.87a10.06,10.06,0,0,1-1.21.63l0,0V49.8a1.17,1.17,0,0,1-.54,1,2.61,2.61,0,0,1-1.75-.07l0-1.05q.93.31,1.14.18a.45.45,0,0,0,.1-.34V46.64l-.86.36-.49-.91,1.35-.54Zm2.2,7.82L90,50.42l0-.06a6.73,6.73,0,0,0,1.67-3.73l1,.15-.2,1A3.67,3.67,0,0,0,94,49.5V46.11H91.1v-.9h7.14v.9H95.05v1.26h3v.91h-3v1.5a11.31,11.31,0,0,0,1.34.07h2.09l-.25,1H96.75c-.55,0-1-.05-1.5-.11A4.23,4.23,0,0,1,92,49,15.68,15.68,0,0,1,90.84,50.94Zm6.79-6.45h-6.1c-.15,0-.24-.08-.24-.26V40.69a.21.21,0,0,1,.24-.23h6.1c.18,0,.26.08.26.23v3.54C97.89,44.41,97.81,44.49,97.63,44.49Zm-5.36-1.61v.69s0,0,0,0h4.57l0,0v-.69ZM96.91,42v-.66s0,0,0,0H92.3s0,0,0,0V42Z"/><path class="cls-1" d="M107.4,40.08l1,.39-.36.88h2.71v1H100v-1h3.1a4.44,4.44,0,0,0-.48-.81l.9-.5a8,8,0,0,1,.74,1.31h2.57A6.69,6.69,0,0,0,107.4,40.08Zm-6,10.81h-1V43.42c0-.24.11-.34.34-.34h4.38c.25,0,.36.1.36.34v6.39a1.12,1.12,0,0,1-.48,1,3.21,3.21,0,0,1-2.17.05l-.07-1.12a2.41,2.41,0,0,0,1.44.2.52.52,0,0,0,.26-.46V48.4h-3.05Zm3.05-5.61V44.1c0-.05,0-.07-.08-.07h-2.89c-.06,0-.08,0-.08.07v1.18Zm0,2.16V46.23h-3.05v1.21Zm3.28-4.09v5.48h-1V43.35Zm2.62-.46v6.86a1.16,1.16,0,0,1-.54,1,3.62,3.62,0,0,1-2.6-.07l0-1,.94.26c.52.1.88.08,1-.08a.44.44,0,0,0,.1-.33v-6.6Z"/><path class="cls-1" d="M115.67,43.48h-3.19v-1h3.19V40.14h1.06V50.85h-1.06V48a31.42,31.42,0,0,1-2.85,1.63l-.61-.86a30.61,30.61,0,0,0,3.46-2.06Zm6.6-2.13.68.81A23.56,23.56,0,0,1,119.22,45v4.08a.74.74,0,0,0,.08.49.71.71,0,0,0,.58.2h1.5a.82.82,0,0,0,.7-.28,6,6,0,0,0,.17-2l1.07.17a5.83,5.83,0,0,1-.33,2.7,1.11,1.11,0,0,1-.5.38,2.89,2.89,0,0,1-.77.07h-2.3a1.29,1.29,0,0,1-.74-.2,1.45,1.45,0,0,1-.53-1.36V40h1.07v3.72A26.19,26.19,0,0,0,122.27,41.35Z"/><path class="cls-1" d="M124.8,49.51v-.9h1.74v-.74h-1.37a.12.12,0,0,1-.13-.14V42.81a.12.12,0,0,1,.13-.13h1.37V42H124.9v-.9h1.64v-1h.87v1h1.48V42h-1.48v.65h1.37a.12.12,0,0,1,.13.13v4.92c0,.09,0,.14-.13.14h-1.37v.74H129v.9h-1.62V51h-.87V49.51Zm1.74-5.91H126s0,0,0,0v1.25h.62Zm0,2.13h-.62v1.18l0,.05h.59Zm.87-.86H128V43.62l0,0h-.58Zm0,2.09H128l0-.05V45.73h-.63Zm1.93,1.57v-.86h4V47h1v.64h1.44v.86h-1.44v1.34a1.06,1.06,0,0,1-.52,1,2.81,2.81,0,0,1-2,0l0-1c.81.17,1.33.2,1.52.06a.45.45,0,0,0,.1-.32V48.53Zm.15-1.38-.12-.85,2.53-.14v-.61h-2.15c-.08,0-.12,0-.12-.13V42.27c0-.09,0-.12.12-.12h2.15v-.49h-2.51v-.82h2.51v-.7h.92v.7h2.73v.82h-2.73v.49h2.39c.08,0,.12,0,.12.12v3.15c0,.08,0,.13-.11.13a7.93,7.93,0,0,1,.59,1.38l-.78.3-.17-.42Zm1.15,1.52a8.26,8.26,0,0,1,1,1.11l-.71.53a8.78,8.78,0,0,0-.91-1.07Zm1.26-5.74h-1.36s0,0,0,0v.48h1.39Zm0,1.28h-1.39v.52l0,0h1.36Zm.92-.77h1.63V43l0,0h-1.59Zm0,1.33h1.59l0,0v-.52h-1.63Zm1.85.78h-1.85v.56l1.71-.08-.18-.34Z"/><path class="cls-1" d="M143.78,44.74v1.67c0,.56-.41,1.12-1.21,1.67l-.77-.37c.77-.47,1.15-.9,1.15-1.3h-1V44.74Z"/><path class="cls-1" d="M152.24,48.09h-2.07v-.91h2.07V46H150v-.92h1.18L151,43.77H149.7v-.9h1.94v-2.7h.93v2.7h.75v-2.7h.93v2.7h1.54v.9h-1.21l-.29,1.34h1.18V46h-2.21v1.15h2v.91h-2v1.52a14.72,14.72,0,0,0,2.26-.45l.28,1a30.66,30.66,0,0,1-5.81.71l-.23-1c1,0,1.8,0,2.48-.07Zm-1.69-7.53a8.43,8.43,0,0,1,.79,1.67l-.86.37a8.84,8.84,0,0,0-.77-1.64Zm2.81,4.55.27-1.34h-1.74l.21,1.34Zm2.79-4.22a8.61,8.61,0,0,1-.73,1.66l-.84-.4a9.38,9.38,0,0,0,.71-1.61Zm.85,3.33a29.1,29.1,0,0,1,1,3.38l-.94.2a27.72,27.72,0,0,0-1-3.32Zm-.79-.93v-.95h2.51v-2.2h1v2.2h1.07v.95h-1.07v6.46a1.16,1.16,0,0,1-.54,1c-.46.29-1.33.25-2.62-.13l0-1c1.09.34,1.75.4,2,.22a.44.44,0,0,0,.11-.33v-6.2Z"/><path class="cls-1" d="M167.24,49.43h-3.77V48.7h3.77v-.35l-4,.16-.18-.82,2.29-.07.74-.72h-2.18v-.73h7.7v.73h-1a13.84,13.84,0,0,1,1.57,1.28l-.53.52h.2v.73h-3.64v.45H173v.86H162.35v-.86h4.89Zm-4.82-4.25c0-.09.06-.15.17-.15h9.89l.76.37a8.15,8.15,0,0,1-.42,2.07l-.88-.3a5.79,5.79,0,0,0,.31-1.2c0-.08,0-.13-.1-.13h-8.72a.08.08,0,0,0-.09.09v1.36h-.92Zm4.8-3.8h-4.4v-.81h4.4V40h1v.53h4.38v.81H168.2v.38H172v.73h-8.54v-.73h3.79Zm4.49,3.24h-8c-.07,0-.11,0-.11-.11V43a.1.1,0,0,1,.11-.11h8a.1.1,0,0,1,.11.11v1.56C171.82,44.6,171.79,44.62,171.71,44.62Zm-7.17-1.09,0,0v.34l0,.05h6.32l0-.05v-.34l0,0Zm5.06,3.37h-2.43l-.61.68,3.38-.09-.52-.39Zm-1.42,1.8h3.25l-.58-.5-2.67.11Z"/><path class="cls-1" d="M175.13,43.16a9,9,0,0,1,1.41,1.14l-.61.7a8.87,8.87,0,0,0-1.38-1.11Zm1.53,3.2a9.86,9.86,0,0,1-1.15,4.28l-1-.28a9,9,0,0,0,1.19-4Zm-1.49-6a10,10,0,0,1,1.5,1.24l-.61.68a9.44,9.44,0,0,0-1.47-1.19Zm2.39,4.28-.3,1.44-.69-.21a12.86,12.86,0,0,0,.28-1.38Zm-.78-.46a3.67,3.67,0,0,0-.19-.74l.59-.08.55-.63a5.17,5.17,0,0,0-1.14-.82l.37-.68.27.15.66-1.34.69.37c-.17.35-.42.82-.77,1.4l.36.29a7.18,7.18,0,0,0,.5-1.06l.74.25a6.57,6.57,0,0,1-1.2,1.91l.72-.11-.14-.4.67-.19a6.79,6.79,0,0,1,.42,1.53l-.69.15-.06-.33-.52.09v2h-.8V44.05Zm1,5.63-.8-.26.29-1.87a.26.26,0,0,1,.3-.24h6.47v-.39s0-.08-.1-.08h-6.76V46.2h7.48a.18.18,0,0,1,.21.2v2.13h-.83v-.32h-5.86c-.11,0-.17.08-.18.22l0,.2h7.1c.18,0,.28.08.27.26a3.9,3.9,0,0,1-.33,1.52l-.19.19c-.63.52-2.65.58-6,.2l-.05-.84a29.52,29.52,0,0,0,4.15.27,2.35,2.35,0,0,0,1.49-.33,2,2,0,0,0,.06-.49h-6.58Zm1.79-5.28.23,1.24-.72.06a9.08,9.08,0,0,0-.24-1.2Zm3.05-.43a3.65,3.65,0,0,0-.21-.76l.65-.09.47-.54a6.34,6.34,0,0,0-1.16-.91l0-.07h-2.7v-.58h2.78v.45l.28-.45.26.15.6-1.21.69.37c-.16.32-.39.76-.71,1.29l.37.35a7.67,7.67,0,0,0,.52-1.1l.74.24a7.32,7.32,0,0,1-1.14,1.87l.65-.09-.14-.45.69-.19a13.48,13.48,0,0,1,.48,1.6l-.72.13L185,43.8l-.54.08V46h-.78V44Zm-.28-3.83v.58h-2.45v-.58ZM182.32,42v.59H180V42Zm0,.82v.59h-2.21v-.59Zm-.1,3.07h-2a.08.08,0,0,1-.09-.09v-2a.08.08,0,0,1,.09-.09h2c.06,0,.1,0,.1.09v2C182.28,45.88,182.24,45.91,182.18,45.91Zm-1.43-1.61,0,0v1l0,0h.85l0,0v-1l0,0Zm2.67.19c0,.55-.15,1-.23,1.48l-.72-.17a11.63,11.63,0,0,0,.21-1.44Zm2-.12a13.9,13.9,0,0,1,.36,1.43l-.72.1a5.78,5.78,0,0,0-.35-1.36Z"/><path class="cls-1" d="M193.17,48h2.65v1h-2.65V50.9h-1V49h-2.73V48h2.73V44a16.93,16.93,0,0,1-4.32,4.46l-.8-.74a16.31,16.31,0,0,0,4.83-5.1h-4.5v-1h4.79V40.14h1v1.44h4.72v1h-4.47a14.87,14.87,0,0,0,4.81,5.11l-.92.68a19.46,19.46,0,0,1-4.14-4.4Z"/><path class="cls-1" d="M202.85,47.77h-2.29l-.15-.06a.19.19,0,0,1,0-.14V41.21a.25.25,0,0,1,.28-.27h3a4.54,4.54,0,0,0,.33-.85l1,.35-.17.5h4.36c.21,0,.3.09.3.27v3.41a.28.28,0,0,1-.31.31h-7.8v.64h8.93v.83h-8.93v.47h8.76a.19.19,0,0,1,.19.07,1.84,1.84,0,0,1,.11.88,5.67,5.67,0,0,1-.46,2.65,1.05,1.05,0,0,1-.6.43,7,7,0,0,1-1.89,0l-.13-1a5.38,5.38,0,0,0,1.53.09.45.45,0,0,0,.31-.29,3.53,3.53,0,0,0,.23-1.58c0-.16,0-.27-.08-.3l-.16,0h-5.32v2h1.78c.1,0,.15,0,.15-.15V48.18h1v2c0,.28-.13.42-.43.42h-5.93a.38.38,0,0,1-.42-.42v-2h1v1.45c0,.11,0,.15.15.15h1.78Zm5.62-5.22v-.48c0-.16-.08-.23-.24-.23h-6.65a.22.22,0,0,0-.25.24v.47ZM201.33,44h7a.13.13,0,0,0,.15-.15v-.51h-7.14V44Z"/><path class="cls-1" d="M213.41,50.85h-1V41.78c0-.1.05-.15.17-.15h1.23l.53-1.54,1,.34-.41,1.2h1.79c.15,0,.22.06.22.2v9h-1v-.52h-2.44Zm2.44-5.31V42.76c0-.09,0-.13-.15-.13h-2.15c-.11,0-.16,0-.14.13v2.78Zm-2.44,1v2.79h2.44V46.54Zm4.52-2.4-1-.33a8.17,8.17,0,0,0,1.19-3.61l1,.09-.15,1h3.41l.2.05c.11.06.17.24.17.53,0,1.74,0,3.25-.07,4.61-.06,2.22-.52,3.6-1.36,4.1-.52.37-1.59.31-3.17-.15V49.25c1.34.46,2.22.58,2.59.35a1.91,1.91,0,0,0,.64-.9,8.14,8.14,0,0,0,.3-2.37,23,23,0,0,0,0-3.95.13.13,0,0,0-.12-.08h-2.84A7,7,0,0,1,217.93,44.14Zm1.5-.32a37,37,0,0,1,1.4,3.85l-1,.26a20.92,20.92,0,0,0-1.39-3.79Z"/><path class="cls-1" d="M233.91,42H232.5a28.78,28.78,0,0,0,.67,4.34l.13-.31a11.21,11.21,0,0,0,.57-2.73l.95.19a12.2,12.2,0,0,1-1.28,4.16l.54,1.55c.14.33.24.5.29.49s.13-.1.16-.27a7.8,7.8,0,0,0,.11-1.47l1,.28a5.88,5.88,0,0,1-.5,2.34.76.76,0,0,1-.71.39,1.09,1.09,0,0,1-.73-.48,8.54,8.54,0,0,1-.83-1.8A7.51,7.51,0,0,1,229.9,51l-.7-.82a7.12,7.12,0,0,0,3.18-2.38l.14-.2a16.06,16.06,0,0,1-.49-2H231a7,7,0,0,1-1.09,2.62l1.07.6-.73.72-1-.6a12.73,12.73,0,0,1-2.76,1.84l-.68-.81a9,9,0,0,0,2.61-1.54l-1.59-1c-.12-.06-.13-.15,0-.28a12.17,12.17,0,0,0,.76-1.57h-1.28v.65a9.31,9.31,0,0,1-.94,4.34l-.92-.35A9.85,9.85,0,0,0,225.3,46V41.31a.24.24,0,0,1,.26-.26h5.83l-.06-1,1,.12.05.84h1.33l-.34-.49.83-.51a13.34,13.34,0,0,1,1.42,2.42l-.85.46c-.32-.64-.62-1.17-.88-1.6Zm-2.42,0H226.4a.12.12,0,0,0-.13.13v2.54h1.63l.21-.84H226.7v-1h4.46v1h-2.08l-.22.84h3V44.6C231.68,43.66,231.56,42.8,231.49,42Zm-3,3.62a14.71,14.71,0,0,1-.64,1.38c-.06.07,0,.11.07.15l1.09.62a4.8,4.8,0,0,0,1-2.15Z"/><path class="cls-1" d="M242.83,44.05v-.82h1.87l.25-.56-1.79-.07,0-.83a15.52,15.52,0,0,0,2.42.12.38.38,0,0,0,.29-.4c0-.07,0-.12-.14-.15h-3.16a4,4,0,0,1-2.48,1.26l-.35.06.41.11-.11.46h2.13c.16,0,.24.07.24.23a2.34,2.34,0,0,1-.49,1.91,1.22,1.22,0,0,1-.6.19h-1.59l0-.81,1.38.08a.58.58,0,0,0,.37-.68c0-.06,0-.09-.12-.11h-1.59v0a4.12,4.12,0,0,1-2.28,2.12l-.54-.77a3,3,0,0,0,1.81-1.39H237.3v-.82H239l.14-.5-1.75.12,0-.92a9.92,9.92,0,0,0,3.9-.59h-3.36v-.81h4l0-.48.93.06,0,.42h3.74c.17,0,.25.07.25.18a2.07,2.07,0,0,1-.39,1.72,2.08,2.08,0,0,1-1.11.24l.52.23-.14.33h2c.15,0,.24.07.24.21a2.28,2.28,0,0,1-.46,1.92,1.08,1.08,0,0,1-.61.18l-1.63-.06v-.84a13.27,13.27,0,0,0,1.39.23.6.6,0,0,0,.35-.7c0-.06,0-.09-.12-.12h-1.66l0,0a4,4,0,0,1-2.48,1.69l-.41-.83a3.76,3.76,0,0,0,1.79-.9ZM239,50.89h-1V46.11c0-.14.07-.21.23-.21h8.48q.24,0,.24.21v3.83a1,1,0,0,1-.47.88,3.48,3.48,0,0,1-2.49,0V49.75c.92.3,1.49.39,1.71.23a.47.47,0,0,0,.27-.43v-.12h-7Zm7-3.61v-.5s0-.07-.09-.07h-6.84a.07.07,0,0,0-.08.07v.5Zm0,1.33v-.52h-7v.52Z"/><path class="cls-1" d="M252.19,51h-1V46.23a9.78,9.78,0,0,1-.95,1.93l-.93-.27A11.31,11.31,0,0,0,251,44.21h-1.41v-1h1.64V41.61l-1.4.17-.23-.94a21,21,0,0,0,3.73-.64l.23.93-1.36.31v1.81h1.38v1h-1.38v.26a20.35,20.35,0,0,1,1.64,1.93l-.76.6-.88-1.23Zm4.32-2.77h-3v-1h3v-1.5l-2.47.08-.18-1a23.36,23.36,0,0,0,6.19-.53l.27,1a23,23,0,0,1-2.83.4v1.58h2.93v1h-2.93v1.57h2.83v1h-6.71v-1h2.9ZM260,43.82h-5.72a.12.12,0,0,1-.13-.14V40.51a.12.12,0,0,1,.13-.13H260a.12.12,0,0,1,.13.13v3.17A.12.12,0,0,1,260,43.82Zm-4.89-2.53,0,0v1.54l0,0h4.05s.05,0,.05,0V41.33l-.05,0Z"/><path class="cls-1" d="M263.77,43.75v2.81a8,8,0,0,1-1,4.12l-.91-.39a7.79,7.79,0,0,0,.79-1.93,10.89,10.89,0,0,0,.19-2.09V41.09a.24.24,0,0,1,.26-.27h4.07V40h1v.78h4.47v1h-1.75v1h1.73v1h-1.73v1.36a.42.42,0,0,1-.48.47h-4.86c-.31,0-.46-.15-.46-.47V43.75Zm0,7.27-.34-1a19.66,19.66,0,0,0,3.2-.61l.27-.08a20.56,20.56,0,0,1-2.12-1.19l.36-.95a14.27,14.27,0,0,0,3,1.65,8.25,8.25,0,0,0,2.29-1.65c.06-.08,0-.11-.11-.1h-5.79v-1h6.73l.7.58a7.11,7.11,0,0,1-2.65,2.56,22.57,22.57,0,0,0,3.67.67l-.46,1a23.09,23.09,0,0,1-4.38-1.1A19.23,19.23,0,0,1,263.76,51Zm1.31-9.25H263.9a.12.12,0,0,0-.13.13v.9h1.3Zm4.78,0h-3.76v1h3.76Zm0,2h-3.76v.73a.14.14,0,0,0,.16.15h3.43c.11,0,.17-.05.17-.15Z"/><path class="cls-1" d="M279.73,45.8a9.9,9.9,0,0,1-4.71,5l-.76-.84a8.23,8.23,0,0,0,5-6.39h-4.56v-1h4.67l0-.59V40.27h1.1V42l0,.59h4.66v1h-4.53a5.35,5.35,0,0,0,.25,1.23c.63,2,2.2,3.73,4.7,5.33l-.92.77-.66-.48a10.9,10.9,0,0,1-4-5.16Z"/><path class="cls-1" d="M1.33,62.76a.06.06,0,0,0-.07.07v5.68H.34V62.08a.19.19,0,0,1,.22-.22H1.79V60.09h.92v1.77H3.93c.16,0,.23.07.23.22v5.48a.93.93,0,0,1-.43.85,2,2,0,0,1-1,.19V71H1.79V62.76Zm1.38,4.91L3,67.61a.46.46,0,0,0,.24-.41V62.83s0-.07-.09-.07H2.71Zm8.2-7.23v.9H4.49v-.9ZM5.43,70.83H4.51V65.46c0-.11,0-.15.14-.15h6.11c.13,0,.2,0,.2.18v5.34H10v-.48H5.43Zm5-6.09H5.05c-.09,0-.12,0-.12-.13V62.15c0-.07,0-.1.12-.1h5.36c.08,0,.13,0,.13.1v2.46A.12.12,0,0,1,10.41,64.74ZM7.22,66.21H5.56c-.09,0-.14.05-.13.13v1.08H7.22Zm0,2.12H5.43v1.12H7.22ZM5.89,62.86s0,0,0,0v1l0,0H9.57l0,0v-1l0,0Zm2.25,4.56H10V66.34c0-.08,0-.13-.15-.13H8.14Zm0,2H10V68.33H8.14Z"/><path class="cls-1" d="M13.87,71h-1V60.51l0-.11.11,0h2.77l.72.47-1,2.92c-.07.19-.07.33,0,.39a5.45,5.45,0,0,1,.84,1.67,2.41,2.41,0,0,1-.17,2,1.34,1.34,0,0,1-.65.5,2.76,2.76,0,0,1-1.58,0ZM14,61.32l-.07,0,0,.06v5.84a1.51,1.51,0,0,0,1.08.2.5.5,0,0,0,.3-.23,1.45,1.45,0,0,0,.13-.59,5.69,5.69,0,0,0-1.08-2.51v-.06l0-.07.87-2.45c.06-.15,0-.22-.17-.21Zm1.77,8.07v-1H17.4V66.67h-.64v-1h3.31v-.8h1v.8h2.1v1h-2.1v1.72h2.57v1H21.09V71h-1v-1.6ZM18,62.06a6.84,6.84,0,0,1-1.24.82l-.49-.82a5.25,5.25,0,0,0,1.19-.74,7,7,0,0,0,1-1.28l1,.16-.12.21h3.09l.72.55a7.44,7.44,0,0,1-1.38,1.87l-.84.71a9.74,9.74,0,0,0,2.8.74l-.34,1a8,8,0,0,1-3.22-1.1l-.09,0-.21.09a18.63,18.63,0,0,1-3,1.17l-.45-.88a28.25,28.25,0,0,0,2.83-1A6.79,6.79,0,0,1,18,62.06Zm2.12,4.61H18.42v1.72h1.65Zm-1.43-5.31A4.1,4.1,0,0,0,20,63a7.28,7.28,0,0,0,1.61-1.53c0-.06,0-.1,0-.1Z"/><path class="cls-1" d="M25.86,65.52l-1-.43a11.16,11.16,0,0,0,2.16-5l1,.18a21.44,21.44,0,0,1-.7,2.46v8.15h-1V64.8Zm3.7-.83v3.16l.41-.1A19.06,19.06,0,0,0,32,67.22l.3,1a24.85,24.85,0,0,1-4.49,1l-.28-1,1-.14V61q0-.28.27-.27a29,29,0,0,0,6.47-.59l.42,1c-.84.16-1.73.32-2.68.42,0,.74,0,1.47.09,2.15H36v1H33.22a11.85,11.85,0,0,0,1.23,4.39c.19.37.32.53.4.53a.18.18,0,0,0,.12-.17,9,9,0,0,0,0-1.56l1,.24a4.06,4.06,0,0,1-.56,2.56.75.75,0,0,1-.41.23,1,1,0,0,1-.76-.5,6.84,6.84,0,0,1-1.2-2.23,12.88,12.88,0,0,1-.79-3.49Zm3.66,5v1H28.15v-1ZM32,61.62c-.8.05-1.59.07-2.42.07,0,0-.06,0-.06.11v1.89h2.6A19.08,19.08,0,0,1,32,61.62Z"/><path class="cls-1" d="M43,67a1.37,1.37,0,0,1-1-.45,1.33,1.33,0,0,1-.44-1,1.45,1.45,0,0,1,2.5-1,1.28,1.28,0,0,1,.44,1,1.39,1.39,0,0,1-.44,1A1.44,1.44,0,0,1,43,67Zm.77-.72a1,1,0,0,0,.27-.71.91.91,0,0,0-.31-.73,1.06,1.06,0,0,0-.73-.3,1,1,0,0,0-.74.3.94.94,0,0,0-.3.73,1,1,0,0,0,.3.71.93.93,0,0,0,.74.31A1.1,1.1,0,0,0,43.8,66.29Z"/><path class="cls-1" d="M50.5,64.31l-.6-1c2.73-1,4.52-2,5.33-3.22l1,.17-.13.21a14.33,14.33,0,0,0,4.95,2.69l-.6.93a19.07,19.07,0,0,1-4.93-2.9A17.5,17.5,0,0,1,50.5,64.31ZM55,67.63H51.36v-1H55V64.74H51.88v-1h7.31v1H56v1.89h3.59v1H56v1.9h4.86v1H50.09v-1H55Z"/><path class="cls-1" d="M67.5,69.44H63.73v-.73H67.5v-.36l-4,.17-.18-.83,2.29-.07.73-.71H64.15v-.73h7.7v.73h-1a12.83,12.83,0,0,1,1.57,1.28l-.53.52h.21v.73H68.43v.44h4.82v.86H62.6v-.86h4.9Zm-4.82-4.25a.14.14,0,0,1,.16-.15h9.9l.75.36a7.3,7.3,0,0,1-.42,2.07l-.87-.29a7,7,0,0,0,.31-1.2c0-.09,0-.13-.11-.13H63.68c-.06,0-.08,0-.08.08v1.36h-.92Zm4.79-3.8h-4.4v-.81h4.4v-.53h1v.53h4.37v.81H68.46v.37h3.76v.73H63.68v-.73h3.79ZM72,64.62H64c-.07,0-.11,0-.11-.1V63c0-.07,0-.1.11-.1h8c.07,0,.11,0,.11.1v1.57C72.08,64.6,72,64.62,72,64.62ZM64.8,63.53l0,0v.35l0,0h6.32l0,0v-.35l0,0Zm5.06,3.38H67.42l-.61.68,3.39-.1-.52-.38Zm-1.43,1.8h3.25l-.57-.51-2.68.12Z"/><path class="cls-1" d="M75.77,65.61l-1-.32a11,11,0,0,0,1.61-5.12l1,.07a18.61,18.61,0,0,1-.47,2.61V71H76V65.28Zm5.37,3.54H78v-.81h3.17v-.66H77.65v-.81h3.49v-.66H78c-.08,0-.11,0-.11-.13V64c0-.08,0-.12.11-.12h3.12v-.61H79.45a.35.35,0,0,1-.4-.4V61.71H77.7V60.8h1.35v-.65h1v.65h3.21v-.65h1v.65h1.47v.91H84.2v1.11a.36.36,0,0,1-.41.4H82.16v.61h3.06c.08,0,.13,0,.13.12v2.13a.12.12,0,0,1-.13.13H82.16v.66h3.46v.81H82.16v.66H85.4v.81H82.16v.61H86v.91H77.51v-.91h3.63Zm0-4.5H78.87s0,0,0,0v.67l0,.05h2.27Zm2.09-2.94H80v.55a.13.13,0,0,0,.15.15h2.9c.11,0,.16,0,.16-.15ZM82.16,65.4h2.22l.05-.05v-.67l-.05,0H82.16Z"/><path class="cls-1" d="M89.21,63.4a.3.3,0,0,1,.34-.34h6.64c.24,0,.36.11.36.34v6.27h1.74v1H87.44v-1h1.77Zm3.16-3.26h1.06v1h4.12l.93.46a9.65,9.65,0,0,1-.58,2.34l-1-.32a8.31,8.31,0,0,0,.35-1.33q0-.15-.15-.15h-8.5c-.06,0-.09,0-.09.08V63.8h-1V61.32c0-.13.07-.19.2-.19h4.65Zm3.16,5.17V64.19c0-.08,0-.13-.15-.13h-5c-.1,0-.14,0-.14.13v1.12Zm0,2.24V66.31h-5.3v1.24Zm0,2.12V68.55h-5.3v1.12Z"/><path class="cls-1" d="M103.58,61.48v.41h-.92v-.41h-2.8v-.9h2.8v-.49h.92v.49h3.53v-.49H108v.49h2.77v.9H108v.37h-.92v-.37Zm1.22.84v2.54c0,.19-.09.27-.28.27h-3.37V71h-.93V62.31a.21.21,0,0,1,.24-.24h4.08C104.72,62.07,104.8,62.14,104.8,62.32Zm-.93.94V63c0-.13-.06-.21-.2-.21h-2.31c-.15,0-.23.08-.21.22v.21Zm-2.72.68v.42h2.49a.2.2,0,0,0,.23-.23v-.19Zm5,1.19c-.19,0-.29-.08-.29-.28V62.34c0-.19.1-.27.29-.27h4c.2,0,.29.08.29.27v7.72a.87.87,0,0,1-.15.53,1,1,0,0,1-.4.35,2.46,2.46,0,0,1-1.56,0l0-.84-.21.42a9.93,9.93,0,0,1-2.41-.86v1.24h-.84V69.63a7.85,7.85,0,0,1-2.85.89l-.26-.79a7.68,7.68,0,0,0,2.68-.69h-2.34a.1.1,0,0,1-.11-.11v-2a.1.1,0,0,1,.11-.11h2.77v-.42h-3.06v-.69h3.06V65h.84v.73H109v.69h-3.23v.42h3c.08,0,.12,0,.12.11v2c0,.08,0,.11-.12.11H106.1l.25.13a7,7,0,0,0,2.16.61l-.11.21a3.07,3.07,0,0,0,.89.1.24.24,0,0,0,.13-.13.45.45,0,0,0,.07-.25V65.13Zm-2.8,2.35h-.45l0,0v.8l0,0h.76l-.16-.44Zm1.53,0h-.83l.3.88h.53Zm.84.88h.59l.33-.71.08-.17h-1Zm3.75-5.1v-.18a.22.22,0,0,0-.25-.25H107a.18.18,0,0,0-.2.22v.21Zm-2.67.68v.17c0,.17.07.25.24.25h2.43v-.42Zm.25,4.42h.87l0,0v-.8l0,0h-.5l-.19.5Z"/><path class="cls-1" d="M113.58,63.87h-1.25v-1h1.25V60.18h1v2.69h1.13v1H114.6v4.05l.87-.61.65.76A15.92,15.92,0,0,1,112.81,70l-.61-.88,1.38-.6Zm2,1.61-.51-.92,1.46-.62V61.07h1v2.44l1.56-.66v-2.8h1v2.36l2.18-.92.7.31v4.12a1.69,1.69,0,0,1-.18.7,1.6,1.6,0,0,1-.58.6,2.47,2.47,0,0,1-1.59.11l0-1,.73.11a.68.68,0,0,0,.57-.33,1.22,1.22,0,0,0,.12-.62V62.92l-.06-.11h-.08l-1.76.75v4.77h-1V64l-1.56.66V69a.87.87,0,0,0,.11.48.71.71,0,0,0,.58.16h3.14a1,1,0,0,0,.74-.25,3.76,3.76,0,0,0,0-1.52l1,.12a4.85,4.85,0,0,1-.21,2.22,1,1,0,0,1-.49.4,2.89,2.89,0,0,1-.77.07h-3.93a1.39,1.39,0,0,1-.76-.2,1.45,1.45,0,0,1-.5-1.32V65.08Z"/><path class="cls-1" d="M124.9,61.44v-.91h10.79v.91h-9.33v8c0,.16.09.25.27.25h8.93v.95h-9.74a.42.42,0,0,1-.48-.48V61.44Zm5.78,7.74h-3.52A.12.12,0,0,1,127,69V65.59a.12.12,0,0,1,.13-.12h3.52a.11.11,0,0,1,.13.12V69C130.81,69.13,130.77,69.18,130.68,69.18Zm3.58-4.37h-6.61a.12.12,0,0,1-.13-.14V62.19a.12.12,0,0,1,.13-.12h6.61a.11.11,0,0,1,.13.12v2.48C134.39,64.76,134.35,64.81,134.26,64.81ZM128,66.33s0,0,0,0v1.91l0,0h1.85l0,0V66.36l0,0Zm.54-3.4s-.05,0,0,0v.95l0,0h4.85l0,0V63l0,0Zm6.55,6.2h-3.47a.12.12,0,0,1-.13-.13V65.59a.12.12,0,0,1,.13-.12h3.47c.09,0,.14,0,.14.12V69A.12.12,0,0,1,135.08,69.13Zm-2.64-2.8s-.05,0,0,0v1.86l0,0h1.81l.05,0V66.36l-.05,0Z"/><path class="cls-1" d="M144.54,66.46l-.66.72a15.27,15.27,0,0,0-2.47-2.69l.51-.5A13.36,13.36,0,0,1,144.54,66.46Z"/><path class="cls-1" d="M159.26,70.36a.28.28,0,0,1-.31.31h-7.61v-.91h6.82a.08.08,0,0,0,.09-.09V69h-8.42v-.9h8.42v-.76c0-.06,0-.08-.09-.08h-6.77v-.91H159a.27.27,0,0,1,.31.3v1.45h1.37V69h-1.37Zm-8.38-7.5c-.06,0-.1,0-.1.09v1.59h-.92V62.13A.16.16,0,0,1,150,62h4.67v-.61h-3.89v-.9h8.87v.9h-4V62H160l.84.41a8.2,8.2,0,0,1-.49,2.38l-.88-.26a6.15,6.15,0,0,0,.28-1.48c0-.09,0-.14-.12-.14h-3.95v3h-1v-3Zm3.28.61v.81h-2.83v-.81Zm0,1.42v.82h-2.83v-.82ZM159,63.47v.81h-2.77v-.81Zm.05,1.42v.82h-2.82v-.82Z"/><path class="cls-1" d="M171.45,69.51c.12,0,.18-.05.18-.17V61.29h1.07V70c0,.35-.18.51-.53.51h-9c-.35,0-.52-.16-.52-.51V61.29h1.06v8.05a.15.15,0,0,0,.17.17h3.25V60.18h1.1v9.33Z"/><path class="cls-1" d="M183.92,69.51c.12,0,.18-.05.18-.17V61.29h1.07V70c0,.35-.18.51-.53.51h-9c-.35,0-.52-.16-.52-.51V61.29h1.06v8.05c0,.12.06.17.16.17h3.25V60.18h1.11v9.33Z"/><path class="cls-1" d="M188,70.75l-1-.23a15.54,15.54,0,0,0,.68-4.65V60.61c0-.15.06-.22.22-.22h2.58l.15.06.08.16v9.58a.57.57,0,0,1-.2.47.88.88,0,0,1-.46.23l-1.34-.08-.07-1a3.23,3.23,0,0,0,1.06.14c.06,0,.08,0,.08-.1V67h-1.2A17.85,17.85,0,0,1,188,70.75Zm1.78-7.51V61.39l0-.07-.06,0h-1c-.05,0-.08,0-.08.1v1.85Zm0,2.81V64.14h-1.17v1.91Zm7.43-5a31,31,0,0,1-4.55.63c-.13,0-.18.07-.17.17v3.76a22.87,22.87,0,0,1-.61,5.15l-1-.48a19.54,19.54,0,0,0,.61-4.67V61c0-.21.06-.33.25-.34a30.81,30.81,0,0,0,5.13-.6Zm.39,3,.58.83A12.26,12.26,0,0,1,196.36,66a22.37,22.37,0,0,0,1.89,4.46l-1,.41a19.05,19.05,0,0,1-2.34-7.68l-.74,0s-.06,0-.05.1v6.08c.58-.18,1.05-.37,1.41-.52l.43.9a19,19,0,0,1-3.43,1l-.37-1,.94-.16V62.61c0-.15.06-.23.26-.23a17.33,17.33,0,0,0,3.92-.58l.45.92a12.16,12.16,0,0,1-1.62.34l-.22,0a9.3,9.3,0,0,0,.2,1.89A14.71,14.71,0,0,0,197.56,64.05Z"/><path class="cls-1" d="M201.05,66.49a.12.12,0,0,0-.13-.14h-1.06v-1h1.94c.18,0,.27.09.27.25v2.84a1.86,1.86,0,0,0,.37.54,2.26,2.26,0,0,0,1.1.64c.63.19,3,.19,7,0l-.25,1.13-5.22,0c-1.76,0-2.94-.45-3.49-1.31a2,2,0,0,1-.61.8,3.31,3.31,0,0,1-1,.65l-.51-.89a3,3,0,0,0,1.2-.79,1.77,1.77,0,0,0,.34-1.06Zm-1-3.87A11.44,11.44,0,0,1,202.16,64l-.58.83a12.71,12.71,0,0,0-2-1.32Zm.32-2.44a12.65,12.65,0,0,1,2.17,1.44l-.61.83A12.35,12.35,0,0,0,199.87,61Zm2.77.73c0-.13,0-.22.21-.24a10,10,0,0,0,2.32-.59l.58.9a10.72,10.72,0,0,1-2,.53c-.11,0-.15.07-.14.13v5.29l1.44-.58.46,1a18.89,18.89,0,0,1-3.38,1.2l-.44-1,.9-.27Zm5.95.48h-1.38a.12.12,0,0,0-.13.13v7.73h-1V60.71c0-.22.1-.32.33-.32h3c.22,0,.34.1.34.32v6.56a1,1,0,0,1-.39.84,2.19,2.19,0,0,1-1.7.13l-.2-1.19a2.48,2.48,0,0,0,1.13.14.45.45,0,0,0,.14-.39V61.52C209.29,61.44,209.24,61.39,209.14,61.39Z"/><path class="cls-1" d="M213.71,61.47v4.78a10.59,10.59,0,0,1-.83,4.63l-.89-.55a10.14,10.14,0,0,0,.75-4.44V60.56c0-.16.08-.24.25-.24h8.2c.19,0,.29.09.29.3A38.78,38.78,0,0,0,222,69c.06.2.12.31.16.32s.11-.07.12-.2l0-.94,1,0a5.39,5.39,0,0,1-.41,2.26.84.84,0,0,1-.6.43c-.3,0-.56-.24-.78-.73a8.56,8.56,0,0,1-.64-2.77c-.13-1.41-.17-3.39-.16-5.94,0-.13-.06-.2-.18-.2h-6.5A.18.18,0,0,0,213.71,61.47Zm0,9.36-.18-1,3.09-.34V67.85h-2.19c-.1,0-.15,0-.15-.14V64.09c0-.09.05-.14.15-.14h2.19V63l-2.4.06-.12-1a32,32,0,0,0,5.81-.42l.14,1a22,22,0,0,1-2.3.28l-.16,0v1h2.21a.12.12,0,0,1,.14.14v3.62a.12.12,0,0,1-.14.14h-2.21v1.56l1.75-.19-.45-.76.9-.44a19.63,19.63,0,0,1,1.38,2.57l-.93.39-.38-.81Zm2.91-5.92h-1.33l0,0v1.91l0,0h1.33Zm1,2h1.33s.05,0,.05,0V64.94l-.05,0h-1.33Z"/><path class="cls-1" d="M225.92,70.89h-1V63a.31.31,0,0,1,.35-.35h3.46l.58-1.2h-4.65v-1h10.79v1h-5l-.37.8-.18.4h4.9c.25,0,.36.11.36.35v7.9h-1V70.4h-8.21Zm1.42-7.25h-1.29c-.09,0-.14,0-.13.14V69.4h1.42Zm4.45,1.25V63.64h-3.43v1.25Zm0,2.3v-1.3h-3.43v1.3Zm-3.43,1V69.4h3.43V68.19Zm4.45,1.21h1.32V63.78c0-.1,0-.14-.15-.14h-1.17Z"/><path class="cls-1" d="M237.58,61.39v-1h7.84a.45.45,0,0,1,.31.17.36.36,0,0,1,.11.36l-.72,2.55h1.44l.77.49-.3,1.16a8.79,8.79,0,0,1-2.46,3.48A12,12,0,0,0,248,70.05l-.68.94a14.33,14.33,0,0,1-3.65-1.74,15.78,15.78,0,0,1-4,1.73l-.51-1a13.87,13.87,0,0,0,3.69-1.4,8.72,8.72,0,0,1-2.34-4.13h-.38a12.61,12.61,0,0,1-2.27,6.36l-1-.58c1.52-1.69,2.33-4.64,2.37-8.81v0Zm2.71,2.08h3.76l.57-2c0-.08,0-.11-.1-.08h-4.14v0C240.38,62.08,240.35,62.75,240.29,63.47ZM243.76,68a5.9,5.9,0,0,0,2.33-3.37c0-.13-.05-.2-.22-.2h-4.28a7,7,0,0,0,1.91,3.32Z"/><path class="cls-1" d="M254.52,69.44h-3.77v-.73h3.77v-.36l-4,.17-.18-.83,2.29-.07.73-.71h-2.17v-.73h7.7v.73h-1a12.12,12.12,0,0,1,1.57,1.28l-.53.52h.21v.73h-3.65v.44h4.82v.86H249.62v-.86h4.9Zm-4.82-4.25a.14.14,0,0,1,.16-.15h9.9l.75.36a7.3,7.3,0,0,1-.42,2.07l-.87-.29a7,7,0,0,0,.31-1.2c0-.09,0-.13-.11-.13H250.7c-.06,0-.08,0-.08.08v1.36h-.92Zm4.79-3.8h-4.4v-.81h4.4v-.53h1v.53h4.37v.81h-4.37v.37h3.76v.73H250.7v-.73h3.79Zm4.5,3.23h-8c-.07,0-.11,0-.11-.1V63c0-.07,0-.1.11-.1h8c.07,0,.11,0,.11.1v1.57C259.1,64.6,259.06,64.62,259,64.62Zm-7.17-1.09,0,0v.35l0,0h6.32l0,0v-.35l0,0Zm5.06,3.38h-2.43l-.62.68,3.39-.1-.52-.38Zm-1.43,1.8h3.25l-.57-.51-2.68.12Z"/><path class="cls-1" d="M263.25,68.25h-1.06V62.47c0-.25.12-.35.36-.35h4.37v-2H268v2h4.31c.25,0,.38.12.38.36v5.77H271.6v-.52H268V71h-1.06V67.73h-3.67Zm3.67-1.57V63.15h-3.51c-.11,0-.17.05-.16.16v3.37Zm4.68,0V63.31a.14.14,0,0,0-.15-.16H268v3.53Z"/><path class="cls-1" d="M283.66,69.51c.12,0,.18-.05.18-.17V61.29h1.07V70c0,.35-.18.51-.53.51h-9a.44.44,0,0,1-.51-.51V61.29H276v8.05a.15.15,0,0,0,.17.17h3.25V60.18h1.1v9.33Z"/><path class="cls-1" d="M.22,81.44v-.91H11v.91H1.68v8c0,.17.09.25.28.25h8.92v.95H1.14a.42.42,0,0,1-.48-.48V81.44ZM6,89.18H2.48A.12.12,0,0,1,2.35,89V85.59a.12.12,0,0,1,.13-.12H6a.11.11,0,0,1,.13.12V89C6.13,89.13,6.09,89.18,6,89.18Zm3.58-4.36H3c-.08,0-.13,0-.13-.15V82.19A.12.12,0,0,1,3,82.07H9.58a.11.11,0,0,1,.13.12v2.48C9.71,84.77,9.67,84.82,9.58,84.82ZM3.31,86.33s-.05,0,0,0v1.9l0,0H5.16l0,0v-1.9l0,0Zm.54-3.4s-.05,0,0,0v.94l0,0H8.7l0,0V83l0,0Zm6.55,6.2H6.93A.12.12,0,0,1,6.8,89V85.59a.12.12,0,0,1,.13-.12H10.4c.09,0,.14,0,.14.12V89C10.54,89.09,10.49,89.13,10.4,89.13Zm-2.64-2.8s0,0,0,0v1.86l0,0H9.57l0,0V86.37l0,0Z"/><path class="cls-1" d="M14,90.9H13v-10a.31.31,0,0,1,.34-.34h9.54c.25,0,.36.12.36.34v10h-1v-.5H14Zm8.2-1.5V81.66a.12.12,0,0,0-.14-.13H14.1c-.1,0-.14,0-.13.13V89.4Zm-7.6-5.28v-1h3V82h1v1.14h3v1H18.67a6,6,0,0,0,3.19,4.21L21,89l-.15-.1a8.24,8.24,0,0,1-2.72-3.2l-.08.2a6.63,6.63,0,0,1-3,3.14l-.74-.8a5.2,5.2,0,0,0,3.22-4.15Z"/><path class="cls-1" d="M35.14,88.45H32.29l.15.21a3.12,3.12,0,0,0,1,.92,2.22,2.22,0,0,0,1.08.4.43.43,0,0,0,.35-.14,3.11,3.11,0,0,0,.23-1.3l1,.31a4.13,4.13,0,0,1-.52,1.88.81.81,0,0,1-.71.33,3.5,3.5,0,0,1-1.66-.48,4.2,4.2,0,0,1-1.47-1.24,7.19,7.19,0,0,1-.95-2.22,27.46,27.46,0,0,1-.39-5.65c0-.13-.06-.18-.14-.17H26.6a.11.11,0,0,0-.12.13v3.08c0,1.71-.05,3-.13,4A17.67,17.67,0,0,1,25.89,91l-.95-.27c.19-.78.37-1.64.5-2.56a29.46,29.46,0,0,0,.12-3V80.63c0-.16.07-.24.23-.24h5.26q.28,0,.3.36v2.12l.57-.05a20.63,20.63,0,0,0,1-2.75l.87.27A16.86,16.86,0,0,1,33,82.67l1.66-.2-.49-1.11.88-.3A22.62,22.62,0,0,1,36.1,83.8l-.87.25L35,83.29l-3.34.46L31.36,83a14.08,14.08,0,0,0,.75,5.13V84.4a.12.12,0,0,1,.13-.13h2.9c.1,0,.15,0,.15.13v3.91C35.29,88.4,35.24,88.45,35.14,88.45Zm-8.49,2-.18-1,1.66-.18V88H27c-.09,0-.12,0-.12-.13v-4.3c0-.08,0-.12.12-.12h1.14V82.8l-1.19,0-.07-.9a18.21,18.21,0,0,0,3.07-.32l.13.9-1.11.2v.74h1.13c.09,0,.13,0,.13.12v4.3a.12.12,0,0,1-.13.13H29v1.24l.89-.1-.31-.6.84-.36a18.35,18.35,0,0,1,1.09,2.37l-.86.3-.34-.82Zm1.48-6.21h-.4l0,0v2.82l0,0h.4Zm.83,2.9h.39s0,0,0,0V84.32l0,0H29Zm4.11-2.06s0,0,0,0v2.37l0,0h1.24l0,0V85.17l0,0Z"/><path class="cls-1" d="M39.16,81.47v4.78a10.67,10.67,0,0,1-.83,4.64l-.89-.56a10.11,10.11,0,0,0,.74-4.43V80.57c0-.17.09-.25.26-.25h8.2c.19,0,.29.1.29.31A39.77,39.77,0,0,0,47.39,89c.06.2.12.3.17.31s.11-.07.12-.2l0-.94,1,0a5.47,5.47,0,0,1-.41,2.26.8.8,0,0,1-.6.42c-.3,0-.56-.24-.78-.73a8.42,8.42,0,0,1-.64-2.76C46.06,86,46,84,46,81.47c0-.13-.06-.2-.18-.2h-6.5A.18.18,0,0,0,39.16,81.47Zm0,9.37-.18-1,3.09-.34V87.85H39.88c-.1,0-.15,0-.15-.14V84.1c0-.1.05-.14.15-.14h2.19V83l-2.4.06-.12-1a32.28,32.28,0,0,0,5.81-.41l.14.94a17.56,17.56,0,0,1-2.3.28L43,83v1h2.21a.12.12,0,0,1,.14.14v3.61a.13.13,0,0,1-.14.14H43v1.57l1.75-.19-.45-.77.9-.43a21.61,21.61,0,0,1,1.38,2.56l-.93.39-.38-.81Zm2.91-5.93H40.74l0,0v1.9l0,.05h1.33Zm1,2h1.33s.05,0,.05-.05V85l-.05,0H43Z"/><path class="cls-1" d="M55.93,83.44a18.66,18.66,0,0,1-1.28,3.87,8,8,0,0,1-3.56,3.39L50.16,90c.47-.2.9-.41,1.28-.61A7,7,0,0,0,54,86.69a24.45,24.45,0,0,0-2.43-1.87,6.75,6.75,0,0,1-.75.9l-.93-.54a5.48,5.48,0,0,0,1.23-1.91,11.28,11.28,0,0,0,.57-2.91l1,.14,0,.41h3.3a.43.43,0,0,1,.27.07h0v0a.19.19,0,0,1,.06.18v.06a9.25,9.25,0,0,0,1.43,3.31V80.15h1V85.7a12.79,12.79,0,0,0,2.43,1.47l-.78.83c-.65-.37-1.19-.73-1.65-1v4h-1V86.06A8.83,8.83,0,0,1,55.93,83.44ZM54.41,85.7a18.36,18.36,0,0,0,.85-3.47c0-.17,0-.26-.16-.26H52.49A8.42,8.42,0,0,1,52,83.9l1.07.77Z"/><path class="cls-1" d="M63.81,90.92h-1V80.76c0-.22.11-.32.33-.32H72.7c.23,0,.34.1.34.32V90.92h-1v-.47H63.81Zm5.32-2.67h2.43v.81H69.13v.47h2.94V81.47a.12.12,0,0,0-.14-.13H67.88l-.12.45h2.82a.19.19,0,0,1,.21.21v1.11h.82v.81H64.39v-.81h2.07l.15-.54H65.1v-.78h1.71l.12-.45H64q-.16,0-.15.15v8H68.2v-.47H64.34v-.81h1l.16-.52h-.89v-.81H68.2v-.49H64.79c-.09,0-.12-.05-.12-.13V84.49c0-.09,0-.12.12-.12h6.34c.08,0,.13,0,.13.12V86.3a.12.12,0,0,1-.13.13h-2v.49h2.3v.81h-2.3Zm-3.55-3.12s0,0,0,0v.43l0,.05h4.76l0-.05v-.43l0,0Zm2.62,2.6H66.42l-.16.52H68.2Zm1.72-4.62v-.44c0-.07,0-.1-.11-.1H67.56l-.12.54Z"/><path class="cls-1" d="M76,85.27H75v-1h1V81.56H75v-1h3.1v1H77v2.76h1v1H77v2.8l1-.51.52.81a17,17,0,0,1-3.19,1.33l-.47-.91L76,88.44Zm8.89,2.1.54.74a11.22,11.22,0,0,1-1.51,1,6.51,6.51,0,0,0,2,1.11l-.69.82a5,5,0,0,1-3.45-3.91H81.7L81,88v1.89l1.39-.26.19.93a20.62,20.62,0,0,1-3.88.5l-.18-1L80,90V88.71a8.4,8.4,0,0,1-1.67.87l-.48-.83a6.71,6.71,0,0,0,2.59-1.57H79.1a.11.11,0,0,1-.12-.12V84.92a.11.11,0,0,1,.12-.12h6c.09,0,.13,0,.13.12v2.14a.11.11,0,0,1-.13.12H82.81a3.66,3.66,0,0,0,.51,1.28A15.42,15.42,0,0,0,84.92,87.37Zm.85-3.92v.86H78.41v-.86Zm-.36-.52H78.78c-.09,0-.12,0-.12-.13V80.53c0-.08,0-.11.12-.11h6.63c.07,0,.12,0,.12.11V82.8A.11.11,0,0,1,85.41,82.93Zm-4.69-1.75h-1.1s-.05,0,0,0v.9l0,0h1.1Zm-.78,4.44s0,0,0,0v.67l0,.05h4.34l0-.05v-.67l0,0Zm2.75-4.44H81.55v1h1.14Zm.82,1h1l0,0v-.9l0,0h-1Z"/><path class="cls-1" d="M87.78,83.17a11,11,0,0,1,1.93,1.2l-.58.83A11.23,11.23,0,0,0,87.25,84ZM90,86.31a10.61,10.61,0,0,1-1.71,4.39l-1-.39A9.3,9.3,0,0,0,89,86.14Zm-2-6A12.32,12.32,0,0,1,90,81.66l-.6.84a13.14,13.14,0,0,0-2-1.33Zm6.36,5v5.39h-1V85.4l-1.19.09v1.13a5.39,5.39,0,0,1-2,4.31l-.79-.68a4.21,4.21,0,0,0,1.82-3.71v-1l-1,.05-.26-1,1.36-.06a21.39,21.39,0,0,0,1.67-2.41H90.41v-1h3.2v-1h1v1h3.51v1h-4a25.5,25.5,0,0,1-1.52,2.32l3.88-.25-.7-1,.86-.52c.79,1.13,1.41,2.09,1.85,2.87l-.9.46-.52-.91-.5,0v4.36c0,.2.09.32.32.33h.38s.09-.09.13-.28l.13-1.27,1,.31c-.06,1.18-.21,1.88-.45,2a1.08,1.08,0,0,1-.64.2H96a.45.45,0,0,1-.5-.49V85.25Z"/><path class="cls-1" d="M102.12,88.93a6.88,6.88,0,0,1-1.87,1.76,3.46,3.46,0,0,0-.49-.82,4.51,4.51,0,0,0,1.53-1.54Zm.71-5.2h-2.26c-.08,0-.12,0-.12-.11V80.46a.11.11,0,0,1,.12-.12H106c.08,0,.13,0,.13.12v3.16c0,.07,0,.11-.13.11H103.8v.57h3v.9H99.86v-.9h3ZM100.52,88c-.08,0-.12-.05-.12-.13V85.82c0-.09,0-.12.12-.12h5.56c.08,0,.13,0,.13.12v2.09a.12.12,0,0,1-.13.13h-2.2v1.88a1.09,1.09,0,0,1-.51,1,2.84,2.84,0,0,1-1.73,0v-1c.63.18,1,.23,1.17.12a.43.43,0,0,0,.1-.32V88Zm.84-1.57s0,0,0,0v.71l0,0h3.88l.05,0v-.71l-.05,0Zm3.88-4.8v-.48l0,0h-3.78s0,0,0,0v.48Zm-3.86.73v.47l0,0h3.78l0,0V82.4Zm3.94,6a10.14,10.14,0,0,1,.94,1.55l-.83.45a8.35,8.35,0,0,0-.91-1.51Zm5.67-1.1a9.17,9.17,0,0,1-.94,1.52A8,8,0,0,1,106.64,91l-.59-.84A10.06,10.06,0,0,0,108.44,89a8.2,8.2,0,0,0,1.65-2.17Zm-.06-3.37A9.55,9.55,0,0,1,107.18,87l-.56-.87a8,8,0,0,0,3.49-2.83Zm-.37-3.22a8,8,0,0,1-3.25,2.6l-.54-.87a6.51,6.51,0,0,0,3-2.31Z"/><path class="cls-1" d="M112.34,84.44a3.3,3.3,0,0,0-.16-.81l.56,0,.73-.74a5.82,5.82,0,0,0-1.26-.87l.39-.73.3.19a13.41,13.41,0,0,0,.86-1.39l.68.46a12.12,12.12,0,0,1-.92,1.36l.44.35a5.44,5.44,0,0,0,.55-1l.77.34a6.82,6.82,0,0,1-1.43,1.92l.6-.06.32-.61.72.3-.23.51a5.07,5.07,0,0,1-2.4,2.19l-.53-.65a6.75,6.75,0,0,0,1.4-.84Zm2.89,2h-1.87v-.73h3.9v-.44h-1.38c-.24,0-.37-.13-.36-.36V83.29h.79v.29a25.74,25.74,0,0,0,2.7-.21l.1.67a19.52,19.52,0,0,1-2.8.21v.07c0,.14.06.22.22.24h2.66s.06-.06.09-.19l.08-.73.68.25a2.28,2.28,0,0,1-.31,1.21.87.87,0,0,1-.44.13h-1.06v.44h4.14v.73h-2l-.31.57h3.15v.81H112.38V87h3.17ZM114.5,91h-.92V88.43a.24.24,0,0,1,.26-.27h7.93a.25.25,0,0,1,.28.27V91h-.93v-.32H114.5Zm6.62-1.84v-.23c0-.08,0-.12-.13-.12h-6.37c-.08,0-.13,0-.12.12v.23Zm-6.62.59V90h6.62v-.3Zm5.27-6.61h-4.15a.09.09,0,0,1-.1-.1V80.87a.09.09,0,0,1,.1-.09H117c.15-.28.27-.52.34-.69l.75.33-.14.36h1.87a.08.08,0,0,1,.09.09V83C119.86,83.09,119.84,83.12,119.77,83.12ZM119.06,87l.38-.57h-3.22l.27.57Zm0-5.27v-.3l0,0h-2.71l0,0v.3Zm-2.77.49v.3l0,0h2.71l0,0v-.3Zm4.87-1a.11.11,0,0,0-.12.12v4.06h-.82V80.53c0-.09,0-.14.13-.14h2.19l.54.46-.53,1.37a.4.4,0,0,0,0,.29,3.08,3.08,0,0,1,.47.67,1.68,1.68,0,0,1,0,1.27.93.93,0,0,1-.37.41,1.92,1.92,0,0,1-1.36,0V84a1.29,1.29,0,0,0,.88.17c.43-.18.37-.6-.19-1.25-.23-.27-.34-.48-.32-.65l.41-1.06Z"/><path class="cls-1" d="M129.36,84v6.66h-1V84h-1.85c-.06,0-.08,0-.08.08v6.8h-1V83.32c0-.23.12-.35.37-.35h3l.76-1.48h-4.61v-1h10.65v1h-4.88L130,83h4.77a.32.32,0,0,1,.37.35v6.35a1.11,1.11,0,0,1-.48,1,2.92,2.92,0,0,1-1.93.12l-.1-1.12c.65.19,1.07.24,1.22.13a.53.53,0,0,0,.27-.46V84.05c0-.06,0-.08-.09-.08h-1.84v6.66h-1V84Z"/><path class="cls-1" d="M140.76,91h-1V84.6l-.29.22a14.77,14.77,0,0,1-1.68,1l-.66-.88a12.31,12.31,0,0,0,4-3h-3.79V81h4.51l.57-.92.91.55-.23.37h5.08v1H142.4a12.19,12.19,0,0,1-1.25,1.43H147c.18,0,.26.08.26.25v6.15a1.07,1.07,0,0,1-.48.93,4.08,4.08,0,0,1-2.85.05V89.64c1.08.32,1.77.38,2,.2a.53.53,0,0,0,.27-.46v-.63h-5.44Zm5.44-5.37V84.46c0-.06,0-.08-.09-.08h-5.28c-.06,0-.07,0-.07.08v1.12Zm0,2.17V86.58h-5.44v1.17Z"/><path class="cls-1" d="M155.31,91l-.8-.62a16.22,16.22,0,0,0,2.7-2.57,12.62,12.62,0,0,1-1.19-2.6,8.54,8.54,0,0,1-.72,1.11l-.81-.38v1.68c0,.1-.05.14-.15.14h-1.63v.73h2.1v.91h-2.1V91h-.94v-1.6h-2v-.91h2V87.8h-1.64c-.08,0-.13,0-.13-.14v-5a.12.12,0,0,1,.13-.12h1.64v-.82h-1.84v-.91h1.84v-.8h.94v.8h1.82v.91h-1.82v.82h1.63c.1,0,.15,0,.15.12v3a8.29,8.29,0,0,0,1.61-3.39l.9.2a14,14,0,0,1-.4,1.39A15.78,15.78,0,0,0,157.75,87a6.22,6.22,0,0,0,.53-1.12c.19-.63.38-1.36.56-2.21l-.51-1,.86-.35A34.3,34.3,0,0,1,160.83,86l-.85.29-.49-1.22a9.52,9.52,0,0,1-1.19,2.81,15,15,0,0,0,2.48,2.55l-.87.58a14.71,14.71,0,0,1-2.16-2.38A14.24,14.24,0,0,1,155.31,91Zm-3.54-7.6H151s-.05,0,0,0v1.31h.85Zm0,2.2h-.85V86.9l0,0h.81Zm.94-.86h.85V83.47l-.05,0h-.8Zm0,2.17h.8l.05,0V85.64h-.85Zm4.55-6.9h1v.85h2.25v.9h-5.4v-.9h2.13Z"/><path class="cls-1" d="M167.52,85.8a9.9,9.9,0,0,1-4.72,5l-.75-.85a8.22,8.22,0,0,0,5-6.38h-4.57v-1h4.68l0-.59V80.27h1.1V82l0,.59h4.66v1h-4.53a5,5,0,0,0,.25,1.23q.93,2.93,4.7,5.33l-.92.77-.66-.49a10.83,10.83,0,0,1-4-5.15Z"/><path class="cls-1" d="M176.27,83.44c-.06,0-.09,0-.09.08V90.9h-1V82.83c0-.23.11-.34.35-.34h4.15v-1h-4.85v-1h10.69v1h-4.83v1h4.09c.25,0,.37.11.37.34v6.89a1.13,1.13,0,0,1-.48,1q-.63.47-2.7.06l-.06-1.13c1,.31,1.71.36,1.95.2a.53.53,0,0,0,.27-.46V83.52c0-.06,0-.08-.09-.08h-3.35v7.23h-1V83.44Zm.9,3.1a20.66,20.66,0,0,1,2.13,1.95l-.73.64a18.56,18.56,0,0,0-2.11-1.88Zm.16-2.58,2.07,1.8-.73.68a12,12,0,0,0-2-1.75Zm4.31,2.7a26.16,26.16,0,0,1,2.25,1.88l-.7.7A15.71,15.71,0,0,0,181,87.42Zm.13-2.66a22.09,22.09,0,0,1,2.17,1.78l-.72.71a15.2,15.2,0,0,0-2.11-1.74Z"/><path class="cls-1" d="M189.39,82.77l-.08.32a2.57,2.57,0,0,1-1.84,1.3l-.41-.74.48-.12a2.19,2.19,0,0,0,1-.76h-1.25V82h2.21v-.57h-1.92v-.81h1.92v-.53h1v.53h1.85v.81h-1.85V82h2.14v.81h-1.37v.45c0,.15.07.24.24.25h.47s.06-.07.08-.21l.08-.43.72.29a2,2,0,0,1-.31.94.89.89,0,0,1-.48.13h-1.24c-.27,0-.4-.13-.39-.37v-1Zm-1.85,5.7v-.91h4.58l.32-.86,1,.33-.2.51h4l.19,0a.57.57,0,0,1,.16.47l-.06,1.54a1.37,1.37,0,0,1-.41,1,1.57,1.57,0,0,1-.85.4,6.14,6.14,0,0,1-2.84-.28l.05-1.06a4.1,4.1,0,0,0,2.85.28.54.54,0,0,0,.29-.44,2.23,2.23,0,0,0,0-.94.14.14,0,0,0-.12-.06h-3.69c-.84,1.48-2.63,2.29-5.34,2.44l-.31-1,1.51-.1a4.48,4.48,0,0,0,3-1.35Zm1.81-3h-1.88v-.83h1.88v-.75h1v.75h1.94v.83h-1.94v.58l1.83-.11,0,.84-4.77.26-.12-.84,2-.11Zm3.83,1.17-.72-.54a3.72,3.72,0,0,0,1.28-1.7l-.87-.91.66-.58.49.49a7.57,7.57,0,0,0,.14-1.5h-1.32v-.86h1.33v-1h.88v1h1.35a.22.22,0,0,1,.27.24,20.19,20.19,0,0,0,.35,4.35c0,.2.11.31.16.32s.06-.06.09-.18a5.66,5.66,0,0,0,.12-1.29l.83.12a7.64,7.64,0,0,1-.24,1.8,2,2,0,0,1-.31.58.75.75,0,0,1-.49.22.83.83,0,0,1-.6-.37c-.51-.71-.77-2.31-.77-4.8,0-.08,0-.13-.11-.13H195a9.58,9.58,0,0,1-.32,2.28c.37.44.74.93,1.13,1.49l-.7.54-.8-1.06A5.06,5.06,0,0,1,193.18,86.66Z"/><path class="cls-1" d="M205.11,87a1.44,1.44,0,0,1-1-.45,1.38,1.38,0,0,1,0-2,1.39,1.39,0,0,1,1-.44,1.41,1.41,0,0,1,1,.45,1.29,1.29,0,0,1,.45,1,1.37,1.37,0,0,1-.45,1A1.43,1.43,0,0,1,205.11,87Zm.77-.72a1,1,0,0,0,.28-.72.94.94,0,0,0-.32-.73,1,1,0,0,0-.73-.29,1,1,0,0,0-1,1,1,1,0,0,0,.3.72,1,1,0,0,0,.74.3A1.12,1.12,0,0,0,205.88,86.3Z"/><path class="cls-1" d="M218.11,88h2.65v1h-2.65v1.93h-1.06V89h-2.72V88h2.72V84a16.91,16.91,0,0,1-4.31,4.46l-.81-.74a16.56,16.56,0,0,0,4.84-5.1h-4.5v-1h4.78V80.15h1.06v1.44h4.71v1h-4.46a14.78,14.78,0,0,0,4.81,5.11l-.92.68a19.46,19.46,0,0,1-4.14-4.4Z"/><path class="cls-1" d="M224.59,82.47v-1h4.93V80.15h1.06v1.28h4.85v1h-1.81a11.1,11.1,0,0,1-2.88,5.22,14,14,0,0,0,4.86,2.38l-.69.92A14.61,14.61,0,0,1,230,88.36l-1.2.86a18.74,18.74,0,0,1-3.6,1.77l-.65-.92a15.1,15.1,0,0,0,4.69-2.42,10.26,10.26,0,0,1-2.63-5.18ZM230,87l.26-.27a9,9,0,0,0,2.29-4.3h-4.89a10.16,10.16,0,0,0,.83,2.45A7.42,7.42,0,0,0,230,87Z"/><path class="cls-1" d="M242,86.6h-4.22v-1H242V83h-4.5v-1h4.57a8.31,8.31,0,0,0-1-1.15l.81-.71a9.84,9.84,0,0,1,1.37,1.57l-.37.29h4.65v1H243v2.59h4.2v1H243v2.91h4.86v1H237.11v-1H242Z"/><path class="cls-1" d="M256.51,89.29l3.92.77L260,91l-4.65-1a12.51,12.51,0,0,1-5.48,1l-.25-1a13,13,0,0,0,4-.33l-2.48-.56-.13-.5,1.38-1.2h-2.82v-1h3.76l.68-.86h-3.81c-.09,0-.14-.05-.14-.15V82.44a.12.12,0,0,1,.14-.14H253v-.84h-3.26v-.95h10.51v.95H256.9v.84h2.85c.1,0,.15,0,.15.14v2.92a.13.13,0,0,1-.15.15h-4.57l-.71.86h6v1h-2A13.52,13.52,0,0,1,256.51,89.29Zm-3.53-6h-1.9s-.05,0,0,0v1.2s0,0,0,.06H253Zm.58,4.12-.91.92c-.11.1-.09.18.07.24l2.42.49a7.69,7.69,0,0,0,2-1.65Zm2.32-5.91H254v.84h1.89Zm0,1.79H254v1.31h1.89Zm1,1.31h1.93l.05-.06V83.3s0,0-.05,0H256.9Z"/><path class="cls-1" d="M262.09,86.12a4.56,4.56,0,0,0-.24-.93l.95-.1a13.48,13.48,0,0,0,1-1.12,9.54,9.54,0,0,0-2-1.33l.44-.87a2.41,2.41,0,0,1,.55.3c.33-.58.66-1.24,1-1.94l.85.47a16.64,16.64,0,0,1-1.09,2l.8.61a9.48,9.48,0,0,0,1.15-2.42l.94.29a11.24,11.24,0,0,1-2.35,3.83l1.73-.24-.36-.88.91-.29c.49,1.23.8,2.09.92,2.54l-.93.23-.21-.66-1.11.16V91h-1v-5.1Zm1.27.61a18,18,0,0,1-.56,3.59l-1-.1a19.23,19.23,0,0,0,.56-3.56Zm3.65,3-1,.17-.47-3.11.92-.22Zm4.39-8.15c0-.09,0-.14-.16-.14h-3.75v-1h4.62c.2,0,.31.09.31.28v4.67h-1v-.15h-2.8c-.06,0-.08,0-.08.08v3.9a.75.75,0,0,0,.12.48.73.73,0,0,0,.52.21h2a.66.66,0,0,0,.42-.15,1.05,1.05,0,0,0,.28-.33,7.4,7.4,0,0,0,.09-1.79l1,.18a6.4,6.4,0,0,1-.18,2.24,1.64,1.64,0,0,1-.5.66,1.41,1.41,0,0,1-.78.19H269a1.58,1.58,0,0,1-1.2-.42,1.24,1.24,0,0,1-.34-.91V84.46c0-.15.07-.22.23-.22h3.67Z"/><path class="cls-1" d="M275.2,82.77l-.84-.62a6,6,0,0,0,2.3-1.84l.92.08-.08.18a16.58,16.58,0,0,0,1.68,1.15l-.72.74a12.57,12.57,0,0,1-1.41-1.2A8.2,8.2,0,0,1,275.2,82.77Zm-.53,8-.17-.93,1.7-.36V85.85h-1.54V85h1.54V83.78H275v-.91h3.47v.91h-1.33V85h1.38v.9h-1.38v3.38l1.28-.39.21.82a7.43,7.43,0,0,0,1.85-2.12l.85.5a8.31,8.31,0,0,1-2.52,2.68l-.72-.68.3-.19Zm.87-4.37a19,19,0,0,1,.28,2.56h-.91a13.83,13.83,0,0,0-.28-2.48Zm3.25.23-.43,1.74-.83-.28.41-1.67Zm3.82,3.26a1.08,1.08,0,0,1-.52,1,2.63,2.63,0,0,1-1.87,0v-1l.64.17a.81.81,0,0,0,.67-.05.4.4,0,0,0,.11-.32V84.79H279v-.9H283l.21-.79h-3.42c-.25,0-.34-.12-.31-.37l.61-2.19a.29.29,0,0,1,.33-.2h4.07c.26,0,.36.12.3.36l-.82,3.19h1.42v.9h-2.66a9.8,9.8,0,0,0,.82,2.58,10.75,10.75,0,0,0,2,2.6l-.92.5a13.14,13.14,0,0,1-1.89-2.72l-.1-.21Zm-2.83-4.7a13.89,13.89,0,0,1,1.15,1.41l-.76.49A10,10,0,0,0,279,85.77Zm3.64-3,.24-.93h-2.83l-.25.93Zm2,3.57a9.47,9.47,0,0,1-1.1,1.41l-.73-.59a7.62,7.62,0,0,0,1.06-1.37Z"/><path class="cls-1" d="M1,105.9V105H5.12v-.54h-4c-.09,0-.13,0-.13-.15V102.2c0-.08,0-.12.13-.12h4v-.59H.17v-.91h5v-.53h1v.53H11v.91H6.13v.59h3.94c.09,0,.14,0,.14.12v2.11c0,.1-.05.15-.14.15H6.13V105H9.85c.21,0,.31.1.31.29v1.31h1v.91h-1v1.25a.27.27,0,0,1-.31.31H6.13v.78a1.17,1.17,0,0,1-.53,1A3.94,3.94,0,0,1,3,110.8l0-1c1.11.32,1.78.37,2,.18a.46.46,0,0,0,.11-.35v-.51h-4v-.91h4v-.65h-5v-.91h5v-.7Zm4.09-3H2.05s0,0,0,0v.56s0,0,0,.06H5.12Zm1,.66h3l0-.06V103s0,0,0,0h-3Zm0,3h3V106s0-.08-.09-.08H6.13Zm0,1.56H9.05a.08.08,0,0,0,.09-.09v-.56h-3Z"/><path class="cls-1" d="M13.18,105.56l-1-.4a11.48,11.48,0,0,0,2-5l1,.16a16.12,16.12,0,0,1-.68,2.61v8h-1v-5.86Zm2.23,1.72v-1H19v-3.23H17a7.81,7.81,0,0,1-1.14,2l-.9-.54a8.29,8.29,0,0,0,1.12-1.86,8.55,8.55,0,0,0,.43-2.31l1,.06a12.21,12.21,0,0,1-.22,1.62H19v-2h1.06v2H23v1H20.08v3.23h3.27v1H20.08V111H19v-3.68Z"/><path class="cls-1" d="M25.93,110.87h-1V101.8c0-.11.05-.16.17-.16h1.24l.52-1.54.95.34-.41,1.2h1.79c.16,0,.23.06.23.2v9h-1v-.53H25.93Zm2.45-5.32v-2.78c0-.09-.05-.13-.16-.13H26.08c-.11,0-.16,0-.15.13v2.78Zm-2.45,1v2.79h2.45v-2.79Zm4.52-2.4-1-.33a8,8,0,0,0,1.18-3.61l1,.09-.14,1h3.4l.21,0c.11.06.17.25.17.53,0,1.74,0,3.26-.08,4.61-.06,2.22-.51,3.6-1.35,4.11-.53.36-1.6.3-3.18-.16v-1.17c1.34.46,2.22.57,2.59.34a2,2,0,0,0,.65-.9,8.51,8.51,0,0,0,.3-2.37,25.64,25.64,0,0,0,0-3.94.13.13,0,0,0-.12-.09H31.26A7.16,7.16,0,0,1,30.45,104.15Zm1.5-.32a37.51,37.51,0,0,1,1.41,3.85l-1,.26A20.2,20.2,0,0,0,31,104.15Z"/><path class="cls-1" d="M38.39,108.5l-.9-.23.36-2.54q.06-.33.36-.3h2.5v-.82c0-.07,0-.11-.12-.11H38.12V104l-1,.24-.41-.86a15.65,15.65,0,0,0,1.85-.41,10.43,10.43,0,0,0-1.17-.83l.61-.74c.57.38,1.08.76,1.53,1.13a5.78,5.78,0,0,0,1.3-1.15c.07-.1,0-.14-.09-.13h-2v-.91h2.92l.54.45A5.34,5.34,0,0,1,39,103.63H41.4c.15,0,.24.07.24.22v2.71h-.93v-.27h-1.8a.21.21,0,0,0-.19.22l-.13.71h2.64c.22,0,.32.06.31.19,0,1.1-.07,1.94-.14,2.49a1.36,1.36,0,0,1-.46.73l-.15.13a4.2,4.2,0,0,1-2.87,0l-.09-1a4.43,4.43,0,0,0,2.14.31.94.94,0,0,0,.52-.43l.09-1.37a.14.14,0,0,0-.15-.17h-2Zm5.71,1.72a10.07,10.07,0,0,1-1.91.78l-.54-.92a10.46,10.46,0,0,0,1.83-.58A5.44,5.44,0,0,1,42.22,108l.87-.44a4.93,4.93,0,0,0,1.26,1.48A4.51,4.51,0,0,0,46,107.4c0-.12,0-.18-.18-.17H42.21v-.9h4.46l.53.5a5.53,5.53,0,0,1-1.26,2.08l-.72.62a7.31,7.31,0,0,0,2.59.47l-.27,1a6.64,6.64,0,0,1-3.21-.88Zm-.62-5.91v.3a1.63,1.63,0,0,1-.13.67,1.79,1.79,0,0,1-1,.94l-.56-.74a3.13,3.13,0,0,0,.51-.3,1.08,1.08,0,0,0,.34-.85v-.76l0-.14.14-.05h2.73l.15.05.06.14v1.25l.06.29a.45.45,0,0,0,.33.11h.12l.24-.06s.06-.08.06-.23l0-.51.83.13-.1.94a.52.52,0,0,1-.18.31.87.87,0,0,1-.58.24h-.82a1,1,0,0,1-.63-.24.77.77,0,0,1-.25-.6v-.87a.12.12,0,0,0-.13-.13H43.6C43.52,104.2,43.48,104.23,43.48,104.31ZM48,103.22l-.6.85a13.68,13.68,0,0,1-4.81-3l.52-.84.9.88a10.93,10.93,0,0,0,.95-1l.65.64-.9.93.62.42L46.34,101l.62.65-.62.64-.23.23A18.09,18.09,0,0,0,48,103.22Z"/><path class="cls-1" d="M58.93,107.22l.46.89a12,12,0,0,1-2,1,10,10,0,0,0,2.75.91l-.45,1-.1,0a7.4,7.4,0,0,1-5.33-4h-1v2.85c.79-.11,1.46-.23,2-.37l.25,1a23,23,0,0,1-4.64.55l0-1L52.2,110v-3H50.83a9.2,9.2,0,0,1-.9,3.73l-1-.43a9.7,9.7,0,0,0,.9-4.33v-5.23a.32.32,0,0,1,.36-.35h9c.27,0,.39.13.39.36v2.1c0,.26-.12.37-.39.37H57.46v.93h2v1h-2v.94H60v1H55.36a5.39,5.39,0,0,0,1.06,1.4A16.06,16.06,0,0,0,58.93,107.22Zm-8.08-4.92h7.68a.14.14,0,0,0,.16-.15v-.62a.14.14,0,0,0-.16-.16H51a.14.14,0,0,0-.16.16ZM53,106.08v-.94h-1.7v-1H53v-.93H50.85v2.83Zm3.46-2.83H54v.93h2.49Zm0,2.83v-.94H54v.94Z"/><path class="cls-1" d="M72.14,101.3H63a.11.11,0,0,0-.12.12v4.78a13.1,13.1,0,0,1-.72,4.56l-.94-.3a14.15,14.15,0,0,0,.69-4.55v-5.25c0-.18.09-.26.27-.26h9.94Zm-7.86,6.79h1v1.73h1.84v-2.41h1v.75h3.26v.91H68.06v.75h4.28v.91H62.87v-.91h1.41Zm1.47-.58h-.93v-2.05a7.36,7.36,0,0,1-1,1.29L63,106.3a7.24,7.24,0,0,0,1.52-1.92H63.25v-.9h1.57v-.73l-1.22.06-.14-.9a17.62,17.62,0,0,0,3.32-.33l.15.9a8.58,8.58,0,0,1-1.18.18v.82h1.4v.9H66l1.31,1.16-.66.69-.89-.9Zm4.35,0h-.92v-2a9.93,9.93,0,0,1-1.4,1.52L67,106.4a9.85,9.85,0,0,0,2-2.11h-1.4v-.91h1.62v-.74l-1.28.09-.14-.91a21.15,21.15,0,0,0,3.47-.38l.16.9-1.29.22v.82H72v.91H70.35a7.79,7.79,0,0,0,2,2.08l-.82.57a10.21,10.21,0,0,1-1.46-1.54Z"/><path class="cls-1" d="M76.27,111h-1v-4.76a9.78,9.78,0,0,1-1,1.93l-.93-.27a11.31,11.31,0,0,0,1.65-3.68H73.66v-1H75.3v-1.65l-1.4.18-.23-1a21,21,0,0,0,3.73-.64l.23.93-1.36.32v1.81h1.38v1H76.27v.26a21.69,21.69,0,0,1,1.64,1.93l-.76.6-.88-1.23Zm4.32-2.78h-3v-1h3v-1.51l-2.47.08-.18-1a23.36,23.36,0,0,0,6.19-.53l.27,1a21.19,21.19,0,0,1-2.83.4v1.59H84.5v1H81.57v1.58H84.4v1H77.69v-1h2.9ZM84,103.83H78.31a.12.12,0,0,1-.13-.14v-3.16a.12.12,0,0,1,.13-.13H84a.12.12,0,0,1,.13.13v3.16A.12.12,0,0,1,84,103.83Zm-4.89-2.53,0,0v1.54l0,.05h4s0,0,0-.05v-1.54l0,0Z"/><path class="cls-1" d="M95.18,105.81H93.49v-.91h1.69v-1.26H93.49v-.9h1.69v-1.21a.12.12,0,0,0-.13-.13h-1.6v-.91h2.46a.21.21,0,0,1,.24.24V107h.67v1H85.72v-1h.79v-6.11c0-.13.06-.22.24-.23a7.31,7.31,0,0,0,2.17-.39l.45.86a9.29,9.29,0,0,1-1.82.37c-.06,0-.08,0-.07.1v1.19h1.71v.91H87.48v1.16h1.71v.91H87.48V107H89.8v-2.76h.94V107h1.15v-3.22a.13.13,0,0,0-.15-.15H90c-.17,0-.24-.07-.24-.25v-3.28h1V101H92.8v.9H90.72v.79c0,.11,0,.17.14.17h1.75c.18,0,.25.08.25.24v4h2.32ZM90,109.14A11,11,0,0,1,86.2,111a3,3,0,0,0-.22-1,8.15,8.15,0,0,0,3.43-1.73Zm3-.8A19.13,19.13,0,0,1,96.8,110l-.47.92a21,21,0,0,0-3.74-1.69Z"/><path class="cls-1" d="M99.32,111h-1V100.51l0-.1.11,0h2.77l.72.47-1,2.92c-.07.19-.07.33,0,.39a5.23,5.23,0,0,1,.84,1.67,2.41,2.41,0,0,1-.17,2,1.38,1.38,0,0,1-.64.5,2.79,2.79,0,0,1-1.59,0Zm.09-9.63-.06,0,0,.06v5.83a1.46,1.46,0,0,0,1.08.2.45.45,0,0,0,.3-.22,1.34,1.34,0,0,0,.13-.59,5.72,5.72,0,0,0-1.08-2.52v-.06l0-.07.87-2.44c.06-.16,0-.23-.16-.21Zm1.77,8.07v-1h1.67v-1.72h-.64v-1h3.31v-.8h1v.8h2.1v1h-2.1v1.72h2.57v1h-2.57V111h-1v-1.6Zm2.22-7.33a7.73,7.73,0,0,1-1.23.82l-.5-.82a5.25,5.25,0,0,0,1.19-.74,7.08,7.08,0,0,0,1-1.29l1,.17-.12.21h3.08l.72.55a7.38,7.38,0,0,1-1.38,1.87l-.84.71a9.81,9.81,0,0,0,2.81.74l-.35.95a7.87,7.87,0,0,1-3.22-1.09l-.09-.05-.21.08a17.92,17.92,0,0,1-3,1.18l-.46-.88a28.25,28.25,0,0,0,2.83-1A7.12,7.12,0,0,1,103.4,102.07Zm2.12,4.61h-1.65v1.72h1.65Zm-1.42-5.31a4.16,4.16,0,0,0,1.33,1.63,7.8,7.8,0,0,0,1.62-1.53c0-.06,0-.1,0-.1Z"/><path class="cls-1" d="M111.88,103.44a.08.08,0,0,0-.09.09v7.37h-1v-8.07a.31.31,0,0,1,.35-.34h4.15v-1h-4.86v-1h10.7v1h-4.83v1h4.09c.25,0,.37.12.37.34v6.9a1.13,1.13,0,0,1-.48,1q-.63.47-2.7.06l-.06-1.13c1,.31,1.7.37,1.95.2a.54.54,0,0,0,.27-.46v-5.85c0-.06,0-.09-.1-.09h-3.34v7.24h-1v-7.24Zm.89,3.11a18.91,18.91,0,0,1,2.14,1.94l-.73.65a19.68,19.68,0,0,0-2.11-1.89Zm.17-2.59,2.06,1.8-.73.68a12.5,12.5,0,0,0-2-1.75Zm4.31,2.71a22.93,22.93,0,0,1,2.25,1.88l-.71.69a16.51,16.51,0,0,0-2.21-1.82Zm.13-2.66a20.76,20.76,0,0,1,2.17,1.77l-.72.71a16,16,0,0,0-2.11-1.74Z"/><path class="cls-1" d="M125.76,102a10.08,10.08,0,0,1-2.52,3.56l-.89-.64a8.64,8.64,0,0,0,2.42-3.33Zm6.2,5.12a7,7,0,0,1-.48,2.8,2,2,0,0,1-1,.83,5.49,5.49,0,0,1-3.28-.22l.07-1.14a4.79,4.79,0,0,0,2.71.36,1,1,0,0,0,.5-.4,3.34,3.34,0,0,0,.36-1.54,9.23,9.23,0,0,0,0-2.35l-.1,0h-2.91a9.16,9.16,0,0,1-.8,2.32,9.5,9.5,0,0,1-3.91,3.29l-.74-.84a9.68,9.68,0,0,0,1.88-1,5.42,5.42,0,0,0,2.51-3.72h-2.28v-1h7.13l.13,0a15.15,15.15,0,0,1-1.67-3,.17.17,0,0,0-.17-.11h-3.5v-1h4c.13,0,.21.08.29.21a11.35,11.35,0,0,0,3,4.29l-1,.61-.71-.75A21,21,0,0,1,132,107.07Z"/><path class="cls-1" d="M137.67,105.3c-.06,0-.08,0-.08.08v5.11h-1v-4.91l-1.21.84-.7-.8a12.07,12.07,0,0,0,4-3.48h-3.79v-1h4.41l.55-1.06.91.46-.33.6h5.25v1h-5.84A25.11,25.11,0,0,1,138,104.3h2.32v-1.59h1.06v1.59H145c.18,0,.27.08.27.26v4.81a1.07,1.07,0,0,1-.49.93,3.63,3.63,0,0,1-2.46.11l0-1.12a3,3,0,0,0,1.69.14.54.54,0,0,0,.28-.46v-3.59s0-.08-.1-.08H141.4V111h-1.06V105.3Z"/><path class="cls-1" d="M152.5,107a1.4,1.4,0,0,1-1-.45,1.38,1.38,0,0,1,0-2,1.42,1.42,0,0,1,1-.43,1.39,1.39,0,0,1,1,.44,1.29,1.29,0,0,1,.45,1A1.49,1.49,0,0,1,152.5,107Zm.77-.72a1,1,0,0,0,.28-.72,1,1,0,0,0-.31-.73,1.1,1.1,0,0,0-.74-.29,1,1,0,0,0-.74.29,1,1,0,0,0-.3.73,1,1,0,0,0,.3.72,1,1,0,0,0,.74.31A1.13,1.13,0,0,0,153.27,106.3Z"/></g></g></svg>