<svg xmlns="http://www.w3.org/2000/svg" viewBox="0 0 149.18 36.11"><defs><style>.cls-1{fill:#fff;}</style></defs><title>資產 1</title><g id="圖層_2" data-name="圖層 2"><g id="圖層_1-2" data-name="圖層 1"><path class="cls-1" d="M13.53,1.56V6H8.62v7.48h4.15V18H8.62v7.6c1.3-.28,2.55-.6,3.73-.92l.38,4c.45-1.44.8-2.84,1.1-4.24l3.69,1.24-.12.48,3.08-.8A40.64,40.64,0,0,1,22,32.19l-3.88,1.08a40.19,40.19,0,0,0-1-5.75,56.26,56.26,0,0,1-1.83,6.71l-3.72-2C12,31.11,12.35,30,12.65,29,9,30.11,5,31.15.76,32L0,27.36c1.52-.24,3-.52,4.33-.8V18H.61V13.44H4.33V6H.3V1.56Zm20,3.6H27.17V7h5.35v4.08H27.17v2h5.35V17.2H27.17v2.2h7.56c-.08,6.36-.5,11.15-1.29,14.35a3,3,0,0,1-1.6,1.72,7.89,7.89,0,0,1-3.19.64,21.57,21.57,0,0,1-3.27-.32L25,31.11a14.62,14.62,0,0,0,3.69.6,1.21,1.21,0,0,0,.8-.24c.22-.12.38-.48.53-1.12a2,2,0,0,1,.07-.43l-2.73.87a24.77,24.77,0,0,0-1.48-5.63l3.42-1.08a37,37,0,0,1,1.1,3.64c.11-1.32.19-2.68.23-4.12H14.4V1H33.55ZM23,5.16H18.58V7H23Zm0,6H18.58v2H23Zm0,6.08H18.58v2.2H23Zm3.42,13-3.72,1.24a29.63,29.63,0,0,0-1.33-5.75l3.42-1.08A29.32,29.32,0,0,1,26.44,30.15Z"/><path class="cls-1" d="M46.17.64c-.23,1.92-.5,3.76-.72,5.48h6.38a89.77,89.77,0,0,1-1.52,13.8c-.38,1.6-.72,3-1.1,4.24q1.93,1.92,3.65,3.84l-3,3.39c-.83-1-1.63-2-2.43-2.87l-.61,1a26.32,26.32,0,0,1-5.43,6.55l-2.36-3.44A20.52,20.52,0,0,0,43.51,27c.3-.48.61-1,.91-1.64l-1.86-1.72c-.15.64-.27,1.2-.38,1.68l-4-.92c1-4.4,1.9-9.08,2.62-14.08H38.15V6.12h3.19q.34-3,.69-6.12Zm.3,18.8a77.16,77.16,0,0,0,1.22-9.12H44.88c-.46,3.28-1,6.2-1.41,8.76.84.72,1.67,1.4,2.51,2.08C46.13,20.6,46.32,20,46.47,19.44Zm13.38,2.44v-4h4.44v4h6.54v4.4H64.29v4.51h8.17v4.36H51.83V30.79h8V26.28H53.62v-4.4Zm0-17.64V0h4.44V4.24h6.54V8.6H64.29v4.08H71.7V17H52.86V12.68h7V8.6h-6V4.24Z"/><path class="cls-1" d="M95.61.64V18.76a20.86,20.86,0,0,0,1.1,7.44,6.84,6.84,0,0,0,.68,1.32V15.32h11.7V28H97.73a7.52,7.52,0,0,0,2.43,2.23,8.56,8.56,0,0,0,4.64,1.48.92.92,0,0,0,.72-.32,8.22,8.22,0,0,0,.76-2.47l3.88,2c-.65,2.24-1.48,3.68-2.51,4.36a4.94,4.94,0,0,1-2.85.8,11.66,11.66,0,0,1-6.34-1.92,11.66,11.66,0,0,1-4.87-5.63A26.21,26.21,0,0,1,92,18.76V4.68H80.48V17.44c0,3.6-.19,7.08-.49,10.44a80.83,80.83,0,0,1-1.14,8.23l-3.12-2c.5-3.48.84-6.47,1-9,.19-3.12.3-6.24.3-9.4V.64H95.61ZM84.32,12.36V10.48a22.61,22.61,0,0,1-2.35.16L80.75,6.88A31.12,31.12,0,0,0,90,5.48l1.75,3.44a24.27,24.27,0,0,1-4,1v2.4h3.57v13H87.89v3.47l1.33-.23c-.19-.56-.38-1.12-.61-1.68l3-.92a38.72,38.72,0,0,1,2,7.15l-3.12,1.12c-.11-.76-.26-1.48-.42-2.2-2.73.72-5.73,1.36-8.92,1.88l-.73-4.08c1.41-.16,2.74-.31,4-.52v-4H81.05v-13Zm.61,9.36V16H84v5.76Zm2.51,0h.91V16h-.91Zm16.9-20.44q-1.08,4.2-2.16,7.56c.91-.12,1.78-.28,2.62-.44-.34-.92-.68-1.8-1-2.6l3.42-1.72A59.32,59.32,0,0,1,110.46,13l-3.87,1.68c-.19-.8-.38-1.56-.57-2.32-3,.8-6.16,1.48-9.54,2l-.72-4.72,2-.24c.84-3,1.59-6.16,2.24-9.44Zm.76,22.64V19.4h-3.72v4.52Z"/><path class="cls-1" d="M143.71.64q0,20,.84,27.48c.19,2,.45,3,.8,3V26.56l3.83,1.56a36.94,36.94,0,0,1-.87,5.11c-.53,1.68-1.52,2.56-3,2.56-1.6,0-2.78-1-3.54-2.92q-2.44-6.82-2.43-28H120.84V17.56a53.7,53.7,0,0,1-1,10.36,39.63,39.63,0,0,1-2.58,8.19l-3.84-2.36A55.35,55.35,0,0,0,116,24.8a64.56,64.56,0,0,0,.72-9.32V.64h27Zm-5.36,8.44c-1.89.4-4,.76-6.23,1v2.56h6.69V24.56h-6.69V28.2l2.74-.24c-.23-.48-.46-1-.65-1.4l3.38-1.72a45.41,45.41,0,0,1,3.27,7.83L137,34.39c-.26-1-.53-1.88-.79-2.72-4.64.72-9.73,1.28-15.24,1.76l-.76-4.35c2.81-.16,5.43-.32,7.87-.52v-4h-2.51v1.08h-4v-13h6.5V10.52c-1.71.16-3.5.24-5.32.28L121.6,6.88a63.5,63.5,0,0,0,14.66-1.72ZM128.1,20.48V16.72h-2.51v3.76Zm4,0h2.66V16.72h-2.66Z"/></g></g></svg>