<svg xmlns="http://www.w3.org/2000/svg" xmlns:xlink="http://www.w3.org/1999/xlink" viewBox="0 0 180.72 160.44"><defs><style>.cls-1{fill:#bf8f4c;}.cls-2{fill:#d5df74;}.cls-3{fill:#d9a156;}.cls-4{fill:url(#未命名漸層_11);}</style><linearGradient id="未命名漸層_11" x1="144.79" y1="47.25" x2="180.72" y2="47.25" gradientUnits="userSpaceOnUse"><stop offset="0" stop-color="#d9a156"/><stop offset="0.7" stop-color="#bf8f4c"/></linearGradient></defs><title>資產 20</title><g id="圖層_2" data-name="圖層 2"><g id="圖層_1-2" data-name="圖層 1"><path class="cls-1" d="M49.83,99l.11-37.68C50,53.14,55.34,45,66.1,38.72c21.64-12.58,56.84-12.58,78.8.1l-.11,37.67c-22-12.68-57.16-12.68-78.8-.1C55.24,82.64,49.86,90.82,49.83,99Z"/><polygon class="cls-2" points="119.31 122.3 119.21 159.97 112.92 131.09 113.02 93.41 119.31 122.3"/><path class="cls-1" d="M0,98.69.11,61A36.46,36.46,0,0,0,1,68.87C4,83,15.16,95.41,31.34,104.76c22.34,12.89,54.31,19.94,88,17.54l-.1,37.67c-33.67,2.4-65.64-4.64-88-17.54C15.05,133.09,3.92,120.68.84,106.55A36.62,36.62,0,0,1,0,98.69Z"/><path class="cls-3" d="M180.72,18,144.9,38.82c-22-12.68-57.16-12.68-78.8-.1s-21.53,33,.25,45.54C79.11,91.63,96.48,94.68,113,93.41l6.29,28.89c-33.66,2.4-65.63-4.65-88-17.54C15.16,95.41,4,83,1,68.87-6.37,35.24,34.76,4.62,92.81.49,125.9-1.87,157.07,4.35,180.72,18Z"/><polygon class="cls-4" points="180.72 18 180.61 55.67 144.79 76.49 144.9 38.82 180.72 18"/></g></g></svg>