<svg xmlns="http://www.w3.org/2000/svg" viewBox="0 0 65.04 55.55"><defs><style>.cls-1{font-size:9.8px;fill:#4e403c;font-family:DFHeiStd-W7-B5pc-H, DFHei Std;}.cls-2{fill:#82ad35;}.cls-10,.cls-11,.cls-2,.cls-3,.cls-4,.cls-5,.cls-6,.cls-7,.cls-8,.cls-9{fill-rule:evenodd;}.cls-3{fill:#a5c743;}.cls-4{fill:#60902f;}.cls-5{fill:#51792c;}.cls-6{fill:#8fb449;}.cls-7{fill:#b55f16;}.cls-8{fill:#f2b725;}.cls-9{fill:#f4a822;}.cls-10{fill:#e29220;}.cls-11{fill:#f5d972;}</style></defs><title>資產 27</title><g id="圖層_2" data-name="圖層 2"><g id="圖層_4" data-name="圖層 4"><text class="cls-1" transform="translate(0 8.43)">硬質玉米<tspan x="0" y="11.76">1,225萬</tspan></text><path class="cls-2" d="M34,50.45c6.85-7.13,16-11,20.47-8.68s3.33,6.19,2.42,7.82S54.91,52,55.8,53.12s1.91,2.36,1.91,2.36c-2.56-.14-6.59-4.38-4.85-7.29,1.2-2-7.28,1.15-11.53,2.29a13,13,0,0,1-7.37,0Z"/><path class="cls-3" d="M49.66,41.21a7.81,7.81,0,0,1,4.77.56c4.43,2.34,3.33,6.19,2.42,7.82S54.91,52,55.8,53.12s1.91,2.36,1.91,2.36c-2.55-.14-6.55-4.33-4.88-7.25.4,0,.45.14.42.46a4.11,4.11,0,0,0,.59,2.84,5.3,5.3,0,0,0,1.88,1.62,6.71,6.71,0,0,1-.88-2.35,5.31,5.31,0,0,1,.27-2.63,2.31,2.31,0,0,0,0-1.67s.5.44.14,2,0,2,0,2a11.28,11.28,0,0,0,1-3,3.85,3.85,0,0,0-1.08-3.76c-1-.77-5.79-2.36-5.79-2.36l.22-.25Z"/><path class="cls-4" d="M57.39,55.45c-3-.71-6.27-4.35-4.53-7.26,1.2-2-7.28,1.15-11.53,2.29a14.19,14.19,0,0,1-4.24.49c.58-.65,1.18-1.23,1.18-1.23,2.78-.84,12.62-4.22,14.83-2.37.49.41.32.9,0,2.08-.73,2.55,2.71,4.72,4.32,6Z"/><path class="cls-4" d="M43.72,47.17c.28-.3,9.43-2.1,10.72-.67.35.37.33.92-.07,1.88a3.55,3.55,0,0,0,.49,3.25A4.74,4.74,0,0,1,54.55,49c.3-.94,1-1.85.18-2.76-1.31-1.54-8.25-.22-10.16.17Z"/><path class="cls-4" d="M44.78,45.63s8.25-1,9.3-.71c2.7.63,1.23,2.86,1.32,4.42.52-1.94,1.43-4-1.24-4.86-1.3-.41-7-.18-7-.18Z"/><path class="cls-2" d="M33.77,53c-.16-.1-1-.05-1-1.11,0-.69.74-1.6.64-2.54-.11-1.24-.9-2.37-1.3-3.77-.95-3.34-1.94-7-2.73-8.16C27.7,34.84,27,34,24,35.51c0,0,2.47-5.57,6.87-3.44,4.69,2.27,7.32,19.28,2.87,21Z"/><path class="cls-3" d="M25.11,35a8.05,8.05,0,0,0-1.08.49s2.47-5.57,6.87-3.44c2.2,1.06,4,5.38,4.72,9.83-1.18-.65-2.68-2.9-3.24-4.38C31.43,35,31.81,35,31,34.05s-1.43-1.37-2.31-1.21a4.35,4.35,0,0,0-1.36.45,2.68,2.68,0,0,1,2.06.65,4.83,4.83,0,0,1,1.07,1.9,3,3,0,0,0-4.87-1.24,4.37,4.37,0,0,0-.44.42Z"/><path class="cls-4" d="M28.9,33.3a3.81,3.81,0,0,1,2.17,2.31,35,35,0,0,1,1.2,5.76l-.34-.7s-.7-6.36-3-7.37Z"/><path class="cls-4" d="M32.92,40.21c-.22-2.35-.62-6.18-3.12-7.29a4.31,4.31,0,0,1,1.72,2.75,44.33,44.33,0,0,1,.63,4.84Z"/><path class="cls-3" d="M43,30.92c2.86-4.69,10.76-15.28,13.58-19.25s2.73-6.74,3.06-1.55-1.37,13.94-6.11,25.13-8.37,12-10.87,13.56c-2,1.29-5.11,2.44-6.11,1.72a1.59,1.59,0,0,1-.65-1.12C35.6,47.57,43,30.92,43,30.92Z"/><path class="cls-5" d="M34.06,35.23a118.86,118.86,0,0,1,8-13.3c3.05-4.12,14.32-13.35,15.73-17C58.93,11.14,57,16,51.7,24c-3.58,5.41-12.43,25.34-16.11,25.43-.65,0-2.85-4.89-3.09-8.82-.16-2.72,1.52-4.7,1.56-5.4Z"/><path class="cls-6" d="M47.87,15.86c4.21-4.08,9.05-8.64,9.94-11C58.93,11.14,57,16,51.7,24c-.36.55-.78,1.25-1.24,2.07a8.83,8.83,0,0,1-.8.66c-2.55,1.87-3.5-6.19-1.79-10.89Z"/><path class="cls-3" d="M51.45,12.39c3-3,5.72-5.82,6.36-7.51a18.55,18.55,0,0,1,.29,4,9.35,9.35,0,0,0-.7-1.77,43.79,43.79,0,0,1-5.95,5.33Z"/><path class="cls-5" d="M65,16c-4.35.76-6.36,5.35-9.47,8.71S39.69,50.09,39.8,49.76a15,15,0,0,0,9.09-4.14c4.44-4.19,8.81-12.84,10-18.14,1.4-6.42,2.66-8.61,3.85-9.75A24.43,24.43,0,0,1,65,16Z"/><path class="cls-3" d="M65,16c-2.43.43-4.14,2.05-5.71,4,.73-.62,2.46-2.08,2.88-2.4a9.36,9.36,0,0,1,2.32-1.21L65,16Z"/><path class="cls-7" d="M49.49,41.33c2.33-4,12.27-25.91,6.79-29l0,0,0,0c-5.63-2.76-18,17.84-20,22.07-2.42,5.09-6,10.89.81,14.46l0,0,0,0c6.82,3.57,9.55-2.67,12.37-7.55Z"/><path class="cls-8" d="M34.17,46.13c.87.22,1.28.1,1.48-.1a1.77,1.77,0,0,0,.25-1.22c-.11-.22-.43-.46-1.2-.65s-1.16-.14-1.37,0a1.74,1.74,0,0,0-.39,1.18c.07.28.37.57,1.23.79Z"/><path class="cls-9" d="M34.17,46.13c.87.22,1.28.1,1.48-.1a1.77,1.77,0,0,0,.25-1.22c-.11-.21-.38-.42-1-.61h-.06c.7.4.77.63.71.94s-.32.81-1.24.58c-1.09-.28-.76-1.56.31-1.57h0a1.69,1.69,0,0,0-1.28,0,1.74,1.74,0,0,0-.39,1.18c.07.28.37.57,1.23.79Z"/><path class="cls-10" d="M34.17,46.13c.87.22,1.28.1,1.48-.1a1.77,1.77,0,0,0,.25-1.22.63.63,0,0,0-.17-.2c.42.71-.41,1.6-1.5,1.32A1,1,0,0,1,34,44a1.08,1.08,0,0,0-.7.12,1.74,1.74,0,0,0-.39,1.18c.07.28.37.57,1.23.79Z"/><path class="cls-8" d="M35.12,39.71c1,.33,1.5.22,1.76,0a2.11,2.11,0,0,0,.39-1.43c-.12-.27-.47-.58-1.37-.87a2.18,2.18,0,0,0-1.63-.11,2.14,2.14,0,0,0-.55,1.38c.06.34.39.71,1.4,1Z"/><path class="cls-11" d="M36.1,38c.34.11.56.39.48.62s-.42.32-.76.21-.56-.39-.48-.62.41-.32.76-.21Z"/><path class="cls-9" d="M35.12,39.71c1,.33,1.5.22,1.76,0a2.11,2.11,0,0,0,.39-1.43c-.11-.25-.42-.53-1.18-.8,0,0-.05,0-.07,0,.8.52.87.81.78,1.17s-.44,1-1.52.6c-1.28-.42-.78-1.92.49-1.85h0a2,2,0,0,0-1.52-.08,2.21,2.21,0,0,0-.56,1.38c.07.34.4.71,1.41,1Z"/><path class="cls-10" d="M35.12,39.71c1,.33,1.5.22,1.76,0a2.11,2.11,0,0,0,.39-1.43,1,1,0,0,0-.18-.25c.44.88-.61,1.88-1.89,1.46a1.18,1.18,0,0,1-.09-2.27,1.29,1.29,0,0,0-.84.08,2.21,2.21,0,0,0-.56,1.38c.07.34.4.71,1.41,1Z"/><path class="cls-8" d="M34.33,41.89c.92.24,1.36.11,1.57-.11a1.85,1.85,0,0,0,.27-1.29c-.12-.24-.45-.48-1.27-.69s-1.23-.15-1.45,0A1.91,1.91,0,0,0,33,41.06c.08.29.4.6,1.31.83Z"/><path class="cls-11" d="M35.11,40.3c.32.08.52.31.47.52s-.36.32-.67.23-.52-.31-.47-.52.36-.31.67-.23Z"/><path class="cls-9" d="M34.33,41.89c.92.24,1.36.11,1.57-.11a1.85,1.85,0,0,0,.27-1.29c-.11-.22-.41-.45-1.1-.64l-.06,0c.75.42.83.68.76,1s-.34.86-1.31.62c-1.17-.3-.82-1.66.32-1.67h0a1.79,1.79,0,0,0-1.35,0A1.91,1.91,0,0,0,33,41.06c.08.29.4.6,1.31.83Z"/><path class="cls-10" d="M34.33,41.89c.92.24,1.36.11,1.57-.11a1.85,1.85,0,0,0,.27-1.29,1,1,0,0,0-.17-.22c.44.76-.44,1.71-1.61,1.42a1.06,1.06,0,0,1-.21-2,1.09,1.09,0,0,0-.73.13A1.91,1.91,0,0,0,33,41.06c.08.29.4.6,1.31.83Z"/><path class="cls-8" d="M34.14,44.16c.87.22,1.28.1,1.48-.11a1.76,1.76,0,0,0,.25-1.22c-.11-.22-.43-.45-1.2-.65a1.82,1.82,0,0,0-1.36,0,1.74,1.74,0,0,0-.4,1.19c.07.27.37.57,1.23.79Z"/><path class="cls-11" d="M34.87,42.66c.3.07.49.29.44.49s-.33.29-.63.22-.49-.3-.44-.49a.49.49,0,0,1,.63-.22Z"/><path class="cls-9" d="M34.14,44.16c.87.22,1.28.1,1.48-.11a1.76,1.76,0,0,0,.25-1.22c-.11-.2-.38-.41-1-.6,0,0,0,0-.06,0,.7.39.78.63.72.93s-.33.82-1.24.58c-1.1-.27-.77-1.55.31-1.57h0a1.66,1.66,0,0,0-1.27,0,1.74,1.74,0,0,0-.4,1.19c.07.27.37.57,1.23.79Z"/><path class="cls-10" d="M34.14,44.16c.87.22,1.28.1,1.48-.11a1.76,1.76,0,0,0,.25-1.22.72.72,0,0,0-.17-.2c.42.72-.41,1.61-1.5,1.33a1,1,0,0,1-.2-1.9,1.1,1.1,0,0,0-.69.12,1.74,1.74,0,0,0-.4,1.19c.07.27.37.57,1.23.79Z"/><path class="cls-8" d="M42.64,31.31c.92.49,1.41.46,1.69.28a2,2,0,0,0,.6-1.33c-.06-.28-.36-.64-1.18-1.07s-1.28-.47-1.55-.37a2.12,2.12,0,0,0-.76,1.25c0,.34.27.76,1.2,1.24Z"/><path class="cls-11" d="M43.67,29.64c.32.16.48.47.37.68s-.45.25-.77.08-.48-.47-.37-.68.46-.25.77-.08Z"/><path class="cls-9" d="M42.64,31.31c.92.49,1.41.46,1.69.28a2,2,0,0,0,.6-1.33c-.06-.26-.32-.59-1-1,0,0,0,0-.05,0,.68.64.71.93.56,1.27s-.58.84-1.55.33c-1.18-.62-.47-2,.75-1.72h0c-.76-.38-1.19-.42-1.45-.32a2.12,2.12,0,0,0-.76,1.25c0,.34.27.76,1.2,1.24Z"/><path class="cls-10" d="M42.64,31.31c.92.49,1.41.46,1.69.28a2,2,0,0,0,.6-1.33A.64.64,0,0,0,44.8,30c.29.93-.88,1.73-2,1.12A1.17,1.17,0,0,1,43,28.87a1.33,1.33,0,0,0-.82-.05,2.12,2.12,0,0,0-.76,1.25c0,.34.27.76,1.2,1.24Z"/><path class="cls-8" d="M43.83,29.15c.87.47,1.34.44,1.62.27a2.15,2.15,0,0,0,.6-1.29c-.07-.28-.34-.62-1.11-1s-1.21-.46-1.47-.36A2,2,0,0,0,42.72,28c0,.33.24.73,1.11,1.2Z"/><path class="cls-11" d="M44.85,27.53c.3.16.45.46.34.66s-.44.24-.74.08-.45-.45-.34-.66a.56.56,0,0,1,.74-.08Z"/><path class="cls-9" d="M43.83,29.15c.87.47,1.34.44,1.62.27a2.15,2.15,0,0,0,.6-1.29c-.06-.26-.3-.56-.95-.94a.11.11,0,0,0-.06,0c.65.62.67.91.52,1.23s-.57.82-1.49.32c-1.11-.59-.4-1.92.76-1.66h0c-.71-.37-1.12-.4-1.37-.31A2,2,0,0,0,42.72,28c0,.33.24.73,1.11,1.2Z"/><path class="cls-10" d="M43.83,29.15c.87.47,1.34.44,1.62.26a2.1,2.1,0,0,0,.6-1.28.74.74,0,0,0-.13-.27c.26.91-.87,1.68-2,1.09a1.14,1.14,0,0,1,.3-2.16,1.17,1.17,0,0,0-.77-.05A2,2,0,0,0,42.72,28c0,.32.24.73,1.11,1.2Z"/><path class="cls-8" d="M44.92,27.2c.82.45,1.27.43,1.54.26a2.05,2.05,0,0,0,.6-1.24c-.05-.27-.31-.59-1-1s-1.15-.44-1.4-.34a2.06,2.06,0,0,0-.74,1.16c0,.31.21.7,1,1.15Z"/><path class="cls-11" d="M45.93,25.64c.28.16.42.44.31.64s-.42.23-.7.08-.42-.44-.31-.64a.52.52,0,0,1,.7-.08Z"/><path class="cls-9" d="M44.92,27.2c.82.45,1.27.43,1.54.26a2.05,2.05,0,0,0,.6-1.24c-.05-.24-.27-.54-.88-.9a.11.11,0,0,0-.06,0c.61.6.62.87.47,1.18s-.56.79-1.43.31c-1-.57-.34-1.86.76-1.6h0c-.68-.35-1.07-.39-1.31-.29a2.06,2.06,0,0,0-.74,1.16c0,.31.21.7,1,1.15Z"/><path class="cls-10" d="M44.92,27.2c.82.45,1.27.43,1.54.26a2.08,2.08,0,0,0,.6-1.24A.91.91,0,0,0,47,26c.22.87-.88,1.62-1.92,1.05a1.11,1.11,0,0,1,.34-2.08,1.07,1.07,0,0,0-.74,0,2.06,2.06,0,0,0-.74,1.16c0,.31.21.7,1,1.15Z"/><path class="cls-8" d="M46.1,25.14c.77.43,1.2.41,1.45.24a2,2,0,0,0,.61-1.19c0-.26-.28-.57-1-1s-1.08-.42-1.32-.33A2,2,0,0,0,45.15,24c0,.3.18.67,1,1.11Z"/><path class="cls-11" d="M47.1,23.63c.26.16.39.43.28.62a.5.5,0,0,1-.68.07c-.26-.15-.38-.42-.27-.61a.5.5,0,0,1,.67-.08Z"/><path class="cls-9" d="M46.1,25.14c.77.43,1.2.41,1.45.24a2,2,0,0,0,.61-1.19c0-.24-.25-.52-.82-.87a.09.09,0,0,0-.05,0c.56.57.56.84.41,1.14s-.55.76-1.36.3c-1-.55-.28-1.79.76-1.54h0a1.61,1.61,0,0,0-1.23-.29A2,2,0,0,0,45.15,24c0,.3.18.67,1,1.11Z"/><path class="cls-10" d="M46.1,25.14c.77.43,1.2.41,1.45.24a2,2,0,0,0,.61-1.19,1,1,0,0,0-.1-.25c.19.84-.87,1.56-1.85,1a1.08,1.08,0,0,1,.37-2,1,1,0,0,0-.7-.05A2,2,0,0,0,45.15,24c0,.3.18.67,1,1.11Z"/><path class="cls-8" d="M47.2,23.26c.72.42,1.12.4,1.37.24a2.12,2.12,0,0,0,.61-1.15c0-.25-.25-.55-.89-.92s-1-.41-1.24-.32a2.06,2.06,0,0,0-.72,1.08c0,.29.16.65.87,1.07Z"/><path class="cls-11" d="M48.19,21.82a.46.46,0,0,1,.25.58.48.48,0,0,1-.65.08.4.4,0,1,1,.4-.66Z"/><path class="cls-9" d="M47.2,23.26c.72.42,1.12.4,1.37.24a2.12,2.12,0,0,0,.61-1.15c0-.23-.22-.5-.75-.84l0,0c.51.56.51.81.36,1.1s-.55.73-1.31.29-.21-1.72.77-1.49c0,0,0,0,0,0-.59-.32-.94-.35-1.16-.27a2.06,2.06,0,0,0-.72,1.08c0,.29.16.65.87,1.07Z"/><path class="cls-10" d="M47.2,23.26c.72.42,1.12.4,1.37.24a2.12,2.12,0,0,0,.61-1.15.78.78,0,0,0-.09-.24c.16.8-.87,1.49-1.78,1a1.06,1.06,0,0,1,.41-1.93,1,1,0,0,0-.67,0,2.06,2.06,0,0,0-.72,1.08c0,.29.16.65.87,1.07Z"/><path class="cls-8" d="M48.34,21.36c.67.4,1,.38,1.29.23a2.06,2.06,0,0,0,.6-1.11c0-.23-.21-.52-.8-.88s-1-.39-1.17-.3a2,2,0,0,0-.71,1c0,.28.13.62.79,1Z"/><path class="cls-11" d="M49.32,20a.39.39,0,1,1-.39.64.43.43,0,0,1-.22-.56.45.45,0,0,1,.61-.08Z"/><path class="cls-9" d="M48.34,21.36c.67.4,1,.38,1.29.23a2.06,2.06,0,0,0,.6-1.11c0-.22-.19-.48-.68-.8,0,0,0,0,0,0,.46.52.45.77.3,1.05s-.53.7-1.24.28-.15-1.65.77-1.43h0c-.54-.32-.88-.34-1.09-.26a2,2,0,0,0-.71,1c0,.28.13.62.79,1Z"/><path class="cls-10" d="M48.34,21.36c.67.4,1,.38,1.29.23a2.06,2.06,0,0,0,.6-1.11.75.75,0,0,0-.07-.23,1.1,1.1,0,0,1-1.71.94,1,1,0,0,1,.44-1.85.88.88,0,0,0-.63,0,2,2,0,0,0-.71,1c0,.28.13.62.79,1Z"/><path class="cls-8" d="M49.42,19.65c.61.38,1,.36,1.2.22a2.1,2.1,0,0,0,.61-1.07c0-.22-.19-.5-.74-.84s-.87-.37-1.08-.29a2,2,0,0,0-.71,1c0,.26.1.6.72,1Z"/><path class="cls-11" d="M50.38,18.32a.41.41,0,0,1,.19.54.42.42,0,0,1-.58.07.4.4,0,0,1-.18-.54.41.41,0,0,1,.57-.07Z"/><path class="cls-9" d="M49.42,19.65c.61.38,1,.36,1.2.22a2.1,2.1,0,0,0,.61-1.07c0-.2-.16-.46-.62-.76l0,0c.42.51.4.75.25,1a.74.74,0,0,1-1.17.27c-.78-.49-.09-1.58.77-1.37h0c-.51-.3-.82-.33-1-.25a2,2,0,0,0-.71,1c0,.26.1.6.72,1Z"/><path class="cls-10" d="M49.42,19.65c.61.38,1,.36,1.2.22a2.1,2.1,0,0,0,.61-1.07,1,1,0,0,0-.06-.21,1.06,1.06,0,0,1-1.65.89A1,1,0,0,1,50,17.71a.83.83,0,0,0-.59,0,2,2,0,0,0-.71,1c0,.26.1.6.72,1Z"/><path class="cls-8" d="M41.55,33.48c.91.48,1.39.45,1.66.27a2,2,0,0,0,.59-1.31c-.06-.27-.36-.62-1.16-1s-1.25-.47-1.52-.36a2,2,0,0,0-.74,1.22c0,.34.26.75,1.17,1.22Z"/><path class="cls-11" d="M42.56,31.84c.31.16.48.46.37.67s-.45.24-.76.08-.47-.46-.36-.67.44-.25.75-.08Z"/><path class="cls-9" d="M41.55,33.48c.91.48,1.39.45,1.66.27a2,2,0,0,0,.59-1.31c-.06-.25-.31-.57-1-.95a.11.11,0,0,0-.06,0c.68.63.7.92.56,1.25s-.57.83-1.53.32c-1.15-.6-.45-2,.75-1.69h0c-.74-.38-1.17-.41-1.42-.31a2,2,0,0,0-.74,1.22c0,.34.26.75,1.17,1.22Z"/><path class="cls-10" d="M41.55,33.48c.91.48,1.39.45,1.66.27a2,2,0,0,0,.59-1.31.58.58,0,0,0-.13-.26c.29.91-.86,1.69-2,1.09a1.15,1.15,0,0,1,.26-2.19,1.24,1.24,0,0,0-.8,0,2,2,0,0,0-.74,1.22c0,.34.26.75,1.17,1.22Z"/><path class="cls-8" d="M40.46,35.65c.89.47,1.36.44,1.63.27a2,2,0,0,0,.58-1.29c-.06-.27-.35-.61-1.14-1s-1.23-.46-1.5-.36a2,2,0,0,0-.72,1.2c0,.33.26.73,1.15,1.2Z"/><path class="cls-11" d="M41.46,34c.3.16.46.46.35.66s-.44.24-.74.08-.47-.45-.36-.65.44-.25.75-.09Z"/><path class="cls-9" d="M40.46,35.65c.89.47,1.36.44,1.63.27a2,2,0,0,0,.58-1.29c-.06-.25-.31-.56-1-.93,0,0-.05,0-.06,0,.67.62.69.9.55,1.22s-.56.82-1.5.32c-1.13-.59-.45-1.92.72-1.66h0c-.73-.36-1.14-.4-1.4-.3a2,2,0,0,0-.72,1.2c0,.33.26.73,1.15,1.2Z"/><path class="cls-10" d="M40.46,35.65c.89.47,1.36.44,1.63.27a2,2,0,0,0,.58-1.29.7.7,0,0,0-.13-.26c.29.9-.85,1.67-2,1.08a1.13,1.13,0,0,1,.26-2.15,1.17,1.17,0,0,0-.79,0,2,2,0,0,0-.72,1.2c0,.33.26.73,1.15,1.2Z"/><path class="cls-8" d="M39.42,37.71c.88.46,1.34.44,1.61.27a2,2,0,0,0,.57-1.27c-.07-.26-.35-.6-1.12-1s-1.21-.44-1.47-.35a2,2,0,0,0-.72,1.19c0,.32.26.71,1.13,1.17Z"/><path class="cls-11" d="M40.4,36.13c.3.15.46.44.35.64s-.43.24-.73.08-.45-.45-.35-.64.43-.24.73-.08Z"/><path class="cls-9" d="M39.42,37.71c.88.46,1.34.44,1.61.27a2,2,0,0,0,.57-1.27c-.06-.24-.31-.55-1-.91,0,0,0,0-.06,0,.66.61.68.88.54,1.2s-.55.8-1.47.31c-1.11-.58-.44-1.88.71-1.63h0c-.72-.37-1.12-.4-1.37-.31a2,2,0,0,0-.72,1.19c0,.32.26.71,1.13,1.17Z"/><path class="cls-10" d="M39.42,37.71c.88.46,1.34.44,1.61.27a2,2,0,0,0,.57-1.27.79.79,0,0,0-.13-.26c.28.89-.84,1.64-1.94,1.06a1.11,1.11,0,0,1,.25-2.11,1.25,1.25,0,0,0-.77,0,2,2,0,0,0-.72,1.19c0,.32.26.71,1.13,1.17Z"/><path class="cls-8" d="M38.36,39.76c.86.45,1.32.43,1.58.26a1.92,1.92,0,0,0,.56-1.24c-.07-.26-.34-.59-1.1-1s-1.19-.44-1.44-.34a1.9,1.9,0,0,0-.7,1.16c0,.31.25.7,1.1,1.15Z"/><path class="cls-11" d="M39.32,38.21c.3.15.45.43.35.63s-.42.23-.72.08-.44-.44-.34-.64.42-.23.71-.07Z"/><path class="cls-9" d="M38.36,39.76c.86.45,1.32.43,1.58.26a1.92,1.92,0,0,0,.56-1.24c-.06-.24-.3-.54-.94-.9l-.06,0c.64.6.66.87.53,1.18s-.54.79-1.44.31c-1.09-.57-.44-1.85.7-1.6h0c-.7-.35-1.1-.38-1.34-.29a1.9,1.9,0,0,0-.7,1.16c0,.31.25.7,1.1,1.15Z"/><path class="cls-10" d="M38.36,39.76c.86.45,1.32.43,1.58.26a1.92,1.92,0,0,0,.56-1.24.81.81,0,0,0-.12-.25c.26.86-.83,1.61-1.91,1a1.08,1.08,0,0,1,.25-2.06,1.15,1.15,0,0,0-.76,0,1.9,1.9,0,0,0-.7,1.16c0,.31.25.7,1.1,1.15Z"/><path class="cls-8" d="M37.31,41.86c.9.35,1.35.29,1.59.09a1.91,1.91,0,0,0,.44-1.27c-.09-.26-.39-.55-1.19-.87s-1.22-.32-1.46-.2a1.94,1.94,0,0,0-.59,1.22c0,.31.32.67,1.21,1Z"/><path class="cls-11" d="M38.12,40.22c.31.13.48.39.4.6s-.4.27-.7.14-.49-.39-.41-.59.4-.27.71-.15Z"/><path class="cls-9" d="M37.31,41.86c.9.35,1.35.29,1.59.09a1.91,1.91,0,0,0,.44-1.27c-.08-.24-.35-.51-1-.8l-.06,0c.69.52.74.79.64,1.11s-.46.83-1.41.45c-1.13-.46-.6-1.79.55-1.65h0a1.83,1.83,0,0,0-1.37-.16,1.94,1.94,0,0,0-.59,1.22c0,.31.32.67,1.21,1Z"/><path class="cls-10" d="M37.31,41.86c.9.35,1.35.29,1.59.09a1.91,1.91,0,0,0,.44-1.27.63.63,0,0,0-.15-.24c.35.83-.66,1.67-1.79,1.21a1.08,1.08,0,0,1,.05-2.07,1.27,1.27,0,0,0-.76,0,1.94,1.94,0,0,0-.59,1.22c0,.31.32.67,1.21,1Z"/><path class="cls-8" d="M36.51,43.94c.93.27,1.38.15,1.6-.06a1.9,1.9,0,0,0,.32-1.32c-.12-.24-.45-.51-1.28-.75s-1.25-.19-1.49-.05A2,2,0,0,0,35.19,43c.07.3.38.63,1.32.9Z"/><path class="cls-11" d="M37.16,42.23c.32.09.52.34.46.55s-.38.31-.69.22-.53-.34-.46-.55.37-.31.69-.22Z"/><path class="cls-9" d="M36.51,43.94c.93.27,1.38.15,1.6-.06a1.9,1.9,0,0,0,.32-1.32c-.11-.23-.4-.47-1.1-.69l-.06,0c.74.45.82.72.74,1s-.38.87-1.36.58c-1.19-.33-.78-1.71.38-1.7h0a1.87,1.87,0,0,0-1.39,0A2,2,0,0,0,35.19,43c.07.3.38.63,1.32.9Z"/><path class="cls-10" d="M36.51,43.94c.93.27,1.38.15,1.6-.06a1.9,1.9,0,0,0,.32-1.32,1,1,0,0,0-.17-.23c.43.8-.51,1.74-1.69,1.4a1.08,1.08,0,0,1-.15-2.07,1.24,1.24,0,0,0-.76.1A2,2,0,0,0,35.19,43c.07.3.38.63,1.32.9Z"/><path class="cls-8" d="M36.12,46.16c1,.18,1.41,0,1.62-.22a1.91,1.91,0,0,0,.19-1.36c-.14-.23-.5-.46-1.36-.62s-1.29-.07-1.51.1a1.93,1.93,0,0,0-.35,1.32c.09.3.44.6,1.41.78Z"/><path class="cls-11" d="M36.62,44.38c.33.06.56.28.52.5s-.35.35-.68.29-.56-.28-.52-.5.35-.35.68-.29Z"/><path class="cls-9" d="M36.12,46.16c1,.18,1.41,0,1.62-.22a1.91,1.91,0,0,0,.19-1.36c-.13-.21-.45-.43-1.17-.59,0,0-.06,0-.07,0,.8.38.9.63.85,1s-.29.92-1.32.73c-1.23-.23-1-1.65.23-1.75h0a1.85,1.85,0,0,0-1.4.12,1.93,1.93,0,0,0-.35,1.32c.09.3.44.6,1.41.78Z"/><path class="cls-10" d="M36.12,46.16c1,.18,1.41,0,1.62-.22a1.91,1.91,0,0,0,.19-1.36.72.72,0,0,0-.19-.21c.51.76-.35,1.8-1.57,1.57a1.09,1.09,0,0,1-.35-2.07,1.2,1.2,0,0,0-.76.19,1.93,1.93,0,0,0-.35,1.32c.09.3.44.6,1.41.78Z"/><path class="cls-8" d="M40.78,28.37c.85.61,1.34.65,1.64.51a2.1,2.1,0,0,0,.77-1.24c0-.29-.28-.68-1-1.23s-1.2-.64-1.48-.58A2,2,0,0,0,39.77,27c0,.34.16.79,1,1.4Z"/><path class="cls-11" d="M42.18,27c.29.21.42.54.28.73s-.49.18-.78,0-.41-.53-.27-.72.49-.19.77,0Z"/><path class="cls-9" d="M40.78,28.37c.85.61,1.34.65,1.64.51a2.1,2.1,0,0,0,.77-1.24c0-.27-.24-.62-.87-1.11,0,0,0,0-.06,0,.6.74.58,1,.39,1.34s-.68.77-1.57.12c-1.08-.77-.2-2.05,1-1.61h0c-.7-.49-1.12-.58-1.39-.52A2,2,0,0,0,39.77,27c0,.34.16.79,1,1.4Z"/><path class="cls-10" d="M40.78,28.37c.85.61,1.34.65,1.64.51a2.1,2.1,0,0,0,.77-1.24.72.72,0,0,0-.1-.29c.16,1-1.1,1.6-2.17.82A1.17,1.17,0,0,1,41.48,26a1.25,1.25,0,0,0-.8-.17A2,2,0,0,0,39.77,27c0,.34.16.79,1,1.4Z"/><path class="cls-8" d="M42.14,26.22c.79.59,1.26.63,1.55.49a2.06,2.06,0,0,0,.76-1.19c0-.27-.25-.65-1-1.17s-1.13-.61-1.4-.55a2,2,0,0,0-.89,1.09c0,.32.14.75.93,1.33Z"/><path class="cls-11" d="M43.5,24.93c.27.2.38.51.24.7s-.46.18-.73,0-.38-.51-.24-.7.46-.17.73,0Z"/><path class="cls-9" d="M42.14,26.22c.79.59,1.26.63,1.55.49a2.06,2.06,0,0,0,.76-1.19c0-.25-.22-.59-.8-1.05,0,0,0,0-.06,0,.55.7.53,1,.34,1.28s-.66.73-1.5.12c-1-.74-.14-2,1-1.54h0c-.65-.46-1-.55-1.31-.49a2,2,0,0,0-.89,1.09c0,.32.14.75.93,1.33Z"/><path class="cls-10" d="M42.14,26.22c.79.59,1.26.63,1.55.49a2.06,2.06,0,0,0,.76-1.19,1,1,0,0,0-.09-.28c.13.93-1.08,1.53-2.08.8A1.13,1.13,0,0,1,42.86,24a1.16,1.16,0,0,0-.76-.16,2,2,0,0,0-.89,1.09c0,.32.14.75.93,1.33Z"/><path class="cls-8" d="M43.52,24.27c.74.56,1.18.59,1.45.47a2,2,0,0,0,.75-1.13c0-.27-.21-.63-.86-1.12s-1.06-.58-1.31-.53A2,2,0,0,0,42.68,23c0,.3.11.71.84,1.26Z"/><path class="cls-11" d="M44.84,23c.25.19.35.49.21.67s-.44.17-.69,0S44,23.2,44.15,23a.51.51,0,0,1,.69,0Z"/><path class="cls-9" d="M43.52,24.27c.74.56,1.18.59,1.45.47a2,2,0,0,0,.75-1.13c0-.25-.18-.57-.73-1a.09.09,0,0,0-.05,0c.51.66.48.93.3,1.22s-.65.69-1.43.1c-.94-.7-.08-1.86.95-1.46h0c-.61-.44-1-.52-1.23-.47A2,2,0,0,0,42.68,23c0,.3.11.71.84,1.26Z"/><path class="cls-10" d="M43.52,24.27c.74.56,1.18.59,1.45.47a2,2,0,0,0,.75-1.13.57.57,0,0,0-.07-.27c.1.88-1.06,1.46-2,.76a1.1,1.1,0,0,1,.6-2,1.21,1.21,0,0,0-.71-.15A2,2,0,0,0,42.68,23c0,.3.11.71.84,1.26Z"/><path class="cls-8" d="M44.66,22.39c.68.53,1.09.57,1.36.44a2,2,0,0,0,.74-1.07c0-.25-.19-.59-.8-1.06s-1-.55-1.22-.5a2,2,0,0,0-.85,1c0,.29.09.68.77,1.2Z"/><path class="cls-11" d="M45.93,21.22a.48.48,0,0,1,.19.64.49.49,0,0,1-.66,0,.41.41,0,1,1,.47-.62Z"/><path class="cls-9" d="M44.66,22.39c.68.53,1.09.57,1.36.44a2,2,0,0,0,.74-1.07c0-.24-.17-.54-.67-1,0,0,0,0,0,0,.46.63.42.89.24,1.16s-.63.66-1.35.1,0-1.77.94-1.39h0c-.56-.42-.91-.5-1.15-.45a2,2,0,0,0-.85,1c0,.29.09.68.77,1.2Z"/><path class="cls-10" d="M44.66,22.39c.68.53,1.09.57,1.36.44a2,2,0,0,0,.74-1.07.61.61,0,0,0-.06-.25c.07.83-1.05,1.38-1.91.72a1.06,1.06,0,0,1,.62-1.89,1,1,0,0,0-.67-.14,2,2,0,0,0-.85,1c0,.29.09.68.77,1.2Z"/><path class="cls-8" d="M46,20.5c.63.5,1,.54,1.27.42a2,2,0,0,0,.73-1c0-.23-.16-.55-.72-1s-.9-.53-1.13-.48a2,2,0,0,0-.84.94c0,.27.07.64.69,1.14Z"/><path class="cls-11" d="M47.21,19.39a.44.44,0,0,1,.16.6.51.51,0,0,1-.77-.62.44.44,0,0,1,.61,0Z"/><path class="cls-9" d="M46,20.5c.63.5,1,.54,1.27.42a2,2,0,0,0,.73-1c0-.21-.14-.5-.6-.9l0,0c.41.6.37.84.19,1.1s-.61.63-1.28.1,0-1.68.93-1.32h0c-.51-.39-.84-.47-1.06-.42a2,2,0,0,0-.84.94c0,.27.07.64.69,1.14Z"/><path class="cls-10" d="M46,20.5c.63.5,1,.54,1.27.42a2,2,0,0,0,.73-1,.6.6,0,0,0-.06-.23,1.07,1.07,0,0,1-1.81.68,1,1,0,0,1,.64-1.79.94.94,0,0,0-.62-.13,2,2,0,0,0-.84.94c0,.27.07.64.69,1.14Z"/><path class="cls-8" d="M47.23,18.85c.56.47.93.5,1.17.39a1.93,1.93,0,0,0,.72-1c0-.22-.13-.52-.64-.94s-.82-.5-1-.44a1.94,1.94,0,0,0-.82.88c-.06.26,0,.61.61,1.08Z"/><path class="cls-11" d="M48.42,17.8a.4.4,0,0,1,.12.56.41.41,0,0,1-.57,0,.37.37,0,1,1,.45-.55Z"/><path class="cls-9" d="M47.23,18.85c.56.47.93.5,1.17.39a1.93,1.93,0,0,0,.72-1c0-.21-.11-.48-.53-.85l0,0c.37.57.32.8.15,1a.73.73,0,0,1-1.2.09c-.73-.59.08-1.58.91-1.25h0c-.47-.37-.77-.44-1-.39a1.94,1.94,0,0,0-.82.88c-.06.26,0,.61.61,1.08Z"/><path class="cls-10" d="M47.23,18.85c.56.47.93.5,1.17.39a1.93,1.93,0,0,0,.72-1,.64.64,0,0,0,0-.22,1,1,0,0,1-1.73.65A1,1,0,0,1,48,17a.76.76,0,0,0-.58-.12,1.94,1.94,0,0,0-.82.88c-.06.26,0,.61.61,1.08Z"/><path class="cls-8" d="M48.46,17.33c.52.44.86.47,1.09.36a2,2,0,0,0,.7-.91c0-.21-.1-.49-.55-.89s-.76-.46-1-.41a2,2,0,0,0-.79.83c-.07.25,0,.58.52,1Z"/><path class="cls-11" d="M49.62,16.33a.38.38,0,0,1,.09.54.38.38,0,0,1-.53,0,.38.38,0,0,1-.1-.53.4.4,0,0,1,.54,0Z"/><path class="cls-9" d="M48.46,17.33c.52.44.86.47,1.09.36a2,2,0,0,0,.7-.91c0-.19-.08-.45-.46-.8,0,0,0,0,0,0,.32.53.27.75.09,1a.69.69,0,0,1-1.12.09c-.65-.56.14-1.49.9-1.18h0c-.43-.35-.71-.42-.91-.37a2,2,0,0,0-.79.83c-.07.25,0,.57.52,1Z"/><path class="cls-10" d="M48.46,17.33c.52.44.86.47,1.09.36a2,2,0,0,0,.7-.91.53.53,0,0,0,0-.21,1,1,0,0,1-1.64.61,1,1,0,0,1,.68-1.59.79.79,0,0,0-.54-.11,2,2,0,0,0-.79.83c-.07.25,0,.57.52,1Z"/><path class="cls-8" d="M49.66,15.77c.46.42.77.45,1,.35a2,2,0,0,0,.7-.86c0-.2-.08-.46-.48-.83S50.19,14,50,14a2,2,0,0,0-.77.79c-.08.22,0,.53.44.94Z"/><path class="cls-11" d="M50.78,14.85a.34.34,0,0,1,.06.49.35.35,0,0,1-.5,0,.37.37,0,0,1-.06-.5.36.36,0,0,1,.5,0Z"/><path class="cls-9" d="M49.66,15.77c.46.42.77.45,1,.35a2,2,0,0,0,.7-.86c0-.18-.06-.42-.4-.75l0,0c.28.5.22.7,0,.91a.65.65,0,0,1-1,.09c-.58-.53.19-1.4.89-1.11h0c-.38-.33-.64-.39-.83-.35a2,2,0,0,0-.77.79c-.08.22,0,.53.44.94Z"/><path class="cls-10" d="M49.66,15.77c.46.42.77.45,1,.35a2,2,0,0,0,.7-.86.65.65,0,0,0,0-.19,1,1,0,0,1-1.55.57c-.53-.48-.06-1.44.71-1.49A.68.68,0,0,0,50,14a2,2,0,0,0-.77.79c-.08.22,0,.53.44.94Z"/><path class="cls-8" d="M50.78,14.32c.4.38.69.41.89.32a2,2,0,0,0,.69-.8c0-.19,0-.43-.4-.78s-.61-.4-.79-.36a2,2,0,0,0-.75.73c-.09.22,0,.5.36.89Z"/><path class="cls-11" d="M51.86,13.45a.33.33,0,0,1,0,.46.31.31,0,0,1-.46,0,.31.31,0,1,1,.42-.45Z"/><path class="cls-9" d="M50.78,14.32c.4.38.69.41.89.32a2,2,0,0,0,.69-.8c0-.17,0-.4-.32-.7,0,0,0,0,0,0,.23.47.16.66,0,.86a.6.6,0,0,1-1,.08c-.51-.49.25-1.31.88-1h0c-.34-.3-.57-.36-.75-.32a2,2,0,0,0-.75.73c-.09.22,0,.5.36.89Z"/><path class="cls-10" d="M50.78,14.32c.4.38.69.41.89.32a2,2,0,0,0,.69-.8.54.54,0,0,0,0-.18.91.91,0,0,1-1.47.53c-.46-.44,0-1.34.73-1.39a.58.58,0,0,0-.45-.1,2,2,0,0,0-.75.73c-.09.22,0,.5.36.89Z"/><path class="cls-8" d="M52.18,13.22c.35.36.61.38.8.29a1.93,1.93,0,0,0,.68-.74c0-.17,0-.4-.32-.72s-.54-.38-.71-.34a2.09,2.09,0,0,0-.73.69c-.09.19-.07.46.28.82Z"/><path class="cls-11" d="M53.23,12.41a.3.3,0,0,1,0,.43.29.29,0,0,1-.42,0,.3.3,0,0,1,0-.43.29.29,0,0,1,.42,0Z"/><path class="cls-9" d="M52.18,13.22c.35.36.61.38.8.29a1.93,1.93,0,0,0,.68-.74c0-.16,0-.37-.26-.65l0,0c.18.43.11.6-.06.79s-.53.46-.89.08.3-1.21.86-1h0c-.29-.28-.5-.34-.67-.3a2.09,2.09,0,0,0-.73.69c-.09.19-.07.46.28.82Z"/><path class="cls-10" d="M52.18,13.22c.35.36.61.38.8.29a1.93,1.93,0,0,0,.68-.74.47.47,0,0,0,0-.17.87.87,0,0,1-1.38.5c-.4-.41.1-1.25.75-1.29a.52.52,0,0,0-.41-.1,2.09,2.09,0,0,0-.73.69c-.09.19-.07.46.28.82Z"/><path class="cls-8" d="M39.59,30.57c.86.54,1.34.56,1.63.41a2,2,0,0,0,.68-1.26c0-.28-.3-.64-1.07-1.13s-1.2-.56-1.47-.49a2,2,0,0,0-.83,1.17c0,.32.2.75,1.06,1.3Z"/><path class="cls-11" d="M40.89,29.18c.29.19.43.5.3.69s-.46.21-.75,0-.43-.49-.31-.69.47-.21.76,0Z"/><path class="cls-9" d="M39.59,30.57c.86.54,1.34.56,1.63.41a2,2,0,0,0,.68-1.26c0-.26-.26-.59-.9-1,0,0,0,0-.06,0,.62.67.62,1,.45,1.28s-.63.78-1.53.2c-1.09-.7-.3-2,.86-1.62h0c-.71-.43-1.12-.5-1.38-.43a2,2,0,0,0-.83,1.17c0,.32.2.75,1.06,1.3Z"/><path class="cls-10" d="M39.59,30.57c.86.54,1.34.56,1.63.41a2,2,0,0,0,.68-1.26.69.69,0,0,0-.1-.27c.2.93-1,1.61-2.09.92a1.14,1.14,0,0,1,.43-2.15,1.21,1.21,0,0,0-.78-.12,2,2,0,0,0-.83,1.17c0,.32.2.75,1.06,1.3Z"/><path class="cls-8" d="M38.37,32.75c.87.49,1.34.47,1.61.31a2,2,0,0,0,.6-1.26c-.06-.28-.33-.62-1.11-1.05s-1.21-.48-1.47-.39a2,2,0,0,0-.75,1.18c0,.32.25.73,1.12,1.21Z"/><path class="cls-11" d="M39.56,31.32c.3.17.45.46.34.66s-.44.23-.74.07-.45-.47-.34-.67.44-.22.74-.06Z"/><path class="cls-9" d="M38.37,32.75c.87.49,1.34.47,1.61.31a2,2,0,0,0,.6-1.26c-.06-.26-.29-.57-.94-.95,0,0,0,0-.06,0,.65.62.66.91.51,1.22s-.57.8-1.49.29c-1.1-.62-.4-1.92.76-1.63h0A1.91,1.91,0,0,0,38,30.36a2,2,0,0,0-.75,1.18c0,.32.25.73,1.12,1.21Z"/><path class="cls-10" d="M38.37,32.75c.87.49,1.34.47,1.61.31a2,2,0,0,0,.6-1.26.9.9,0,0,0-.12-.27c.26.9-.88,1.64-2,1a1.12,1.12,0,0,1,.3-2.12,1.18,1.18,0,0,0-.78-.07,2,2,0,0,0-.75,1.18c0,.32.25.73,1.12,1.21Z"/><path class="cls-8" d="M37.07,35.13c1,.47,1.49.43,1.78.23a2.19,2.19,0,0,0,.58-1.42c-.08-.29-.41-.65-1.28-1.06s-1.35-.45-1.63-.33a2.12,2.12,0,0,0-.74,1.34c0,.35.3.77,1.29,1.24Z"/><path class="cls-11" d="M38.28,33.49c.34.16.52.47.41.7s-.46.28-.8.12-.52-.47-.41-.7a.6.6,0,0,1,.8-.12Z"/><path class="cls-9" d="M37.07,35.13c1,.47,1.49.43,1.78.23a2.19,2.19,0,0,0,.58-1.42c-.08-.27-.36-.59-1.09-1l-.07,0c.75.64.78,1,.64,1.3s-.57.91-1.61.41c-1.25-.59-.56-2.06.73-1.82h0c-.81-.37-1.26-.39-1.53-.28a2.12,2.12,0,0,0-.74,1.34c0,.35.3.77,1.29,1.24Z"/><path class="cls-10" d="M37.07,35.13c1,.47,1.49.43,1.78.23a2.19,2.19,0,0,0,.58-1.42,1,1,0,0,0-.15-.28c.34,1-.86,1.84-2.1,1.25a1.22,1.22,0,0,1,.19-2.34,1.36,1.36,0,0,0-.85,0,2.12,2.12,0,0,0-.74,1.34c0,.35.3.77,1.29,1.24Z"/><path class="cls-8" d="M36,37.39c1,.4,1.5.32,1.77.1a2.11,2.11,0,0,0,.48-1.42c-.1-.28-.44-.61-1.32-1s-1.36-.35-1.63-.22a2.11,2.11,0,0,0-.65,1.36c0,.34.35.74,1.35,1.14Z"/><path class="cls-11" d="M37.09,35.7c.34.14.54.43.45.66s-.44.3-.78.16-.54-.42-.45-.65.44-.31.78-.17Z"/><path class="cls-9" d="M36,37.39c1,.4,1.5.32,1.77.1a2.11,2.11,0,0,0,.48-1.42c-.09-.26-.39-.56-1.13-.89l-.07,0c.77.58.83.88.71,1.24s-.51.92-1.56.5c-1.27-.51-.68-2,.6-1.84h0c-.82-.31-1.26-.3-1.52-.17a2.11,2.11,0,0,0-.65,1.36c0,.34.35.74,1.35,1.14Z"/><path class="cls-10" d="M36,37.39c1,.4,1.5.32,1.77.1a2.11,2.11,0,0,0,.48-1.42.83.83,0,0,0-.16-.26c.39.92-.74,1.85-2,1.35a1.2,1.2,0,0,1,0-2.31,1.29,1.29,0,0,0-.84,0,2.11,2.11,0,0,0-.65,1.36c0,.34.35.74,1.35,1.14Z"/><path class="cls-8" d="M36,48c.89.17,1.29,0,1.48-.2a1.74,1.74,0,0,0,.17-1.24c-.12-.21-.46-.43-1.24-.57s-1.18-.07-1.38.09a1.69,1.69,0,0,0-.32,1.21c.08.28.4.55,1.29.71Z"/><path class="cls-9" d="M36,48c.89.17,1.29,0,1.48-.2a1.74,1.74,0,0,0,.17-1.24c-.11-.2-.41-.4-1.07-.54h-.06c.73.35.82.59.78.9s-.27.84-1.21.66c-1.13-.2-.88-1.51.21-1.6h0c-.72-.12-1.09,0-1.28.11a1.69,1.69,0,0,0-.32,1.21c.08.28.4.55,1.29.71Z"/><path class="cls-10" d="M36,48c.89.17,1.29,0,1.48-.2a1.74,1.74,0,0,0,.17-1.24.73.73,0,0,0-.17-.19c.46.69-.32,1.64-1.44,1.44a1,1,0,0,1-.32-1.9,1.11,1.11,0,0,0-.69.17,1.69,1.69,0,0,0-.32,1.21c.08.28.4.55,1.29.71Z"/><path class="cls-8" d="M50.49,18c.56.36.9.34,1.12.21a2.08,2.08,0,0,0,.61-1c0-.22-.16-.48-.66-.81s-.8-.35-1-.27a2,2,0,0,0-.7.95c0,.25.07.57.63.94Z"/><path class="cls-11" d="M51.45,16.74a.36.36,0,1,1-.39.59.4.4,0,0,1-.16-.52.41.41,0,0,1,.55-.07Z"/><path class="cls-9" d="M50.49,18c.56.36.9.34,1.12.21a2.08,2.08,0,0,0,.61-1c0-.2-.13-.44-.55-.74l0,0c.38.49.35.71.21,1a.71.71,0,0,1-1.12.25c-.71-.46,0-1.51.77-1.31h0c-.46-.29-.75-.31-.94-.23a2,2,0,0,0-.7.95c0,.25.07.57.63.94Z"/><path class="cls-10" d="M50.49,18c.56.36.9.34,1.13.2a2,2,0,0,0,.6-1,.58.58,0,0,0,0-.21,1,1,0,0,1-1.57.86c-.66-.43-.31-1.52.51-1.7a.78.78,0,0,0-.55,0,2.11,2.11,0,0,0-.7,1c0,.25.07.57.63.94Z"/><path class="cls-8" d="M51.63,16.37c.52.35.83.33,1,.2a2.19,2.19,0,0,0,.61-1c0-.21-.13-.46-.58-.77s-.74-.34-.93-.27a2,2,0,0,0-.69.92c0,.24,0,.54.55.89Z"/><path class="cls-11" d="M52.57,15.15a.34.34,0,1,1-.38.56.34.34,0,1,1,.38-.56Z"/><path class="cls-9" d="M51.63,16.37c.52.35.83.33,1,.2a2.19,2.19,0,0,0,.61-1c0-.19-.11-.43-.48-.71l0,0c.34.47.3.68.15.92a.66.66,0,0,1-1,.25c-.65-.44,0-1.45.78-1.25h0c-.42-.28-.7-.3-.88-.23a2,2,0,0,0-.69.92c0,.24,0,.54.55.89Z"/><path class="cls-10" d="M51.63,16.37c.51.35.83.33,1,.19a2.11,2.11,0,0,0,.61-1,.69.69,0,0,0,0-.2,1,1,0,0,1-1.51.82c-.59-.41-.22-1.46.54-1.62a.67.67,0,0,0-.51,0,2.09,2.09,0,0,0-.69.91c0,.25,0,.55.55.9Z"/><path class="cls-8" d="M52.81,14.82c.45.33.75.31.95.18a2,2,0,0,0,.61-.92c0-.2-.1-.44-.5-.73S53.19,13,53,13.1a2.1,2.1,0,0,0-.68.87c-.06.23,0,.52.48.85Z"/><path class="cls-11" d="M53.73,13.66a.34.34,0,0,1,.1.47.35.35,0,0,1-.57-.41.33.33,0,0,1,.47-.06Z"/><path class="cls-9" d="M52.81,14.82c.45.33.75.31.95.18a2,2,0,0,0,.61-.92c0-.18-.08-.4-.42-.67l0,0c.29.44.25.65.1.88a.63.63,0,0,1-1,.23c-.58-.42.1-1.37.78-1.19h0c-.38-.26-.63-.28-.81-.21a2.1,2.1,0,0,0-.68.87c-.06.23,0,.52.48.85Z"/><path class="cls-10" d="M52.81,14.82c.45.33.75.31.95.18a2,2,0,0,0,.61-.92.43.43,0,0,0,0-.19,1,1,0,0,1-1.44.78c-.53-.39-.14-1.38.58-1.54a.59.59,0,0,0-.48,0,2.1,2.1,0,0,0-.68.87c-.06.23,0,.52.48.85Z"/><path class="cls-8" d="M54,13.49c.4.32.68.3.87.18a2.12,2.12,0,0,0,.61-.88c0-.19-.07-.42-.43-.7s-.6-.3-.77-.23a2.1,2.1,0,0,0-.68.82c-.07.22,0,.5.4.81Z"/><path class="cls-11" d="M54.9,12.39a.32.32,0,0,1,.06.44.31.31,0,1,1-.5-.38.3.3,0,0,1,.44-.06Z"/><path class="cls-9" d="M54,13.49c.4.32.68.3.87.18a2.12,2.12,0,0,0,.61-.88c0-.17-.05-.38-.35-.63,0,0,0,0,0,0,.25.41.2.61.05.83s-.5.56-.93.23.17-1.31.78-1.14h0c-.34-.25-.57-.27-.73-.2a2.1,2.1,0,0,0-.68.82c-.07.22,0,.5.4.81Z"/><path class="cls-10" d="M54,13.49c.4.32.68.3.87.18a2.12,2.12,0,0,0,.61-.88.37.37,0,0,0,0-.18c0,.61-.85,1.14-1.37.75S54,12,54.7,11.89a.53.53,0,0,0-.44,0,2.1,2.1,0,0,0-.68.82c-.07.22,0,.5.4.81Z"/><path class="cls-8" d="M41,49.71c-.67-.59-.81-1-.75-1.27a1.72,1.72,0,0,1,.86-.9c.24,0,.61.09,1.21.61s.78.87.78,1.13a1.73,1.73,0,0,1-.75,1c-.27.1-.68,0-1.35-.56Z"/><path class="cls-9" d="M41,49.71c-.67-.59-.81-1-.75-1.27a1.72,1.72,0,0,1,.86-.9c.22,0,.56.07,1.08.5l0,0c-.72-.35-1-.28-1.18,0s-.48.72.23,1.35,1.72-.26,1.12-1.15v0c.54.49.71.82.71,1.07a1.73,1.73,0,0,1-.75,1c-.27.1-.68,0-1.35-.56Z"/><path class="cls-10" d="M41,49.71c-.67-.59-.81-1-.75-1.27a1.72,1.72,0,0,1,.86-.9.48.48,0,0,1,.26,0c-.83.06-1.09,1.25-.24,2a1,1,0,0,0,1.67-.91,1.05,1.05,0,0,1,.3.64,1.73,1.73,0,0,1-.75,1c-.27.1-.68,0-1.35-.56Z"/><path class="cls-8" d="M45.74,45.28c-.85-.65-1-1.11-1-1.45a2.08,2.08,0,0,1,1-1.14c.29-.06.74.06,1.49.63s1,1,1,1.28a2.05,2.05,0,0,1-.81,1.24c-.32.14-.81.08-1.65-.56Z"/><path class="cls-11" d="M46.6,43.49c-.29-.22-.64-.24-.78-.05s0,.53.26.75.64.24.78.05,0-.53-.26-.75Z"/><path class="cls-9" d="M45.74,45.28c-.85-.65-1-1.11-1-1.45a2.08,2.08,0,0,1,1-1.14c.27,0,.67,0,1.33.51,0,0,0,0,0,0-.89-.36-1.17-.25-1.41,0s-.52.9.38,1.58c1.07.82,2-.44,1.24-1.45h0c.68.53.9.91.92,1.2a2.05,2.05,0,0,1-.81,1.24c-.31.14-.81.08-1.65-.56Z"/><path class="cls-10" d="M45.74,45.28c-.85-.65-1-1.11-1-1.45a2.08,2.08,0,0,1,1-1.14,1.07,1.07,0,0,1,.31,0c-1,.14-1.2,1.58-.13,2.39a1.18,1.18,0,0,0,1.92-1.21,1.19,1.19,0,0,1,.4.73,2.05,2.05,0,0,1-.81,1.24c-.32.14-.81.08-1.65-.56Z"/><path class="cls-8" d="M44.38,47.16c-.71-.62-.85-1-.79-1.35a1.83,1.83,0,0,1,.91-1c.26,0,.65.1,1.29.65s.82.93.82,1.2a1.81,1.81,0,0,1-.79,1c-.29.11-.72,0-1.44-.6Z"/><path class="cls-11" d="M45.25,45.62c-.24-.21-.55-.25-.69-.09s-.06.47.19.69.55.25.69.08.06-.47-.19-.68Z"/><path class="cls-9" d="M44.38,47.16c-.71-.62-.85-1-.79-1.35a1.83,1.83,0,0,1,.91-1c.24,0,.59.07,1.15.53l0,0c-.76-.37-1-.29-1.25-.06s-.51.78.24,1.44c.91.79,1.83-.27,1.19-1.22a0,0,0,0,0,0,0c.57.51.75.87.75,1.12a1.8,1.8,0,0,1-.79,1.06c-.29.11-.72,0-1.44-.6Z"/><path class="cls-10" d="M44.38,47.16c-.71-.62-.85-1-.79-1.35a1.83,1.83,0,0,1,.91-1,.64.64,0,0,1,.27,0c-.88.06-1.15,1.33-.25,2.12a1.05,1.05,0,0,0,1.78-1,1.11,1.11,0,0,1,.31.67,1.8,1.8,0,0,1-.79,1.06c-.29.11-.72,0-1.44-.6Z"/><path class="cls-8" d="M42.63,48.61c-.67-.59-.81-1-.75-1.27a1.72,1.72,0,0,1,.86-.9c.24,0,.61.09,1.21.61s.78.88.78,1.13a1.73,1.73,0,0,1-.75,1c-.27.1-.68,0-1.35-.56Z"/><path class="cls-11" d="M43.45,47.15c-.23-.19-.52-.23-.65-.08a.5.5,0,0,0,.17.65.49.49,0,0,0,.66.08c.13-.16,0-.45-.18-.65Z"/><path class="cls-9" d="M42.63,48.61c-.67-.59-.81-1-.75-1.27a1.72,1.72,0,0,1,.86-.9c.23,0,.56.07,1.08.5l0,0c-.72-.35-1-.28-1.18-.06s-.48.73.23,1.36c.86.74,1.72-.26,1.12-1.15,0,0,0,0,0,0,.54.49.71.82.71,1.07a1.73,1.73,0,0,1-.75,1c-.27.1-.68,0-1.35-.56Z"/><path class="cls-10" d="M42.63,48.61c-.67-.59-.81-1-.75-1.27a1.72,1.72,0,0,1,.86-.9.58.58,0,0,1,.26,0c-.83.07-1.09,1.26-.24,2a1,1,0,0,0,1.67-.91,1,1,0,0,1,.3.64,1.73,1.73,0,0,1-.75,1c-.27.1-.68,0-1.35-.56Z"/><path class="cls-8" d="M48.37,34.32c-.93-.49-1.18-.9-1.19-1.24a2,2,0,0,1,.75-1.25c.27-.11.73-.06,1.55.37s1.12.78,1.19,1.06a2,2,0,0,1-.61,1.33c-.28.19-.77.21-1.69-.27Z"/><path class="cls-11" d="M49.16,32.51c-.32-.16-.66-.12-.77.09s0,.51.37.68.66.13.77-.08-.06-.52-.37-.69Z"/><path class="cls-9" d="M48.37,34.32c-.93-.49-1.18-.9-1.19-1.24a2,2,0,0,1,.75-1.25c.25-.1.66-.07,1.37.28l.06,0c-.92-.2-1.18-.06-1.37.25s-.36,1,.61,1.48c1.18.61,1.91-.76,1-1.61h0c.74.41,1,.74,1.09,1a2,2,0,0,1-.61,1.33c-.28.19-.77.21-1.69-.27Z"/><path class="cls-10" d="M48.37,34.32c-.93-.49-1.18-.9-1.19-1.24a2,2,0,0,1,.75-1.25.85.85,0,0,1,.3,0c-.93.29-.92,1.71.25,2.33a1.17,1.17,0,0,0,1.68-1.49,1.27,1.27,0,0,1,.51.64,2,2,0,0,1-.61,1.33c-.28.19-.77.21-1.69-.27Z"/><path class="cls-8" d="M49.47,32.1c-.88-.44-1.13-.85-1.14-1.17a2,2,0,0,1,.72-1.23c.26-.1.69-.07,1.47.33s1.07.74,1.13,1a2,2,0,0,1-.56,1.3c-.27.19-.74.22-1.62-.24Z"/><path class="cls-11" d="M50.22,30.35c-.3-.16-.63-.12-.74.09s.06.5.36.66.63.11.73-.1,0-.5-.35-.65Z"/><path class="cls-9" d="M49.47,32.1c-.88-.44-1.13-.85-1.14-1.17a2,2,0,0,1,.72-1.23c.24-.1.63-.07,1.31.25,0,0,0,0,0,0-.87-.18-1.12,0-1.3.27s-.35.93.59,1.41c1.11.57,1.81-.76.93-1.57h0c.71.38,1,.7,1,1a2,2,0,0,1-.56,1.3c-.27.19-.74.22-1.62-.24Z"/><path class="cls-10" d="M49.47,32.1c-.88-.44-1.13-.85-1.14-1.17a2,2,0,0,1,.72-1.23.79.79,0,0,1,.29-.05c-.89.3-.88,1.68.23,2.25a1.14,1.14,0,0,0,1.61-1.47,1.12,1.12,0,0,1,.47.61,2,2,0,0,1-.56,1.3c-.27.19-.74.22-1.62-.24Z"/><path class="cls-8" d="M50.45,30.1c-.84-.42-1.08-.8-1.09-1.11A2.13,2.13,0,0,1,50,27.78c.25-.1.66-.08,1.41.29s1,.69,1.07.95A2,2,0,0,1,52,30.3c-.25.18-.7.22-1.53-.2Z"/><path class="cls-11" d="M51.15,28.38a.51.51,0,0,0-.69.11c-.1.2,0,.48.34.62a.5.5,0,0,0,.69-.1c.1-.2-.05-.48-.34-.63Z"/><path class="cls-9" d="M50.45,30.1c-.84-.42-1.08-.8-1.09-1.11A2.13,2.13,0,0,1,50,27.78c.23-.1.6-.08,1.25.21,0,0,0,0,.05,0-.83-.16-1.06,0-1.23.28s-.34.91.55,1.36c1.07.53,1.72-.78.89-1.54h0c.67.35.92.65,1,.9A2,2,0,0,1,52,30.3c-.25.18-.7.22-1.53-.2Z"/><path class="cls-10" d="M50.45,30.1c-.84-.42-1.08-.8-1.09-1.11A2.13,2.13,0,0,1,50,27.78a.78.78,0,0,1,.28-.05c-.85.31-.83,1.64.23,2.17a1.11,1.11,0,0,0,1.51-1.46,1.1,1.1,0,0,1,.46.58A2,2,0,0,1,52,30.3c-.25.18-.69.22-1.53-.2Z"/><path class="cls-8" d="M51.48,28c-.79-.39-1-.75-1-1.06a2,2,0,0,1,.64-1.17c.23-.11.63-.1,1.33.24s1,.65,1,.9a2,2,0,0,1-.51,1.24c-.24.18-.66.23-1.45-.15Z"/><path class="cls-11" d="M52.15,26.28a.48.48,0,0,0-.66.12c-.1.2,0,.47.32.6a.48.48,0,0,0,.66-.12.5.5,0,0,0-.32-.6Z"/><path class="cls-9" d="M51.48,28c-.79-.39-1-.75-1-1.06a2,2,0,0,1,.64-1.17,1.48,1.48,0,0,1,1.18.17l0,0c-.79-.13-1,0-1.17.31s-.31.89.53,1.29c1,.49,1.63-.79.84-1.5h0c.64.32.87.61.93.85a2,2,0,0,1-.51,1.24c-.24.18-.66.23-1.45-.15Z"/><path class="cls-10" d="M51.48,28c-.79-.39-1-.75-1-1.06a2,2,0,0,1,.64-1.17.53.53,0,0,1,.26-.06c-.8.31-.78,1.6.22,2.09A1.08,1.08,0,0,0,53,26.31a1,1,0,0,1,.43.56,2,2,0,0,1-.51,1.24c-.24.18-.66.23-1.45-.15Z"/><path class="cls-8" d="M52.4,26c-.75-.35-1-.69-1-1A2.09,2.09,0,0,1,52,23.84c.22-.11.59-.11,1.25.21s.91.59,1,.84a2,2,0,0,1-.48,1.21c-.23.18-.62.24-1.37-.12Z"/><path class="cls-11" d="M53,24.35a.45.45,0,0,0-.62.14c-.09.19.05.44.3.56a.46.46,0,0,0,.63-.13.47.47,0,0,0-.31-.57Z"/><path class="cls-9" d="M52.4,26c-.75-.35-1-.69-1-1A2.09,2.09,0,0,1,52,23.84c.2-.1.53-.11,1.11.14,0,0,0,0,0,0-.75-.11-1,0-1.11.32s-.29.87.51,1.24,1.53-.8.78-1.47h0c.61.3.83.57.89.8a2,2,0,0,1-.48,1.21c-.23.18-.62.24-1.37-.12Z"/><path class="cls-10" d="M52.4,26c-.75-.35-1-.7-1-1A2.09,2.09,0,0,1,52,23.84a.57.57,0,0,1,.24-.06,1.12,1.12,0,0,0,.22,2,1,1,0,0,0,1.35-1.42,1,1,0,0,1,.41.52,2,2,0,0,1-.48,1.21c-.22.18-.62.24-1.37-.12Z"/><path class="cls-8" d="M53.31,24c-.71-.32-.91-.65-.92-.93A2,2,0,0,1,53,21.91c.21-.11.55-.12,1.18.17s.86.55.91.78A2,2,0,0,1,54.61,24c-.22.18-.59.25-1.3-.07Z"/><path class="cls-11" d="M53.9,22.38a.43.43,0,0,0-.59.14.45.45,0,0,0,.29.54.42.42,0,0,0,.58-.14.43.43,0,0,0-.28-.54Z"/><path class="cls-9" d="M53.31,24c-.71-.32-.91-.65-.92-.93A2,2,0,0,1,53,21.91c.19-.1.5-.12,1,.11l0,0c-.7-.08-.89.07-1,.34a.78.78,0,0,0,.48,1.18c.9.41,1.44-.81.74-1.44h0c.57.27.78.53.83.75A2,2,0,0,1,54.61,24c-.22.18-.59.25-1.3-.07Z"/><path class="cls-10" d="M53.31,24c-.71-.32-.9-.65-.92-.93A2,2,0,0,1,53,21.91a.69.69,0,0,1,.23-.07,1.09,1.09,0,0,0,.21,1.94,1,1,0,0,0,1.26-1.41.82.82,0,0,1,.39.49A2,2,0,0,1,54.61,24c-.22.18-.59.25-1.3-.07Z"/><path class="cls-8" d="M54.11,22.11c-.67-.29-.86-.6-.86-.87a2.09,2.09,0,0,1,.52-1.1c.2-.11.52-.13,1.11.12s.81.51.86.73a2,2,0,0,1-.42,1.15c-.2.18-.55.26-1.21,0Z"/><path class="cls-11" d="M54.65,20.56a.39.39,0,0,0-.54.16.41.41,0,0,0,.27.51.39.39,0,0,0,.54-.16.41.41,0,0,0-.27-.51Z"/><path class="cls-9" d="M54.11,22.11c-.67-.29-.86-.6-.86-.87a2.09,2.09,0,0,1,.52-1.1c.18-.11.48-.13,1,.07l0,0c-.66-.06-.84.09-1,.36a.74.74,0,0,0,.44,1.12c.85.37,1.35-.82.7-1.41h0c.53.25.73.49.78.7a2,2,0,0,1-.42,1.15c-.2.18-.55.26-1.21,0Z"/><path class="cls-10" d="M54.11,22.11c-.67-.29-.85-.6-.86-.87a2.09,2.09,0,0,1,.52-1.1.63.63,0,0,1,.22-.07,1.06,1.06,0,0,0,.2,1.86c.77.33,1.52-.59,1.18-1.4a.81.81,0,0,1,.37.46,2.1,2.1,0,0,1-.42,1.15c-.2.18-.55.26-1.21,0Z"/><path class="cls-8" d="M47.2,36.45C46.3,36,46,35.56,46,35.23A2,2,0,0,1,46.78,34c.26-.1.71-.06,1.52.36s1.09.77,1.16,1a2,2,0,0,1-.59,1.31c-.28.18-.76.2-1.67-.27Z"/><path class="cls-11" d="M48,34.67c-.31-.16-.65-.12-.76.09s.06.51.36.67.65.12.76-.08-.05-.51-.36-.68Z"/><path class="cls-9" d="M47.2,36.45C46.3,36,46,35.56,46,35.23A2,2,0,0,1,46.78,34c.24-.09.64-.06,1.34.28l.06,0c-.9-.2-1.15-.06-1.34.25s-.36.94.6,1.44c1.15.61,1.87-.74,1-1.57h0c.74.39,1,.72,1.07,1a2,2,0,0,1-.59,1.31c-.28.18-.76.2-1.67-.27Z"/><path class="cls-10" d="M47.2,36.45C46.3,36,46,35.56,46,35.23A2,2,0,0,1,46.78,34a.62.62,0,0,1,.29,0c-.92.28-.91,1.68.24,2.28A1.15,1.15,0,0,0,49,34.78a1.17,1.17,0,0,1,.5.63,2,2,0,0,1-.59,1.31c-.28.18-.76.2-1.67-.27Z"/><path class="cls-8" d="M46,38.58c-.89-.47-1.14-.87-1.15-1.2a2,2,0,0,1,.73-1.2c.26-.1.7-.07,1.49.35s1.08.76,1.14,1a1.92,1.92,0,0,1-.58,1.28c-.26.18-.74.2-1.63-.26Z"/><path class="cls-11" d="M46.8,36.84c-.3-.16-.63-.13-.74.08s0,.5.35.66.64.12.75-.08-.06-.5-.36-.66Z"/><path class="cls-9" d="M46,38.58c-.89-.47-1.14-.87-1.15-1.2a2,2,0,0,1,.73-1.2c.24-.1.63-.07,1.32.27l.06,0c-.89-.2-1.13-.06-1.32.24s-.36.92.59,1.42c1.13.59,1.83-.73.95-1.54v0c.72.39,1,.72,1,1a1.92,1.92,0,0,1-.58,1.28c-.26.18-.74.2-1.63-.26Z"/><path class="cls-10" d="M46,38.58c-.89-.47-1.14-.87-1.15-1.2a2,2,0,0,1,.73-1.2.63.63,0,0,1,.29,0c-.9.28-.89,1.65.23,2.24a1.13,1.13,0,0,0,1.63-1.43,1.15,1.15,0,0,1,.48.62,1.92,1.92,0,0,1-.58,1.28c-.26.18-.74.2-1.63-.26Z"/><path class="cls-8" d="M44.93,40.6c-.88-.46-1.12-.85-1.13-1.17a1.9,1.9,0,0,1,.72-1.18c.25-.1.69-.06,1.46.34s1.06.74,1.12,1a2,2,0,0,1-.56,1.26c-.27.18-.73.2-1.61-.26Z"/><path class="cls-11" d="M45.68,38.89c-.3-.15-.63-.12-.73.08s0,.49.35.65.62.12.73-.08-.05-.49-.35-.65Z"/><path class="cls-9" d="M44.93,40.6c-.88-.46-1.12-.85-1.13-1.17a1.9,1.9,0,0,1,.72-1.18c.23-.1.62-.07,1.3.26l0,0c-.87-.19-1.11,0-1.29.24s-.35.91.58,1.39c1.11.58,1.8-.71.93-1.51h0c.7.38,1,.69,1,1a2,2,0,0,1-.56,1.26c-.27.18-.73.2-1.61-.26Z"/><path class="cls-10" d="M44.93,40.6c-.88-.46-1.12-.85-1.13-1.17a1.9,1.9,0,0,1,.72-1.18.59.59,0,0,1,.28,0c-.88.28-.87,1.62.23,2.2A1.11,1.11,0,0,0,46.63,39a1.19,1.19,0,0,1,.47.61,2,2,0,0,1-.56,1.26c-.27.18-.73.2-1.61-.26Z"/><path class="cls-8" d="M43.85,42.64c-.86-.45-1.1-.84-1.11-1.15a1.92,1.92,0,0,1,.7-1.17c.25-.09.68,0,1.44.35s1,.73,1.1,1a1.92,1.92,0,0,1-.56,1.24c-.26.16-.71.19-1.57-.26Z"/><path class="cls-11" d="M44.58,41c-.29-.15-.61-.12-.72.08s0,.48.35.63.61.12.71-.07-.05-.48-.34-.64Z"/><path class="cls-9" d="M43.85,42.64c-.86-.45-1.1-.84-1.11-1.15a1.92,1.92,0,0,1,.7-1.17,1.69,1.69,0,0,1,1.27.26s0,0,.06,0c-.85-.19-1.09-.06-1.27.23s-.34.89.57,1.37c1.09.57,1.77-.7.91-1.49h0c.69.37,1,.69,1,.94a1.92,1.92,0,0,1-.56,1.24c-.26.16-.71.19-1.57-.26Z"/><path class="cls-10" d="M43.85,42.64c-.86-.45-1.1-.84-1.11-1.15a1.92,1.92,0,0,1,.7-1.17.75.75,0,0,1,.28,0c-.87.27-.86,1.59.23,2.16a1.08,1.08,0,0,0,1.56-1.38,1.14,1.14,0,0,1,.47.6,1.92,1.92,0,0,1-.56,1.24c-.26.16-.71.19-1.57-.26Z"/><path class="cls-8" d="M42.72,44.69c-.8-.53-1-.94-1-1.25a1.92,1.92,0,0,1,.8-1.09c.26-.06.67,0,1.39.49s1,.82,1,1.09a2,2,0,0,1-.66,1.18c-.28.14-.73.12-1.54-.42Z"/><path class="cls-11" d="M43.6,43.1c-.27-.18-.59-.18-.71,0s0,.48.28.66a.54.54,0,0,0,.72,0c.12-.19,0-.49-.29-.67Z"/><path class="cls-9" d="M42.72,44.69c-.8-.53-1-.94-1-1.25a1.92,1.92,0,0,1,.8-1.09c.24-.06.61,0,1.24.39,0,0,0,0,0,0-.83-.27-1.08-.17-1.28.1s-.42.85.43,1.42c1,.67,1.81-.52,1.05-1.39h0c.64.44.87.77.9,1a2,2,0,0,1-.66,1.18c-.28.14-.73.12-1.54-.42Z"/><path class="cls-10" d="M42.72,44.69c-.8-.53-1-.94-1-1.25a1.92,1.92,0,0,1,.8-1.09.84.84,0,0,1,.28,0c-.88.18-1,1.49,0,2.17a1.08,1.08,0,0,0,1.68-1.22,1.14,1.14,0,0,1,.4.64,2,2,0,0,1-.66,1.18c-.28.14-.73.12-1.54-.42Z"/><path class="cls-8" d="M41.46,46.54c-.74-.62-.91-1-.86-1.36a1.86,1.86,0,0,1,.91-1c.27,0,.67.08,1.34.62s.87.92.88,1.2A1.86,1.86,0,0,1,43,47.11c-.28.11-.73,0-1.49-.57Z"/><path class="cls-11" d="M42.5,45c-.26-.21-.57-.24-.71-.06s0,.48.21.69.58.24.71.07,0-.49-.21-.7Z"/><path class="cls-9" d="M41.46,46.54c-.74-.62-.91-1-.86-1.36a1.86,1.86,0,0,1,.91-1c.25,0,.61.06,1.19.51l0,0c-.79-.36-1-.27-1.28,0s-.51.81.29,1.46c1,.78,1.86-.34,1.18-1.29a0,0,0,0,1,0,0c.6.51.79.86.8,1.13A1.86,1.86,0,0,1,43,47.11c-.28.11-.73,0-1.49-.57Z"/><path class="cls-10" d="M41.46,46.54c-.74-.62-.91-1-.86-1.36a1.86,1.86,0,0,1,.91-1,.68.68,0,0,1,.28,0c-.89.1-1.14,1.4-.19,2.18a1.08,1.08,0,0,0,1.79-1.06,1.11,1.11,0,0,1,.34.69A1.86,1.86,0,0,1,43,47.11c-.28.11-.73,0-1.49-.57Z"/><path class="cls-8" d="M39.86,48.12c-.7-.7-.82-1.15-.74-1.46a1.91,1.91,0,0,1,1-.93c.27,0,.67.15,1.29.77s.78,1,.77,1.29a1.92,1.92,0,0,1-.89,1.05c-.3.09-.75,0-1.44-.72Z"/><path class="cls-11" d="M41,46.7c-.23-.24-.55-.3-.71-.14s-.09.49.15.72.56.3.71.14.09-.48-.15-.72Z"/><path class="cls-9" d="M39.86,48.12c-.7-.7-.82-1.15-.74-1.46a1.91,1.91,0,0,1,1-.93c.25,0,.61.13,1.15.64,0,0,0,0,0,.05-.76-.45-1-.38-1.29-.15s-.58.76.16,1.5,1.9-.16,1.31-1.18a0,0,0,0,0,0,0c.56.57.71,1,.7,1.21a1.92,1.92,0,0,1-.89,1.05c-.3.09-.75,0-1.44-.72Z"/><path class="cls-10" d="M39.86,48.12c-.7-.7-.82-1.15-.74-1.46a1.91,1.91,0,0,1,1-.93,1,1,0,0,1,.28,0c-.91,0-1.28,1.31-.4,2.19a1.09,1.09,0,0,0,1.9-.89,1.18,1.18,0,0,1,.28.72,1.92,1.92,0,0,1-.89,1.05c-.3.09-.75,0-1.44-.72Z"/><path class="cls-8" d="M51.85,34.17c-1-.35-1.3-.72-1.36-1.05a2.11,2.11,0,0,1,.59-1.35c.26-.13.72-.15,1.59.16s1.21.62,1.32.88a2.09,2.09,0,0,1-.42,1.4c-.26.22-.74.31-1.72,0Z"/><path class="cls-11" d="M52.16,32.25c-.34-.12-.68,0-.76.19s.12.5.46.62.67,0,.76-.19-.13-.5-.46-.62Z"/><path class="cls-9" d="M51.85,34.17c-1-.35-1.3-.72-1.36-1.05a2.11,2.11,0,0,1,.59-1.35,1.92,1.92,0,0,1,1.4.09s.06,0,.06,0c-.94-.08-1.17.1-1.32.44s-.24,1,.8,1.36c1.25.45,1.79-1,.77-1.71h0c.8.29,1.12.58,1.22.84a2.09,2.09,0,0,1-.42,1.4c-.26.22-.74.31-1.72,0Z"/><path class="cls-10" d="M51.85,34.17c-1-.35-1.3-.72-1.36-1.05a2.11,2.11,0,0,1,.59-1.35.72.72,0,0,1,.29-.08c-.89.42-.69,1.82.56,2.26a1.17,1.17,0,0,0,1.47-1.7,1.27,1.27,0,0,1,.59.56,2.09,2.09,0,0,1-.42,1.4c-.26.22-.74.31-1.72,0Z"/><path class="cls-8" d="M52.83,31.83c-.92-.32-1.22-.68-1.27-1a2,2,0,0,1,.54-1.3c.25-.14.68-.17,1.5.12s1.15.57,1.25.83a2,2,0,0,1-.39,1.35c-.24.22-.7.31-1.63,0Z"/><path class="cls-11" d="M53.12,30c-.31-.1-.63,0-.71.2s.12.48.44.59a.54.54,0,0,0,.71-.2c.08-.21-.12-.48-.44-.59Z"/><path class="cls-9" d="M52.83,31.83c-.92-.32-1.22-.68-1.27-1a2,2,0,0,1,.54-1.3,1.73,1.73,0,0,1,1.33.06s0,0,0,0c-.88-.05-1.1.12-1.24.45S52,31,53,31.37c1.18.41,1.69-1,.72-1.67h0c.75.28,1.06.55,1.15.8a2,2,0,0,1-.39,1.35c-.24.22-.7.31-1.63,0Z"/><path class="cls-10" d="M52.83,31.83c-.92-.32-1.22-.68-1.27-1a2,2,0,0,1,.54-1.3.92.92,0,0,1,.28-.09c-.84.42-.64,1.76.53,2.17A1.13,1.13,0,0,0,54.29,30a1.1,1.1,0,0,1,.56.53,2,2,0,0,1-.39,1.35c-.24.22-.7.31-1.63,0Z"/><path class="cls-8" d="M53.65,29.59c-.87-.29-1.15-.63-1.2-.93A2,2,0,0,1,53,27.4c.23-.14.64-.18,1.41.08s1.08.53,1.18.78a1.92,1.92,0,0,1-.36,1.3c-.22.22-.65.32-1.53,0Z"/><path class="cls-11" d="M53.92,27.81c-.3-.1-.6,0-.67.2s.12.46.41.56.6,0,.67-.2-.11-.46-.41-.56Z"/><path class="cls-9" d="M53.65,29.59c-.87-.29-1.15-.63-1.2-.93A2,2,0,0,1,53,27.4a1.55,1.55,0,0,1,1.24,0l.06,0c-.83,0-1,.14-1.17.45s-.2.93.73,1.24c1.11.37,1.57-1,.66-1.62h0c.7.25,1,.51,1.08.75a1.92,1.92,0,0,1-.36,1.3c-.22.22-.65.32-1.53,0Z"/><path class="cls-10" d="M53.65,29.59c-.87-.29-1.15-.63-1.2-.93A2,2,0,0,1,53,27.4a.67.67,0,0,1,.26-.1c-.78.42-.59,1.71.51,2.08A1.09,1.09,0,0,0,55,27.76a1,1,0,0,1,.53.5,1.92,1.92,0,0,1-.36,1.3c-.22.22-.65.32-1.53,0Z"/><path class="cls-8" d="M54.56,27.58c-.83-.26-1.09-.57-1.14-.86a2,2,0,0,1,.47-1.22c.21-.14.59-.18,1.32.05s1,.48,1.1.72A2,2,0,0,1,56,27.53c-.21.21-.6.32-1.42,0Z"/><path class="cls-11" d="M54.79,25.87c-.28-.09-.56,0-.62.21s.11.44.39.53a.47.47,0,0,0,.62-.21c.06-.2-.11-.44-.39-.53Z"/><path class="cls-9" d="M54.56,27.58c-.83-.26-1.09-.57-1.14-.86a2,2,0,0,1,.47-1.22c.19-.13.53-.18,1.16,0l.05,0c-.78,0-1,.16-1.09.46s-.19.89.68,1.17c1,.33,1.47-1,.62-1.56h0c.67.22.93.46,1,.69A2,2,0,0,1,56,27.53c-.21.21-.6.32-1.42,0Z"/><path class="cls-10" d="M54.56,27.58c-.83-.26-1.09-.57-1.14-.86a2,2,0,0,1,.47-1.22.67.67,0,0,1,.24-.1,1.12,1.12,0,0,0,.49,2,1.05,1.05,0,0,0,1.2-1.58,1,1,0,0,1,.49.47A2,2,0,0,1,56,27.53c-.21.21-.6.32-1.42,0Z"/><path class="cls-8" d="M55.36,25.42c-.76-.23-1-.53-1.06-.81a2,2,0,0,1,.42-1.17c.2-.14.55-.19,1.23,0s.95.44,1,.66a2,2,0,0,1-.3,1.22c-.19.2-.56.31-1.33.08Z"/><path class="cls-11" d="M55.57,23.78A.44.44,0,0,0,55,24c-.06.2.11.42.37.5a.45.45,0,0,0,.58-.21.45.45,0,0,0-.37-.5Z"/><path class="cls-9" d="M55.36,25.42c-.76-.23-1-.53-1.06-.81a2,2,0,0,1,.42-1.17c.19-.13.5-.18,1.09,0l0,0c-.72,0-.9.17-1,.47s-.17.86.64,1.1c1,.3,1.36-1,.56-1.51h0c.61.2.86.43,1,.64a2,2,0,0,1-.3,1.22c-.19.2-.56.31-1.33.08Z"/><path class="cls-10" d="M55.36,25.42c-.76-.23-1-.53-1.06-.81a2,2,0,0,1,.42-1.17.8.8,0,0,1,.23-.1,1.08,1.08,0,0,0,.47,1.89,1,1,0,0,0,1.1-1.55.92.92,0,0,1,.47.44,2,2,0,0,1-.3,1.22c-.19.2-.56.31-1.33.08Z"/><path class="cls-8" d="M56,23.46c-.71-.2-.94-.48-1-.75a2,2,0,0,1,.39-1.14c.18-.13.51-.19,1.14,0s.88.4,1,.61a1.93,1.93,0,0,1-.26,1.17c-.18.2-.53.32-1.24.12Z"/><path class="cls-11" d="M56.2,21.88a.37.37,0,1,0-.2.68.37.37,0,1,0,.2-.68Z"/><path class="cls-9" d="M56,23.46c-.71-.2-.94-.48-1-.75a2,2,0,0,1,.39-1.14,1.21,1.21,0,0,1,1-.05l.05,0c-.67,0-.84.19-.94.47s-.14.83.61,1,1.25-1,.51-1.46h0c.57.18.8.39.88.59a1.93,1.93,0,0,1-.26,1.17c-.18.2-.53.32-1.24.12Z"/><path class="cls-10" d="M56,23.46c-.71-.2-.94-.48-1-.75a2,2,0,0,1,.39-1.14.51.51,0,0,1,.21-.09,1,1,0,0,0,.45,1.79,1,1,0,0,0,1-1.51.81.81,0,0,1,.43.41,1.93,1.93,0,0,1-.26,1.17c-.18.2-.53.32-1.24.12Z"/><path class="cls-8" d="M56.56,21.57c-.65-.17-.87-.43-.91-.68a1.93,1.93,0,0,1,.34-1.1c.17-.13.47-.2,1,0s.81.35.89.55a2,2,0,0,1-.24,1.13c-.16.19-.47.32-1.13.14Z"/><path class="cls-11" d="M56.72,20.06a.35.35,0,1,0-.17.66.35.35,0,1,0,.17-.66Z"/><path class="cls-9" d="M56.56,21.57c-.65-.17-.87-.43-.91-.68a1.93,1.93,0,0,1,.34-1.1,1.07,1.07,0,0,1,.92-.08l.05,0c-.62,0-.77.2-.86.48a.69.69,0,0,0,.57,1c.82.22,1.14-1,.45-1.41h0c.53.14.75.34.82.53a2,2,0,0,1-.24,1.13c-.16.19-.47.32-1.13.14Z"/><path class="cls-10" d="M56.56,21.57c-.65-.17-.87-.43-.91-.68a1.93,1.93,0,0,1,.34-1.1.67.67,0,0,1,.19-.1,1,1,0,0,0,.43,1.7c.76.2,1.34-.76.92-1.47a.78.78,0,0,1,.4.38,2,2,0,0,1-.24,1.13c-.16.19-.47.32-1.13.14Z"/><path class="cls-8" d="M57.16,19.71c-.6-.14-.8-.39-.85-.62A2,2,0,0,1,56.62,18c.15-.13.42-.2,1-.08s.74.31.82.5a2,2,0,0,1-.21,1.08c-.15.19-.43.32-1,.18Z"/><path class="cls-11" d="M57.28,18.26a.35.35,0,0,0-.44.23.38.38,0,1,0,.44-.23Z"/><path class="cls-9" d="M57.16,19.71c-.6-.14-.8-.39-.85-.62A2,2,0,0,1,56.62,18a.92.92,0,0,1,.84-.1h0c-.57,0-.7.22-.78.48a.64.64,0,0,0,.52.91c.77.18,1-.95.41-1.36h0c.49.12.69.3.76.48a2,2,0,0,1-.21,1.08c-.15.19-.43.32-1,.18Z"/><path class="cls-10" d="M57.16,19.71c-.6-.14-.8-.39-.85-.62A2,2,0,0,1,56.62,18a.4.4,0,0,1,.17-.1.94.94,0,0,0,.41,1.6c.7.17,1.22-.77.82-1.43a.73.73,0,0,1,.38.35,2,2,0,0,1-.21,1.08c-.15.19-.43.32-1,.18Z"/><path class="cls-8" d="M57.72,18c-.55-.11-.73-.33-.77-.56a1.93,1.93,0,0,1,.27-1c.13-.13.38-.2.86-.11s.68.27.75.45a2,2,0,0,1-.18,1c-.13.19-.38.32-.93.21Z"/><path class="cls-11" d="M57.82,16.57a.33.33,0,0,0-.4.24.32.32,0,0,0,.27.37.31.31,0,1,0,.13-.61Z"/><path class="cls-9" d="M57.72,18c-.55-.11-.73-.33-.77-.56a1.93,1.93,0,0,1,.27-1c.12-.12.34-.19.76-.13,0,0,0,0,0,0-.51.08-.63.24-.7.49a.6.6,0,0,0,.49.85c.69.14.93-1,.35-1.31h0c.44.1.62.26.69.43a2,2,0,0,1-.18,1c-.13.19-.38.32-.93.21Z"/><path class="cls-10" d="M57.72,18c-.55-.11-.73-.33-.77-.56a1.93,1.93,0,0,1,.27-1,.36.36,0,0,1,.15-.1.91.91,0,0,0,.39,1.51c.63.13,1.09-.78.73-1.39a.6.6,0,0,1,.34.32,2,2,0,0,1-.18,1c-.13.19-.38.32-.93.21Z"/><path class="cls-8" d="M57.83,16.18c-.49-.08-.66-.28-.7-.49a2,2,0,0,1,.22-1c.12-.13.35-.22.78-.15s.62.23.68.39a1.91,1.91,0,0,1-.15,1c-.11.19-.34.33-.83.24Z"/><path class="cls-11" d="M57.9,14.86a.31.31,0,0,0-.36.24.29.29,0,0,0,.25.34.3.3,0,0,0,.35-.24.29.29,0,0,0-.24-.34Z"/><path class="cls-9" d="M57.83,16.18c-.49-.08-.66-.28-.7-.49a2,2,0,0,1,.22-1c.11-.13.31-.2.69-.16h0c-.46.09-.57.25-.62.49s-.08.7.44.79.83-.95.3-1.26h0c.4.08.57.22.63.38a1.91,1.91,0,0,1-.15,1c-.11.19-.34.33-.83.24Z"/><path class="cls-10" d="M57.83,16.18c-.49-.08-.66-.28-.7-.49a2,2,0,0,1,.22-1,.45.45,0,0,1,.14-.1A.86.86,0,0,0,57.86,16c.57.1,1-.79.64-1.35a.51.51,0,0,1,.31.28,1.91,1.91,0,0,1-.15,1c-.11.19-.34.33-.83.24Z"/><path class="cls-8" d="M50.71,36.4c-.93-.39-1.22-.78-1.26-1.1A2,2,0,0,1,50.09,34c.26-.12.71-.12,1.54.24s1.15.66,1.24.93a2,2,0,0,1-.48,1.34c-.26.2-.74.27-1.68-.13Z"/><path class="cls-11" d="M51.12,34.54c-.32-.13-.66-.07-.75.15s.09.49.41.63.66.07.75-.15-.09-.49-.41-.63Z"/><path class="cls-9" d="M50.71,36.4c-.93-.39-1.22-.78-1.26-1.1A2,2,0,0,1,50.09,34a1.81,1.81,0,0,1,1.36.16l.06,0c-.91-.12-1.15,0-1.31.36s-.29,1,.71,1.37c1.19.51,1.8-.88.84-1.63h0c.76.33,1.05.64,1.14.89a2,2,0,0,1-.48,1.34c-.26.2-.74.27-1.68-.13Z"/><path class="cls-10" d="M50.71,36.4c-.93-.39-1.22-.78-1.26-1.1A2,2,0,0,1,50.09,34a.77.77,0,0,1,.29-.07c-.89.36-.76,1.74.42,2.24a1.15,1.15,0,0,0,1.53-1.58,1.21,1.21,0,0,1,.54.58,2,2,0,0,1-.48,1.34c-.26.2-.74.27-1.68-.13Z"/><path class="cls-8" d="M49.61,38.65c-.89-.44-1.15-.83-1.17-1.15a2,2,0,0,1,.7-1.21c.26-.11.69-.08,1.49.31s1.08.72,1.15,1a2,2,0,0,1-.54,1.29c-.27.18-.73.21-1.63-.23Z"/><path class="cls-11" d="M50.11,36.86c-.3-.16-.63-.11-.73.09s.06.49.36.64.64.11.74-.09-.07-.49-.37-.64Z"/><path class="cls-9" d="M49.61,38.65c-.89-.44-1.15-.83-1.17-1.15a2,2,0,0,1,.7-1.21c.24-.1.63-.08,1.32.23l0,0c-.88-.17-1.12,0-1.3.28s-.33.92.62,1.38c1.13.57,1.8-.76.91-1.55h0c.71.37,1,.69,1.05.94a2,2,0,0,1-.54,1.29c-.27.18-.73.21-1.63-.23Z"/><path class="cls-10" d="M49.61,38.65c-.89-.44-1.15-.83-1.17-1.15a2,2,0,0,1,.7-1.21.62.62,0,0,1,.29-.06c-.89.3-.85,1.66.28,2.22A1.12,1.12,0,0,0,51.29,37a1.15,1.15,0,0,1,.49.6,2,2,0,0,1-.54,1.29c-.27.18-.73.21-1.63-.23Z"/><path class="cls-8" d="M48.39,41.07c-.94-.54-1.2-1-1.2-1.34A2.2,2.2,0,0,1,48,38.45c.29-.09.76,0,1.6.45s1.13.86,1.2,1.16a2.22,2.22,0,0,1-.68,1.37c-.3.18-.81.18-1.76-.36Z"/><path class="cls-11" d="M49.05,39.14c-.32-.18-.68-.16-.81.06s0,.54.36.72.69.16.81-.05,0-.54-.36-.73Z"/><path class="cls-9" d="M48.39,41.07c-.94-.54-1.2-1-1.2-1.34A2.2,2.2,0,0,1,48,38.45c.26-.09.69,0,1.42.35,0,0,0,0,.06,0-.95-.25-1.22-.11-1.44.21s-.42,1,.59,1.56c1.2.69,2-.71,1.09-1.64h0c.76.45,1,.81,1.1,1.1a2.22,2.22,0,0,1-.68,1.37c-.3.18-.81.18-1.76-.36Z"/><path class="cls-10" d="M48.39,41.07c-.94-.54-1.2-1-1.2-1.34A2.2,2.2,0,0,1,48,38.45a.74.74,0,0,1,.31,0c-1,.26-1,1.75.17,2.44a1.22,1.22,0,0,0,1.81-1.49,1.29,1.29,0,0,1,.51.69,2.22,2.22,0,0,1-.68,1.37c-.3.18-.81.18-1.76-.36Z"/><path class="cls-8" d="M47.15,43.23c-.9-.59-1.12-1-1.1-1.39a2.12,2.12,0,0,1,.9-1.21c.28-.08.75,0,1.54.54s1.06.92,1.11,1.22a2.11,2.11,0,0,1-.75,1.3c-.3.16-.81.14-1.7-.46Z"/><path class="cls-11" d="M47.91,41.38c-.31-.21-.66-.21-.8,0s0,.54.31.74.66.2.8,0,0-.54-.31-.73Z"/><path class="cls-9" d="M47.15,43.23c-.9-.59-1.12-1-1.1-1.39a2.12,2.12,0,0,1,.9-1.21c.26-.07.68,0,1.37.43l.06,0c-.92-.3-1.2-.18-1.42.12s-.48,1,.47,1.57c1.14.76,2-.57,1.17-1.54h0c.72.49,1,.86,1,1.15a2.11,2.11,0,0,1-.75,1.3c-.3.16-.81.14-1.7-.46Z"/><path class="cls-10" d="M47.15,43.23c-.9-.59-1.12-1-1.1-1.39a2.12,2.12,0,0,1,.9-1.21,1,1,0,0,1,.31,0c-1,.21-1.11,1.67,0,2.42a1.2,1.2,0,0,0,1.87-1.36,1.31,1.31,0,0,1,.45.72,2.11,2.11,0,0,1-.75,1.3c-.3.16-.81.14-1.7-.46Z"/><path class="cls-8" d="M38.43,49.3c-.64-.63-.75-1-.67-1.33a1.77,1.77,0,0,1,.92-.85c.25,0,.61.13,1.18.7s.72.93.71,1.19a1.74,1.74,0,0,1-.82,1c-.27.09-.68,0-1.32-.66Z"/><path class="cls-9" d="M38.43,49.3c-.64-.63-.75-1-.67-1.33a1.77,1.77,0,0,1,.92-.85c.23,0,.56.11,1.06.58,0,0,0,0,0,0-.7-.4-1-.34-1.18-.13s-.54.7.14,1.38,1.74-.15,1.19-1.09h0c.51.52.65.87.64,1.12a1.74,1.74,0,0,1-.82,1c-.27.09-.68,0-1.32-.66Z"/><path class="cls-10" d="M38.43,49.3c-.64-.63-.75-1-.67-1.33a1.77,1.77,0,0,1,.92-.85.5.5,0,0,1,.26,0c-.84,0-1.17,1.19-.36,2a1,1,0,0,0,1.73-.81,1.12,1.12,0,0,1,.26.67,1.74,1.74,0,0,1-.82,1c-.27.09-.68,0-1.32-.66Z"/><path class="cls-8" d="M54.84,20.3c-.62-.25-.8-.55-.81-.81a2,2,0,0,1,.49-1.07c.18-.12.49-.15,1,.08s.75.46.8.67A2.1,2.1,0,0,1,56,20.29c-.18.18-.51.26-1.13,0Z"/><path class="cls-11" d="M55.34,18.79a.38.38,0,0,0-.51.17.4.4,0,0,0,.26.48.38.38,0,0,0,.51-.17.39.39,0,0,0-.26-.48Z"/><path class="cls-9" d="M54.84,20.3c-.62-.25-.8-.55-.81-.81a2,2,0,0,1,.49-1.07c.17-.11.44-.14.92,0l0,0c-.62,0-.78.11-.91.38A.71.71,0,0,0,55,19.92c.79.32,1.26-.85.64-1.39h0c.51.22.69.45.74.65A2.1,2.1,0,0,1,56,20.29c-.18.18-.51.26-1.13,0Z"/><path class="cls-10" d="M54.84,20.3c-.62-.26-.8-.55-.81-.81a2,2,0,0,1,.49-1.07.44.44,0,0,1,.2-.08,1,1,0,0,0,.19,1.78c.73.3,1.42-.61,1.11-1.39a.76.76,0,0,1,.34.44A2.13,2.13,0,0,1,56,20.29c-.18.18-.51.26-1.13,0Z"/><path class="cls-8" d="M55.55,18.42c-.58-.22-.75-.49-.76-.74a2.12,2.12,0,0,1,.45-1.05c.18-.12.46-.16,1,0s.7.42.75.62a2.14,2.14,0,0,1-.36,1.09c-.17.18-.48.27-1.05.05Z"/><path class="cls-11" d="M56,17a.36.36,0,0,0-.47.18.37.37,0,0,0,.23.46.37.37,0,0,0,.48-.18A.37.37,0,0,0,56,17Z"/><path class="cls-9" d="M55.55,18.42c-.58-.22-.75-.49-.76-.74a2.12,2.12,0,0,1,.45-1.05.91.91,0,0,1,.86,0s0,0,0,0c-.57,0-.72.14-.84.4a.68.68,0,0,0,.4,1c.73.28,1.17-.86.59-1.35h0c.47.19.64.4.69.59a2.14,2.14,0,0,1-.36,1.09c-.17.18-.48.27-1.05.05Z"/><path class="cls-10" d="M55.55,18.42c-.58-.22-.75-.49-.76-.74a2.12,2.12,0,0,1,.45-1.05.66.66,0,0,1,.19-.09,1,1,0,0,0,.18,1.71c.68.26,1.32-.64,1-1.37a.67.67,0,0,1,.32.4,2.14,2.14,0,0,1-.36,1.09c-.17.18-.48.27-1.05.05Z"/><path class="cls-8" d="M56.16,16.58c-.53-.19-.69-.45-.7-.69a2.18,2.18,0,0,1,.41-1c.16-.12.42-.17.89,0s.65.37.7.55a2.24,2.24,0,0,1-.33,1.06c-.16.19-.44.29-1,.1Z"/><path class="cls-11" d="M56.58,15.15a.33.33,0,1,0-.21.62.33.33,0,0,0,.43-.19.33.33,0,0,0-.22-.43Z"/><path class="cls-9" d="M56.16,16.58c-.53-.19-.69-.45-.7-.69a2.18,2.18,0,0,1,.41-1,.86.86,0,0,1,.79,0l0,0c-.52,0-.66.16-.77.41a.63.63,0,0,0,.37,1c.67.24,1.07-.86.54-1.32h0c.43.16.59.35.64.53a2.24,2.24,0,0,1-.33,1.06c-.16.19-.44.29-1,.1Z"/><path class="cls-10" d="M56.16,16.58c-.53-.19-.69-.45-.7-.69a2.18,2.18,0,0,1,.41-1,.51.51,0,0,1,.18-.09,1,1,0,0,0,.17,1.63c.62.22,1.22-.67.94-1.36a.7.7,0,0,1,.3.37,2.24,2.24,0,0,1-.33,1.06c-.16.18-.44.29-1,.1Z"/><path class="cls-8" d="M56.58,14.86c-.49-.16-.63-.39-.64-.62a2.07,2.07,0,0,1,.38-1c.14-.13.38-.18.81-.05s.6.33.64.51a2.3,2.3,0,0,1-.3,1c-.14.18-.4.28-.89.13Z"/><path class="cls-11" d="M57,13.47a.33.33,0,0,0-.41.21.32.32,0,0,0,.61.19.32.32,0,0,0-.2-.4Z"/><path class="cls-9" d="M56.58,14.86c-.49-.16-.63-.39-.64-.62a2.07,2.07,0,0,1,.38-1c.12-.12.34-.18.72-.08l0,0c-.48,0-.62.18-.71.43s-.18.73.34.89,1-.87.49-1.28h0c.4.14.55.31.59.49a2.3,2.3,0,0,1-.3,1c-.14.18-.4.28-.89.13Z"/><path class="cls-10" d="M56.58,14.86c-.49-.16-.63-.39-.64-.62a2.07,2.07,0,0,1,.38-1,.38.38,0,0,1,.15-.09.93.93,0,0,0,.17,1.55c.57.17,1.11-.7.85-1.35a.59.59,0,0,1,.28.35,2.3,2.3,0,0,1-.3,1c-.14.18-.4.28-.89.13Z"/><path class="cls-8" d="M46,32c-.92-.48-1.18-.9-1.19-1.23a2.09,2.09,0,0,1,.75-1.26c.28-.1.73-.05,1.55.37s1.12.79,1.19,1.07a2.1,2.1,0,0,1-.6,1.33c-.28.19-.77.21-1.7-.28Z"/><path class="cls-9" d="M46,32c-.92-.48-1.18-.9-1.19-1.23a2.09,2.09,0,0,1,.75-1.26,1.91,1.91,0,0,1,1.38.28s.05,0,.06,0c-.92-.21-1.18-.06-1.37.25s-.37,1,.61,1.47,1.39.05,1.56-.33.12-.63-.58-1.27h0c.75.4,1,.74,1.09,1a2.1,2.1,0,0,1-.6,1.33c-.28.19-.77.21-1.7-.28Z"/><path class="cls-10" d="M46,32c-.92-.48-1.18-.9-1.19-1.23a2.09,2.09,0,0,1,.75-1.26,1.28,1.28,0,0,1,.3,0c-.93.29-.94,1.7.25,2.33s2.34-.19,2.06-1.12a.67.67,0,0,1,.13.27,2.1,2.1,0,0,1-.6,1.33c-.28.19-.77.21-1.7-.28Z"/><path class="cls-11" d="M46.87,30.29c-.39-.21-.81-.21-.92,0s.13.55.52.76.81.21.92,0-.12-.55-.52-.76Z"/><path class="cls-8" d="M47.06,29.93c-.87-.46-1.12-.87-1.12-1.19a2,2,0,0,1,.73-1.22c.27-.11.7-.07,1.48.34s1.05.74,1.12,1a2.11,2.11,0,0,1-.59,1.29c-.27.19-.74.21-1.62-.24Z"/><path class="cls-9" d="M47.06,29.93c-.87-.46-1.12-.87-1.12-1.19a2,2,0,0,1,.73-1.22c.25-.1.63-.07,1.31.25,0,0,.05,0,.06,0-.88-.19-1.12,0-1.31.26s-.36.93.57,1.41,1.32,0,1.48-.34.12-.61-.52-1.22h0c.71.38,1,.7,1,1a2.11,2.11,0,0,1-.59,1.29c-.27.19-.74.21-1.62-.24Z"/><path class="cls-10" d="M47.06,29.93c-.87-.46-1.12-.87-1.12-1.19a2,2,0,0,1,.73-1.22.84.84,0,0,1,.29-.05c-.89.29-.92,1.66.21,2.25s2.24-.21,2-1.11a.74.74,0,0,1,.13.27,2.11,2.11,0,0,1-.59,1.29c-.27.19-.74.21-1.62-.24Z"/><path class="cls-11" d="M48,28.23c-.37-.2-.77-.19-.88,0s.11.53.49.73.77.19.88,0-.11-.53-.49-.73Z"/><path class="cls-8" d="M44.79,34.26c-.93-.48-1.19-.9-1.19-1.23a2.09,2.09,0,0,1,.75-1.26c.27-.1.73-.06,1.55.37s1.12.78,1.18,1.07a2,2,0,0,1-.6,1.33c-.28.18-.77.21-1.69-.28Z"/><path class="cls-9" d="M44.79,34.26c-.93-.48-1.19-.9-1.19-1.23a2.09,2.09,0,0,1,.75-1.26,1.89,1.89,0,0,1,1.37.28s.05,0,.06,0c-.92-.21-1.17-.06-1.36.25s-.37,1,.61,1.47,1.38,0,1.55-.33.12-.63-.57-1.27h0c.75.4,1,.74,1.08,1a2,2,0,0,1-.6,1.33c-.28.18-.77.21-1.69-.28Z"/><path class="cls-10" d="M44.79,34.26c-.93-.48-1.19-.9-1.19-1.23a2.09,2.09,0,0,1,.75-1.26,1.17,1.17,0,0,1,.3-.05c-.93.3-.95,1.7.25,2.33s2.34-.18,2.05-1.12a.78.78,0,0,1,.13.28,2,2,0,0,1-.6,1.33c-.28.18-.77.21-1.69-.28Z"/><path class="cls-11" d="M45.7,32.53c-.4-.22-.81-.21-.92,0s.12.55.52.76.81.2.92,0-.12-.55-.52-.75Z"/><path class="cls-8" d="M43.62,36.5c-.93-.48-1.19-.9-1.2-1.24A2,2,0,0,1,43.18,34c.27-.1.73-.06,1.55.37s1.11.78,1.18,1.06a2.07,2.07,0,0,1-.6,1.34c-.28.18-.77.2-1.69-.28Z"/><path class="cls-9" d="M43.62,36.5c-.93-.48-1.19-.9-1.2-1.24A2,2,0,0,1,43.18,34a1.84,1.84,0,0,1,1.37.28s.05,0,.06,0c-.92-.21-1.18-.06-1.37.25s-.37,1,.61,1.47,1.39.05,1.56-.33.12-.63-.57-1.27l0,0c.75.41,1,.74,1.09,1a2.07,2.07,0,0,1-.6,1.34c-.28.18-.77.2-1.69-.28Z"/><path class="cls-10" d="M43.62,36.5c-.93-.48-1.19-.9-1.2-1.24A2,2,0,0,1,43.18,34a.85.85,0,0,1,.3,0c-.93.3-.95,1.7.24,2.33s2.35-.19,2.06-1.12a.82.82,0,0,1,.13.27,2.07,2.07,0,0,1-.6,1.34c-.28.18-.77.2-1.69-.28Z"/><path class="cls-11" d="M44.53,34.76c-.4-.21-.81-.2-.92,0s.12.55.51.76.81.2.92,0-.12-.55-.51-.76Z"/><path class="cls-8" d="M42.44,38.74c-.92-.49-1.18-.9-1.19-1.24A2.06,2.06,0,0,1,42,36.25c.27-.1.73-.06,1.55.37s1.12.78,1.19,1.06a2.07,2.07,0,0,1-.6,1.33c-.28.19-.77.21-1.7-.27Z"/><path class="cls-9" d="M42.44,38.74c-.92-.49-1.18-.9-1.19-1.24A2.06,2.06,0,0,1,42,36.25a1.83,1.83,0,0,1,1.37.28s.06,0,.06,0c-.92-.2-1.17-.05-1.36.25s-.37,1,.61,1.48,1.38.05,1.55-.34.13-.63-.56-1.27h0c.75.41,1,.74,1.09,1a2.07,2.07,0,0,1-.6,1.33c-.28.19-.77.21-1.7-.27Z"/><path class="cls-10" d="M42.44,38.74c-.92-.49-1.18-.9-1.19-1.24A2.06,2.06,0,0,1,42,36.25a.9.9,0,0,1,.3,0c-.93.3-.95,1.7.25,2.33s2.35-.19,2.05-1.12a.87.87,0,0,1,.14.27,2.07,2.07,0,0,1-.6,1.33c-.28.19-.77.21-1.7-.27Z"/><path class="cls-11" d="M43.35,37c-.39-.21-.81-.21-.92,0s.12.56.52.76.81.21.92,0-.12-.55-.52-.76Z"/><path class="cls-8" d="M41.27,41c-.93-.49-1.19-.91-1.2-1.24a2.09,2.09,0,0,1,.76-1.25c.27-.1.73-.06,1.55.37s1.11.78,1.18,1.06a2,2,0,0,1-.6,1.34c-.28.18-.77.2-1.69-.28Z"/><path class="cls-9" d="M41.27,41c-.93-.49-1.19-.91-1.2-1.24a2.09,2.09,0,0,1,.76-1.25c.25-.1.66-.07,1.37.28l.06,0c-.92-.2-1.17,0-1.37.25s-.36,1,.61,1.47,1.39.06,1.56-.33.12-.63-.57-1.27h0c.74.41,1,.74,1.08,1a2,2,0,0,1-.6,1.34c-.28.18-.77.2-1.69-.28Z"/><path class="cls-10" d="M41.27,41c-.93-.49-1.19-.91-1.2-1.24a2.09,2.09,0,0,1,.76-1.25.85.85,0,0,1,.3-.05c-.93.29-1,1.7.25,2.33s2.34-.19,2-1.12a.74.74,0,0,1,.13.27,2,2,0,0,1-.6,1.34c-.28.18-.77.2-1.69-.28Z"/><path class="cls-11" d="M42.18,39.24c-.4-.21-.81-.21-.92,0s.12.55.52.76.8.21.92,0-.13-.55-.52-.76Z"/><path class="cls-8" d="M40.1,43.21c-.93-.49-1.19-.9-1.2-1.24a2.08,2.08,0,0,1,.76-1.25c.27-.11.73-.06,1.55.37s1.11.78,1.18,1.06a2,2,0,0,1-.6,1.34c-.28.18-.77.2-1.69-.28Z"/><path class="cls-9" d="M40.1,43.21c-.93-.49-1.19-.9-1.2-1.24a2.08,2.08,0,0,1,.76-1.25c.25-.1.66-.07,1.37.28l.06,0c-.92-.2-1.18-.05-1.37.26s-.37,1,.61,1.47,1.39.05,1.56-.34.12-.62-.57-1.27h0c.74.41,1,.74,1.08,1a2,2,0,0,1-.6,1.34c-.28.18-.77.2-1.69-.28Z"/><path class="cls-10" d="M40.1,43.21c-.93-.49-1.19-.9-1.2-1.24a2.08,2.08,0,0,1,.76-1.25.85.85,0,0,1,.3,0c-.93.3-1,1.7.25,2.33s2.34-.19,2-1.12a.82.82,0,0,1,.13.27,2,2,0,0,1-.6,1.34c-.28.18-.77.2-1.69-.28Z"/><path class="cls-11" d="M41,41.47c-.4-.21-.81-.21-.92,0s.12.56.52.77.81.2.92,0-.12-.55-.52-.76Z"/><path class="cls-8" d="M39,45.39c-.86-.45-1.09-.86-1.09-1.19A2.19,2.19,0,0,1,38.61,43c.26-.11.69-.08,1.45.32s1,.74,1.1,1a2.19,2.19,0,0,1-.61,1.32c-.27.19-.74.23-1.6-.22Z"/><path class="cls-9" d="M39,45.39c-.86-.45-1.09-.86-1.09-1.19A2.19,2.19,0,0,1,38.61,43a1.67,1.67,0,0,1,1.29.23s.05,0,.05,0c-.86-.18-1.11,0-1.3.29s-.37,1,.54,1.43,1.31,0,1.48-.38.13-.62-.5-1.23h0c.69.38.94.7,1,1a2.19,2.19,0,0,1-.61,1.32c-.27.19-.74.23-1.6-.22Z"/><path class="cls-10" d="M39,45.39c-.86-.45-1.09-.86-1.09-1.19A2.19,2.19,0,0,1,38.61,43a.77.77,0,0,1,.28-.06c-.89.32-.94,1.7.17,2.29s2.23-.25,2-1.16a.8.8,0,0,1,.12.27,2.19,2.19,0,0,1-.61,1.32c-.27.19-.74.23-1.6-.22Z"/><path class="cls-11" d="M39.87,43.65c-.38-.19-.77-.18-.88,0s.1.54.47.74.76.18.87,0-.1-.54-.46-.73Z"/><path class="cls-8" d="M37.75,47.67c-.8-.41-1-.81-1-1.13a2.37,2.37,0,0,1,.75-1.26c.25-.11.66-.1,1.37.27s1,.7,1,1a2.38,2.38,0,0,1-.62,1.33c-.26.19-.7.24-1.5-.18Z"/><path class="cls-9" d="M37.75,47.67c-.8-.41-1-.81-1-1.13a2.37,2.37,0,0,1,.75-1.26,1.47,1.47,0,0,1,1.21.2s0,0,0,0c-.81-.15-1,0-1.23.32s-.39,1,.46,1.39,1.24,0,1.41-.41.15-.61-.44-1.2h0c.64.35.87.66.92.92a2.38,2.38,0,0,1-.62,1.33c-.26.19-.7.24-1.5-.18Z"/><path class="cls-10" d="M37.75,47.67c-.8-.41-1-.81-1-1.13a2.37,2.37,0,0,1,.75-1.26.67.67,0,0,1,.27-.06,1.3,1.3,0,1,0,2,1,.81.81,0,0,1,.11.26,2.38,2.38,0,0,1-.62,1.33c-.26.19-.7.24-1.5-.18Z"/><path class="cls-11" d="M38.66,45.94c-.34-.19-.71-.16-.82.05s.08.53.43.71.71.16.82-.05-.08-.53-.43-.71Z"/><path class="cls-8" d="M48.15,27.77c-.83-.43-1-.82-1-1.14a2.07,2.07,0,0,1,.71-1.19c.25-.1.67-.08,1.4.31s1,.71,1,1A2,2,0,0,1,49.68,28c-.26.18-.7.21-1.53-.22Z"/><path class="cls-9" d="M48.15,27.77c-.83-.43-1-.82-1-1.14a2.07,2.07,0,0,1,.71-1.19,1.6,1.6,0,0,1,1.24.23l.05,0c-.83-.17-1.06,0-1.24.27s-.36.91.52,1.37,1.25,0,1.42-.35.12-.6-.49-1.18h0c.66.36.9.67,1,.92A2,2,0,0,1,49.68,28c-.26.18-.7.21-1.53-.22Z"/><path class="cls-10" d="M48.15,27.77c-.82-.43-1-.82-1-1.14a2.07,2.07,0,0,1,.71-1.19.74.74,0,0,1,.28-.05c-.86.3-.91,1.62.17,2.18s2.13-.23,1.89-1.1a.77.77,0,0,1,.11.25A2,2,0,0,1,49.68,28c-.26.18-.7.21-1.53-.22Z"/><path class="cls-11" d="M49,26.11c-.36-.18-.73-.17-.84,0s.1.52.45.7.73.18.84,0-.1-.52-.45-.71Z"/><path class="cls-8" d="M49.18,25.81c-.78-.4-1-.77-1-1.08a2.08,2.08,0,0,1,.7-1.16c.23-.11.63-.09,1.32.27s.93.68,1,.93A2.17,2.17,0,0,1,50.63,26c-.25.17-.68.21-1.45-.2Z"/><path class="cls-9" d="M49.18,25.81c-.78-.4-1-.77-1-1.08a2.08,2.08,0,0,1,.7-1.16c.22-.1.57-.09,1.17.2l0,0c-.79-.15-1,0-1.19.28s-.35.88.47,1.31,1.2,0,1.36-.36.12-.57-.45-1.13h0c.63.34.85.64.9.88A2.17,2.17,0,0,1,50.63,26c-.25.17-.68.21-1.45-.2Z"/><path class="cls-10" d="M49.18,25.81c-.78-.4-1-.78-1-1.08a2.11,2.11,0,0,1,.7-1.17.67.67,0,0,1,.26,0,1.24,1.24,0,1,0,1.94,1,.62.62,0,0,1,.1.24A2.17,2.17,0,0,1,50.63,26c-.25.17-.68.21-1.45-.2Z"/><path class="cls-11" d="M50,24.2c-.33-.17-.69-.16-.79,0s.08.5.42.67.69.16.79,0-.08-.49-.42-.67Z"/><path class="cls-8" d="M50.22,23.83c-.73-.39-.92-.74-.91-1A2.11,2.11,0,0,1,50,21.65c.23-.1.6-.08,1.24.26s.88.63.92.88a2.21,2.21,0,0,1-.55,1.2c-.24.18-.64.22-1.37-.16Z"/><path class="cls-9" d="M50.22,23.83c-.73-.39-.92-.74-.91-1A2.11,2.11,0,0,1,50,21.65a1.37,1.37,0,0,1,1.1.19s.05,0,.05,0c-.74-.14-1,0-1.12.28s-.35.86.42,1.26,1.13,0,1.29-.36.12-.56-.41-1.09c0,0,0,0,0,0,.59.32.8.6.84.84a2.21,2.21,0,0,1-.55,1.2c-.24.18-.64.22-1.37-.16Z"/><path class="cls-10" d="M50.22,23.83c-.73-.39-.92-.74-.91-1A2.11,2.11,0,0,1,50,21.65a.85.85,0,0,1,.25,0,1.18,1.18,0,1,0,1.81.95.77.77,0,0,1,.1.24,2.21,2.21,0,0,1-.55,1.2c-.24.17-.64.22-1.37-.16Z"/><path class="cls-11" d="M51,22.26c-.31-.17-.65-.15-.75,0s.08.48.39.65.65.14.75-.05-.07-.48-.39-.64Z"/><path class="cls-8" d="M51.17,22c-.68-.36-.86-.69-.84-1A2.13,2.13,0,0,1,51,19.92c.22-.1.56-.09,1.17.22s.81.6.85.84a2.29,2.29,0,0,1-.54,1.17c-.23.17-.61.22-1.29-.14Z"/><path class="cls-9" d="M51.17,22c-.68-.36-.86-.69-.84-1A2.13,2.13,0,0,1,51,19.92a1.22,1.22,0,0,1,1,.16s0,0,0,0c-.69-.11-.9,0-1.06.3a.9.9,0,0,0,1.59.84c.13-.29.13-.54-.36-1h0c.55.31.74.57.78.8a2.29,2.29,0,0,1-.54,1.17c-.23.17-.61.22-1.29-.14Z"/><path class="cls-10" d="M51.17,22c-.68-.36-.86-.7-.84-1A2.13,2.13,0,0,1,51,19.92a.77.77,0,0,1,.24-.06,1.13,1.13,0,1,0,1.69.89A.84.84,0,0,1,53,21a2.21,2.21,0,0,1-.54,1.17c-.23.17-.61.22-1.29-.14Z"/><path class="cls-11" d="M52,20.48c-.29-.15-.61-.13-.71.06s.06.46.36.62.61.12.71-.06-.07-.46-.36-.62Z"/><path class="cls-8" d="M52.09,20.26c-.63-.33-.79-.65-.77-.93A2.12,2.12,0,0,1,52,18.25c.2-.1.53-.1,1.09.19s.75.57.78.79a2.18,2.18,0,0,1-.53,1.14c-.21.17-.57.22-1.2-.11Z"/><path class="cls-9" d="M52.09,20.26c-.63-.33-.79-.65-.77-.93A2.12,2.12,0,0,1,52,18.25c.19-.1.48-.1,1,.13,0,0,0,0,0,0-.65-.1-.84,0-1,.3a.84.84,0,1,0,1.49.78c.12-.29.13-.52-.32-1h0c.51.28.68.53.71.75a2.18,2.18,0,0,1-.53,1.14c-.21.17-.57.22-1.2-.11Z"/><path class="cls-10" d="M52.09,20.26c-.63-.33-.79-.65-.78-.93A2.2,2.2,0,0,1,52,18.25a.64.64,0,0,1,.22-.06,1.07,1.07,0,1,0,1.58.83.58.58,0,0,1,.07.21,2.18,2.18,0,0,1-.53,1.14c-.21.17-.57.22-1.2-.11Z"/><path class="cls-11" d="M52.87,18.77c-.27-.14-.57-.11-.67.07s0,.45.32.59.57.11.67-.07,0-.45-.32-.59Z"/><path class="cls-8" d="M53,18.47c-.59-.31-.72-.62-.7-.88a2.18,2.18,0,0,1,.61-1.05c.19-.11.5-.11,1,.16s.69.52.72.74a2.2,2.2,0,0,1-.52,1.1c-.2.17-.54.23-1.12-.07Z"/><path class="cls-9" d="M53,18.47c-.59-.31-.72-.62-.7-.88a2.18,2.18,0,0,1,.61-1.05c.18-.1.45-.11.9.1,0,0,0,0,0,0-.6-.09-.79,0-.94.31a.78.78,0,1,0,1.37.71c.12-.27.13-.5-.28-1h0c.47.26.63.5.65.71a2.2,2.2,0,0,1-.52,1.1c-.2.17-.54.23-1.12-.07Z"/><path class="cls-10" d="M53,18.47c-.59-.31-.72-.62-.7-.88a2.18,2.18,0,0,1,.61-1.05.48.48,0,0,1,.21-.07,1,1,0,1,0,1.45.76.74.74,0,0,1,.07.21,2.24,2.24,0,0,1-.52,1.1c-.2.17-.54.23-1.12-.07Z"/><path class="cls-11" d="M53.79,17c-.25-.13-.53-.1-.62.08s0,.42.28.56a.46.46,0,0,0,.62-.08c.1-.18,0-.43-.28-.56Z"/><path class="cls-8" d="M54,16.62c-.54-.28-.66-.57-.64-.83a2.29,2.29,0,0,1,.6-1c.18-.1.46-.11.94.14s.62.48.64.69a2.3,2.3,0,0,1-.5,1.07c-.2.17-.51.23-1-.05Z"/><path class="cls-9" d="M54,16.62c-.54-.28-.66-.57-.64-.83a2.29,2.29,0,0,1,.6-1,.91.91,0,0,1,.83.08l0,0c-.56-.06-.74.07-.89.33a.72.72,0,1,0,1.26.65c.12-.26.13-.48-.24-.91h0c.42.24.56.47.58.67a2.3,2.3,0,0,1-.5,1.07c-.2.17-.51.23-1-.05Z"/><path class="cls-10" d="M54,16.62c-.54-.28-.66-.57-.64-.83a2.29,2.29,0,0,1,.6-1,.53.53,0,0,1,.19-.06,1,1,0,1,0,1.33.7.35.35,0,0,1,.06.19,2.3,2.3,0,0,1-.5,1.07c-.2.17-.51.23-1-.05Z"/><path class="cls-11" d="M54.73,15.21a.43.43,0,0,0-.57.09.42.42,0,0,0,.25.54.43.43,0,0,0,.58-.1c.09-.17,0-.4-.26-.53Z"/><path class="cls-8" d="M54.93,14.83c-.48-.25-.59-.53-.56-.77a2.28,2.28,0,0,1,.58-1c.17-.1.43-.12.86.1s.57.46.58.66a2.36,2.36,0,0,1-.5,1c-.18.16-.47.23-1,0Z"/><path class="cls-9" d="M54.93,14.83c-.48-.25-.59-.53-.56-.77a2.28,2.28,0,0,1,.58-1c.15-.1.39-.12.76.06l0,0c-.52-.05-.68.08-.83.33s-.31.73.2,1,.8-.11.94-.41.14-.47-.19-.86h0c.39.22.51.43.53.63a2.36,2.36,0,0,1-.5,1c-.18.16-.47.23-1,0Z"/><path class="cls-10" d="M54.94,14.83c-.49-.25-.6-.53-.57-.78a2.3,2.3,0,0,1,.58-1,.48.48,0,0,1,.18-.07c-.58.32-.74,1.35-.11,1.67s1.39-.38,1.32-1a.59.59,0,0,1,0,.19,2.36,2.36,0,0,1-.5,1c-.18.16-.47.23-1,0Z"/><path class="cls-11" d="M55.65,13.47a.38.38,0,0,0-.53.1.39.39,0,0,0,.22.5.38.38,0,0,0,.53-.11.38.38,0,0,0-.22-.49Z"/><path class="cls-8" d="M55.79,13.19c-.43-.22-.52-.49-.49-.72a2.53,2.53,0,0,1,.55-1c.16-.1.4-.13.79.08s.5.41.51.6a2.48,2.48,0,0,1-.48,1c-.17.16-.44.23-.88,0Z"/><path class="cls-9" d="M55.79,13.19c-.43-.22-.52-.49-.49-.72a2.66,2.66,0,0,1,.55-1,.72.72,0,0,1,.71,0s0,0,0,0c-.46,0-.62.1-.76.34s-.31.72.16,1,.73-.13.87-.42.14-.45-.16-.82h0c.35.19.46.39.46.57a2.48,2.48,0,0,1-.48,1c-.17.16-.44.23-.88,0Z"/><path class="cls-10" d="M55.79,13.19c-.43-.22-.52-.49-.49-.72a2.66,2.66,0,0,1,.55-1l.17-.07c-.53.32-.71,1.31-.14,1.6s1.27-.41,1.23-1a.38.38,0,0,1,0,.17,2.48,2.48,0,0,1-.48,1c-.17.16-.44.23-.88,0Z"/><path class="cls-11" d="M56.49,11.87A.37.37,0,0,0,56,12a.36.36,0,0,0,.19.47.37.37,0,0,0,.5-.11.36.36,0,0,0-.19-.47Z"/><path class="cls-8" d="M36.67,49.65c-.73-.38-.92-.76-.9-1.08a2.53,2.53,0,0,1,.74-1.26c.24-.12.62-.12,1.27.22s.88.66.91.92a2.58,2.58,0,0,1-.61,1.33c-.26.2-.67.26-1.41-.13Z"/><path class="cls-9" d="M36.67,49.65c-.73-.38-.92-.76-.9-1.08a2.53,2.53,0,0,1,.74-1.26,1.29,1.29,0,0,1,1.13.15l0,0c-.76-.12-1,0-1.17.36a1,1,0,1,0,1.73.9c.14-.33.15-.61-.38-1.16,0,0,0,0,0,0,.6.32.8.62.83.87a2.58,2.58,0,0,1-.61,1.33c-.26.2-.67.26-1.41-.13Z"/><path class="cls-10" d="M36.67,49.65c-.73-.38-.92-.76-.9-1.08a2.53,2.53,0,0,1,.74-1.26.62.62,0,0,1,.26-.07,1.25,1.25,0,1,0,1.83,1,.69.69,0,0,1,.09.25,2.58,2.58,0,0,1-.61,1.33c-.26.2-.67.26-1.41-.13Z"/><path class="cls-11" d="M37.58,47.92c-.31-.17-.66-.13-.77.08s0,.51.37.68.67.13.78-.08-.06-.52-.38-.68Z"/><path class="cls-6" d="M31.39,40.72A14.44,14.44,0,0,0,32.91,47c1.2,2.33.89,3.39.45,4.49-.88,2.2,2.28,2.72,2.85-.24.5-2.55-3.19-4.14-3.29-8.85a9.4,9.4,0,0,1,0-1.17C34.76,23,61.57,11.15,49,4.37,55.81,8.85,44,17,36.49,26.93c-3.1,4.09-5.31,9.9-5.1,13.79Z"/><path class="cls-4" d="M31.39,40.72a21,21,0,0,0,.33,2.82l.17.07c0-8.25,1.58-11,5.75-17.54.45-.72,1.53-2.2,2.75-3.81-1.35,1.51-2.68,3.07-3.9,4.67-3.1,4.09-5.31,9.9-5.1,13.79Z"/><path class="cls-3" d="M37.73,29.12C45.41,17.58,58.53,9.52,49,4.37a3.75,3.75,0,0,1,2,4.09c.29,3.84-7.67,12.59-9.86,15.42a32,32,0,0,0-3.37,5.24Z"/><path class="cls-4" d="M43.51,21.74c2.1-2.4,4.14-4.62,5.74-6.65h0c1.65-2.85,3.32-5,2.13-8.4.85,3-1.57,6.23-3.15,8.69-.33.52-2.82,3.84-4.72,6.37Z"/><path class="cls-3" d="M50,10.9a14.43,14.43,0,0,1-.9,1.42c-1.47,2.72-6.45,7.94-9.39,11.8-3.42,4.5-6.54,9.82-7.28,14.62,0,.12,0,.23-.05.34-.39,2.91.18,5.45,1.88,8.79a4.47,4.47,0,0,1,.28,4.27c.92-1.76,1.55-1.83-1-6.47-1.66-3-.89-7.46.31-10.49A51.2,51.2,0,0,1,40.9,23.39c2.91-3.65,6.18-7.32,8-10.25A9.66,9.66,0,0,0,50,10.9Z"/><path class="cls-6" d="M53.45,35.9C54.93,32.65,57.63,20,65,16,60.52,18.8,58.49,33,55.57,38.67a24,24,0,0,1-13.9,12c-1.18.43-3.1.75-4.23,1.26-2.53,1.15-1.33,2.32-1.52,2.92-.34,1-5.82,1.27-3.07-3.38,2.32-3.89,8.18-4.57,12.81-6.21,3-1,4.76-2.7,7.79-9.36Z"/><path class="cls-3" d="M53.45,35.9C54.93,32.65,57.63,20,65,16c-1.48.92-2.69,3.07-3.76,5.74a28.12,28.12,0,0,0-4.66,8.13c-1.34,3.65-3.27,9.69-6.3,13S39.11,47,37.38,48.36a21.53,21.53,0,0,1-3.8,2.11c2.67-3,7.88-3.73,12.08-5.21,3-1,4.76-2.7,7.79-9.36Z"/><path class="cls-2" d="M53.29,42.3a24.5,24.5,0,0,1-1.77,2.1,12.76,12.76,0,0,1-5.19,3.43,48.12,48.12,0,0,1-6.26,1.33,6.47,6.47,0,0,0-4.36,2.35A5.18,5.18,0,0,0,35,55a3.93,3.93,0,0,1,.47-3.53c.77-1.35,2.5-2.2,4.5-2.71,2.72-.71,5.57-.86,8-2.06a27.73,27.73,0,0,0,5.33-4.42Z"/><path class="cls-2" d="M45.26,49.18c-2.64,1.4-5.59.68-8.35,2.21a2.52,2.52,0,0,0-1.45,2,2,2,0,0,0,.43,1.52.94.94,0,0,1-.27.25,3,3,0,0,1,.81-3.83C37.7,50.26,39.89,50,42,49.71c1.14-.14,2.31-.39,3.22-.53Z"/><path class="cls-2" d="M60.48,23.9c-.43,1.22-.89,2.42-1.28,3.71a40.13,40.13,0,0,0-2.08,5.12C56.78,34,54.17,40,52.46,42.16a14.16,14.16,0,0,1-5.07,4.12c-3.15,1.42-7.3,1.26-10.25,3a10.83,10.83,0,0,0-2.69,2.27,8.08,8.08,0,0,1,4.21-3.41c2.83-.93,6.46-1.22,8.53-2.33A13.24,13.24,0,0,0,53.42,40c2.15-3.7,6.34-15.29,6.89-15.9s.11-.13.17-.19Z"/><path class="cls-4" d="M31.57,53.68c.06-1.07,1.92-2.73,1.69-4.31-.19-1.36-1-2-1.69-3.58-1.65-3.66-1.51-7.35-2.16-8.34-1.66-2.53-2.76-3.11-5.39-2,5.07-4.81,6.44,2.77,8,8.28.65,2.33,2.68,5.53,2.81,7s-.57,2.7-.07,4.63c-.54.41-3.25-.31-3.16-1.75Z"/><path class="cls-2" d="M32.17,52.29c.24-.39.51-.82.73-1.25a4.13,4.13,0,0,1,0,.5,12.14,12.14,0,0,0,.24,3.8,5.55,5.55,0,0,1-.56-.24c0-.67-.08-1.4-.17-2.09a2.07,2.07,0,0,0-.25-.72ZM31,43.62a18.41,18.41,0,0,0,2.07,3.84,8.69,8.69,0,0,1,1,3.72c.1,1.07-.37,2.45,0,4.36a3.13,3.13,0,0,1-.64-.1,17.81,17.81,0,0,1,.24-4.34,4.91,4.91,0,0,0-.38-2.54c-.72-1.75-1.24-1.24-2.32-4.94Z"/><path class="cls-4" d="M57.82,32.59a38.23,38.23,0,0,1-2.25,6.08,24,24,0,0,1-13.9,12c-1.18.43-3.1.75-4.23,1.26-1.48.67-1.68,1.35-1.64,1.92a1.92,1.92,0,0,1,1.13-2.62c1-.55,7.31-1.66,10.79-4.43A27.34,27.34,0,0,0,55,38.55a65.68,65.68,0,0,0,2.84-6Z"/><path class="cls-4" d="M34.27,52.54s-.27-.44.23-1.21A8.14,8.14,0,0,1,40,47.81c1.92-.41,4-.39,5.77-1.09a13.36,13.36,0,0,0,1.48-.66s-.71,1.27-4,1.58a12.35,12.35,0,0,0-7.1,2.88c-1.29,1.19-2.21,2.72-1.84,2Z"/><path class="cls-4" d="M35.43,55.26l-.22.08a3,3,0,0,1-.37-2.15c.65-4.11,7.26-4.91,9.57-4.82-2.25.46-7.22,1.66-8.64,3.55a3.5,3.5,0,0,0-.34,3.34Z"/></g></g></svg>