<svg xmlns="http://www.w3.org/2000/svg" xmlns:xlink="http://www.w3.org/1999/xlink" viewBox="0 0 148.88 36.12"><defs><style>.cls-1{fill:none;}.cls-2{clip-path:url(#clip-path);}.cls-3{fill:#fff;}</style><clipPath id="clip-path"><rect class="cls-1" width="148.88" height="36.12"/></clipPath></defs><title>資產 3</title><g id="圖層_2" data-name="圖層 2"><g id="圖層_1-2" data-name="圖層 1"><g class="cls-2"><path class="cls-3" d="M131.82,16.72h2.66v3.76h-2.66Zm-6.53,0h2.5v3.76h-2.5ZM136,5.16A63.5,63.5,0,0,1,121.3,6.88l1.17,3.92c1.83,0,3.61-.12,5.32-.28v2.16H121.3v13h4V24.56h2.5v4c-2.43.2-5.05.36-7.86.52l.76,4.36c5.51-.48,10.6-1,15.24-1.76.26.84.53,1.76.79,2.72l3.84-1.72a45.52,45.52,0,0,0-3.27-7.84l-3.38,1.72c.19.44.42.92.65,1.4l-2.74.24V24.56h6.69V12.68h-6.69V10.12c2.24-.28,4.33-.64,6.23-1ZM118.18.64h-1.79V15.48a63.17,63.17,0,0,1-.72,9.32,54.28,54.28,0,0,1-2.54,9L117,36.12a39,39,0,0,0,2.59-8.2,54.51,54.51,0,0,0,1-10.36V4.84h18.54q0,21.18,2.43,28c.76,1.92,1.94,2.92,3.54,2.92,1.44,0,2.43-.88,3-2.56a36.9,36.9,0,0,0,.87-5.12l-3.83-1.56v4.56c-.35,0-.61-1-.8-3q-.85-7.5-.84-27.48ZM101.08,19.4h3.72v4.52h-3.72ZM99.75,0c-.65,3.28-1.41,6.44-2.24,9.44l-2.05.24.72,4.72c3.38-.56,6.57-1.24,9.54-2,.19.76.38,1.52.57,2.32L110.16,13a59.32,59.32,0,0,0-3.27-8.92L103.47,5.8c.35.8.69,1.68,1,2.6-.84.16-1.71.32-2.62.44Q103,5.48,104,1.28ZM78.39.64H76.76v15c0,3.16-.11,6.28-.3,9.4-.19,2.56-.54,5.56-1,9l3.12,2a80.64,80.64,0,0,0,1.14-8.24c.3-3.36.49-6.84.49-10.44V4.68H91.73V18.76a26.21,26.21,0,0,0,1.56,9.8,12.61,12.61,0,0,0,11.21,7.56,4.94,4.94,0,0,0,2.85-.8c1-.68,1.86-2.12,2.51-4.36l-3.88-2a8.21,8.21,0,0,1-.76,2.48.92.92,0,0,1-.72.32,8.56,8.56,0,0,1-4.64-1.48A7.55,7.55,0,0,1,97.43,28h11.36V15.32H97.09v12.2a6.84,6.84,0,0,1-.68-1.32,20.84,20.84,0,0,1-1.11-7.44V.64ZM87.13,16h.92v5.76h-.92Zm-3.42,0h.92v5.76h-.92Zm-3-3.6v13h3.42v4c-1.25.2-2.58.36-4,.52l.72,4.08c3.19-.52,6.2-1.16,8.93-1.88.15.72.31,1.44.42,2.2l3.12-1.12A38.06,38.06,0,0,0,91.31,26l-3,.92c.23.56.42,1.12.61,1.68l-1.33.24V25.32H91v-13H87.44V10a24.8,24.8,0,0,0,4-1L89.68,5.48a31.17,31.17,0,0,1-9.23,1.4l1.21,3.76A22.61,22.61,0,0,0,84,10.48v1.88ZM63.08.48l-3.84,2.8a45.94,45.94,0,0,1,4,5L67.11,5a37.89,37.89,0,0,0-4-4.52M39.18,9.56v4.68H51.64a21.57,21.57,0,0,1-3,7.68,32.74,32.74,0,0,1-10.83,10l2.54,4.24A36.4,36.4,0,0,0,51.6,25.92a25.69,25.69,0,0,0,3.84-8,36.1,36.1,0,0,0,4.64,9.48,25.42,25.42,0,0,0,9.54,8.72l2.54-5a21.19,21.19,0,0,1-8.85-7.32,29.83,29.83,0,0,1-4.52-9.56H70.68V9.56H56.43V0H52V9.56Zm-12-1.88L23,9.68a110.09,110.09,0,0,1,6.08,19.08l4.6-2a123.15,123.15,0,0,0-6.54-19M14.71,0V29.4c0,1.36-.35,2-1,2a20.15,20.15,0,0,1-6.12-.92l.76,4.84a23,23,0,0,0,5.36.64c2.05,0,3.46-.44,4.29-1.28.76-.64,1.18-2.16,1.18-4.52V0ZM5.81,7.68A81.62,81.62,0,0,1,0,26.12l4.29,2.64a91.06,91.06,0,0,0,6-19.52Z"/></g></g></g></svg>