<svg xmlns="http://www.w3.org/2000/svg" viewBox="0 0 207.03 86.82"><defs><style>.cls-1{fill:#36a9e1;}.cls-2{fill:#fff;}.cls-3{isolation:isolate;}.cls-4{fill:#d62a1a;}.cls-5{fill:none;stroke:#fff;stroke-miterlimit:10;stroke-dasharray:2.57 1.28;}</style></defs><title>資產 12</title><g id="圖層_2" data-name="圖層 2"><g id="圖層_5" data-name="圖層 5"><ellipse class="cls-1" cx="106.07" cy="73.43" rx="30.69" ry="10.13"/><path class="cls-2" d="M92.07,68.64c-.64.1-1.36.19-2.13.24v.72h4.23v.84h-3.3a8,8,0,0,0,1.44.82,9.25,9.25,0,0,0,2.11.64l-.8.93a12.55,12.55,0,0,1-2.18-1,9.76,9.76,0,0,1-1.5-1v1.41H89V70.81a6.53,6.53,0,0,1-1.19.9,13.9,13.9,0,0,1-2.36,1.12L84.51,72a18.3,18.3,0,0,0,2.6-.94,8.31,8.31,0,0,0,1-.61H84.71V69.6H89V69c-.88,0-1.85.07-2.9.07l-.58-.8h1.18a30,30,0,0,0,5.82-.51l.68.71a.2.2,0,0,1,.07.18c0,.06,0,.08,0,.08A.3.3,0,0,1,93,68.6l-.24,0A5.06,5.06,0,0,0,92.07,68.64Zm-.34,3.77.5.32c.07,0,.1.1.1.14s-.08.17-.21.25L90,74.49h4.19v.88H90v.83a1.15,1.15,0,0,1-.4,1,3,3,0,0,1-1.73.32l-.37-1h1c.34,0,.54-.15.56-.46v-.67H84.62V74.5h4.44v-.62l.47.05.84-.69H86.72v-.79h4.51l.26-.13A.38.38,0,0,1,91.73,72.41Z"/><path class="cls-2" d="M96.43,68.1h7.11c0,1.36,0,2.39,0,3.1a19.9,19.9,0,0,0,.18,3.07,5,5,0,0,0,.47,1.5c0,.11.09.15.14.15s.16-.23.3-.7l.71.62a4.14,4.14,0,0,1-.51,1.12c-.16.2-.3.3-.41.3s-.5-.19-.76-.57a5.51,5.51,0,0,1-.79-2.26,20.58,20.58,0,0,1-.21-3.23V69H97.31v2.09A16.08,16.08,0,0,1,97,74.48a9.57,9.57,0,0,1-1,2.87l-.87-.46a8.41,8.41,0,0,0,1-2.55,15.24,15.24,0,0,0,.36-3.27v-3Zm5.13,2.05c-.38.08-.77.17-1.16.23v1H102v3H100.4v1.48l1.11-.11c-.13-.21-.26-.44-.4-.66l.76-.22A8.07,8.07,0,0,1,103,76.93l-.92.2a6.38,6.38,0,0,0-.22-.66c-1,.13-2.31.3-4.09.5-.08.11-.15.16-.22.16s-.1,0-.1-.15l-.23-.89c.77,0,1.54-.09,2.31-.16V74.38h-.76v.46H97.9V71.36h1.63v-.84c-.5.08-1,.13-1.47.17l-.55-.75a16.13,16.13,0,0,0,2.11-.19,14.73,14.73,0,0,0,1.95-.4l.61.57a.17.17,0,0,1,.07.14c0,.07,0,.09-.13.09l-.23-.05A2.67,2.67,0,0,0,101.56,70.15Zm-2,3.43V72.16h-.76v1.42Zm.87,0h.75V72.16h-.75Z"/><path class="cls-2" d="M108.92,68.16c.1,0,.15.09.15.14s-.09.2-.26.26c-.22.59-.43,1.12-.62,1.58v7.29h-1V72.09c-.23.39-.46.79-.72,1.2l-.71-.71a16.43,16.43,0,0,0,1.28-2.24,22.64,22.64,0,0,0,1-2.58Zm5.3.66c-.36.08-.75.16-1.13.22q0,1.26,0,2.16h2.39v.88h-2.35c0,.45,0,.82.09,1.1a5.1,5.1,0,0,0,.72,2.17c.25.48.47.7.62.7s.25-.46.46-1.38l.88.66a5.38,5.38,0,0,1-.52,1.22.92.92,0,0,1-.78.54,1.68,1.68,0,0,1-1.26-.82,5.45,5.45,0,0,1-1-2.54,15.68,15.68,0,0,1-.15-1.65h-1.93v2.48c.62-.12,1.24-.27,1.84-.44V75c-.62.21-1.58.49-2.89.83-.07.15-.14.22-.2.22s-.13-.06-.14-.17l-.25-1a6,6,0,0,0,.72-.11v-6.3l.45.23c.8-.08,1.56-.17,2.29-.29a15.86,15.86,0,0,0,2.33-.61l.67.73a.31.31,0,0,1,.12.23c0,.07,0,.09-.09.09l-.29-.08A3.34,3.34,0,0,0,114.22,68.82Zm-1.06,7.39v.88h-3.8v-.88Zm-1-7c-.6.11-1.21.2-1.84.28V71.2h1.89C112.14,70.6,112.12,69.93,112.12,69.2Z"/><path class="cls-2" d="M118.18,72.08a20.26,20.26,0,0,1-.19,3,19.67,19.67,0,0,1-.56,2.48l-.92-.46a18.46,18.46,0,0,0,.55-2.24,19.76,19.76,0,0,0,.2-2.74v-4h9v.79h-8.13Zm4.07-.47V74a.91.91,0,0,1-.16.56l.63,0c.15,0,.23.07.23.14s0,.12-.16.21v.34h2.89v.79h-2.89v.46h3.69v.84h-8.42v-.84h3.81v-.46h-2.93v-.79h2.93v-.57a.2.2,0,0,1-.08,0,1.83,1.83,0,0,1-.71.14l-.34-.83h.47c.13,0,.2-.12.2-.33h-2v1.14h-.88V71.61h3.69Zm-.18-2.51v2.21h-3.3V69.1Zm-.66,3.39v-.3h-2v.3Zm0,.75V73h-2v.29ZM121.2,70v-.34h-1.55V70Zm0,.46h-1.55v.34h1.55Zm2.6.38V69.73c0-.17,0-.38,0-.63l.82.06c.14,0,.22,0,.22.11s-.08.17-.21.24v1.31h1.59v.75h-1.3a4,4,0,0,0,.52,1.3,4.33,4.33,0,0,0,1.15,1.25l-.79.59a10,10,0,0,1-.8-1,4.78,4.78,0,0,1-.52-1.07l0,0c0,.06,0,.13,0,.17a3.07,3.07,0,0,1-.59,1.07,4.6,4.6,0,0,1-.75.71l-.67-.62a4,4,0,0,0,.66-.55,2.35,2.35,0,0,0,.53-.78,3.83,3.83,0,0,0,.22-1h-1.32v-.75Zm2.51-.63-.55.5a6.43,6.43,0,0,0-.79-.92l.5-.46A7.94,7.94,0,0,1,126.31,70.19Z"/><g class="cls-3"><path class="cls-4" d="M117.14,19.76V10.19l3.62-.12v8l6.1-.2v1.59l-9.72.31m3.7-12.69-.49,0c0,.15-.14.28-.34.29-4.57.38-8.38,2.65-9.83,5.63l1.49-.32-2.48,3h0v.14h0c.19,0,.36.1.37.24.22,3.31,3.34,6,7.61,6.9l-.39-1.05,4.06,1.63.34,0c0-.14.14-.27.34-.29,4.63-.34,8.51-2.63,10-5.63L130,17.9l2.48-3v-.18h0c-.19,0-.35-.1-.36-.24-.26-3.29-3.36-6-7.62-6.85l.39,1-4-1.63h0"/><path class="cls-2" d="M132.5,14.92l-2.48,3,1.48-.32c-1.46,3-5.34,5.29-10,5.63-.2,0-.35.15-.34.29h0c0,.15.17.25.37.24h0c5-.37,9.16-2.86,10.68-6.13l1.39.57Z"/><path class="cls-2" d="M124.5,7.65c4.26.89,7.36,3.56,7.62,6.85,0,.14.17.24.36.24h0c.21,0,.37-.15.35-.29-.27-3.57-3.66-6.44-8.28-7.35l.85-1-4.58,1,4,1.63Z"/><path class="cls-2" d="M109.19,15.66l2.48-3-1.49.32c1.45-3,5.26-5.25,9.83-5.63.2,0,.35-.14.34-.29h0c0-.14-.18-.24-.37-.24h0c-4.92.41-9,2.89-10.52,6.13L108,12.4l1.14,3.25Z"/><path class="cls-2" d="M117.18,22.94c-4.27-.9-7.39-3.59-7.61-6.9,0-.14-.18-.25-.37-.24h0c-.2,0-.36.14-.35.29.25,3.58,3.65,6.48,8.29,7.39l-.85,1,4.58-1-4.06-1.63Z"/><polyline class="cls-2" points="120.76 10.07 117.14 10.19 117.14 19.76 126.86 19.45 126.86 17.86 120.76 18.05 120.76 10.07"/></g><ellipse class="cls-5" cx="103.52" cy="43.41" rx="103.02" ry="42.91"/></g></g></svg>