<svg xmlns="http://www.w3.org/2000/svg" viewBox="0 0 405.14 127.08"><defs><style>.cls-1{isolation:isolate;}.cls-2{fill:#d66f00;}.cls-3{fill:#c56700;}.cls-4{fill:#985100;}</style></defs><title>資產 9</title><g id="圖層_2" data-name="圖層 2"><g id="圖層_2-2" data-name="圖層 2"><g class="cls-1"><polygon class="cls-2" points="369.32 99.81 378.23 94.63 405.14 110.17 396.23 115.35 369.32 99.81"/><polygon class="cls-3" points="396.23 115.35 405.14 110.17 405.11 121.9 396.2 127.08 396.23 115.35"/><polygon class="cls-4" points="369.46 48.11 369.32 99.81 396.23 115.35 396.2 127.08 357.15 104.54 357.33 41.1 369.46 48.11"/><polygon class="cls-3" points="369.46 48.11 378.38 42.93 378.23 94.63 369.32 99.81 369.46 48.11"/><polygon class="cls-2" points="357.33 41.1 366.24 35.92 378.38 42.93 369.46 48.11 357.33 41.1"/></g><g class="cls-1"><polygon class="cls-2" points="12.17 63.9 21.08 58.72 47.99 74.26 39.08 79.44 12.17 63.9"/><polygon class="cls-3" points="39.08 79.44 47.99 74.26 47.96 85.98 39.05 91.16 39.08 79.44"/><polygon class="cls-4" points="12.32 12.19 12.17 63.9 39.08 79.44 39.05 91.16 0 68.62 0.18 5.18 12.32 12.19"/><polygon class="cls-3" points="12.32 12.19 21.23 7.01 21.08 58.72 12.17 63.9 12.32 12.19"/><polygon class="cls-2" points="0.18 5.18 9.09 0 21.23 7.01 12.32 12.19 0.18 5.18"/></g></g></g></svg>