<svg xmlns="http://www.w3.org/2000/svg" xmlns:xlink="http://www.w3.org/1999/xlink" viewBox="0 0 51.44 38.72"><defs><style>.cls-1{fill:url(#新增漸層色票_1);}.cls-2{fill:url(#新增漸層色票_16);}.cls-3{fill:#fff;}</style><linearGradient id="新增漸層色票_1" x1="26.25" y1="19.45" x2="5.34" y2="37.73" gradientUnits="userSpaceOnUse"><stop offset="0" stop-color="#fff"/><stop offset="1" stop-color="#fff" stop-opacity="0"/></linearGradient><linearGradient id="新增漸層色票_16" x1="26.31" y1="19.51" x2="5.39" y2="37.8" gradientUnits="userSpaceOnUse"><stop offset="0" stop-color="#bb659c"/><stop offset="1" stop-color="#bb659c" stop-opacity="0"/></linearGradient></defs><title>資產 8</title><g id="圖層_2" data-name="圖層 2"><g id="圖層_5" data-name="圖層 5"><path class="cls-1" d="M6.72,38,0,28.25l.75-.52C.82,27.69,17.53,16.65,31,6.94L27.74,2.4,51.44,0,41.67,21.72l-3.21-4.46C25.43,26.65,8.74,37.68,8,38.2l-.75.52Z"/><path class="cls-2" d="M50,1.06,29.4,3.14l2.88,4c-14,10.08-30.94,21.28-31,21.33l6.19,9c.08-.05,17.1-11.3,31.2-21.46l2.83,3.91Z"/><path class="cls-3" d="M17,20.12l.41.62L15,22.3l.64,1,2.06-1.36,2.93,4.46-.67.45-.37-.56L14.9,29.38l.36.56-.67.44-2.93-4.46,1.91-1.26-.64-1-2.26,1.49-.41-.62Zm2.19,5.5-.46-.7-1.56,1c-.34.22-.59.19-.78-.09l-1-1.49-.83.54A3.88,3.88,0,0,1,14.92,26a5.91,5.91,0,0,1-.07,1.78l-.86.1a4.82,4.82,0,0,0,.17-1.62,3.71,3.71,0,0,0-.23-.9l-1.17.77,1.71,2.61Zm-4.84-2.87-.79.52.63,1,.79-.52Zm2.51,2.35c.05.08.12.09.23,0l1.23-.81L17.49,23l-1.38.91Z"/><path class="cls-3" d="M21,17.81l-.49-.73.65-.36c.13-.06.21-.07.24,0s0,.12,0,.25l.28.41,2.94-1.93.4.62L22.05,18l.45.68,2.68-1.76,2.62,4a.75.75,0,0,1-.09,1,3.47,3.47,0,0,1-.7.63L26.3,22l.61-.42a.3.3,0,0,0,.08-.46l-2.11-3.2L20.21,21,23,25.21l-.67.45-3.15-4.79,2.68-1.76-.45-.68-3,1.95-.4-.61Zm1.95,2.8-.18.46.89-.59L23.53,19l.64-.06c.09,0,.16,0,.18,0a.2.2,0,0,1,0,.22V20l.81-.53.37.56L24,21l.42.64,1.62-1.06.39.59-1.62,1.07.68,1-.64.42-.68-1-1.61,1.06-.39-.6,1.61-1.06-.41-.64-1.51,1-.37-.56.94-.62a5.85,5.85,0,0,0-1-.33l.21-.64A6,6,0,0,1,22.93,20.61Z"/><path class="cls-3" d="M25.9,13.91l5-3.28c.61,1,1.08,1.7,1.4,2.19a16.22,16.22,0,0,0,1.55,2.08,4,4,0,0,0,1,.84c.08,0,.13.06.17,0s0-.24-.12-.64l.79.11a3.57,3.57,0,0,1,.15,1,.59.59,0,0,1-.14.4.85.85,0,0,1-.8-.05,4.79,4.79,0,0,1-1.6-1.22,17.32,17.32,0,0,1-1.63-2.18l-1-1.56-3.73,2.45,1,1.47a14.83,14.83,0,0,1,1.33,2.55,8.23,8.23,0,0,1,.59,2.5l-.83.08a7.1,7.1,0,0,0-.45-2.27A13.49,13.49,0,0,0,27.27,16l-1-1.47ZM30.45,13c-.24.24-.47.48-.71.7l.45.69,1.15-.76,1.39,2.13-1.14.75.68,1c.25-.2.49-.39.72-.59l-.58-.28.43-.5a6.69,6.69,0,0,1,1.74.92l-.55.57c-.14-.12-.29-.25-.46-.37-.61.53-1.48,1.28-2.64,2.25a.23.23,0,0,1-.08.21s-.09,0-.14-.06l-.57-.52c.52-.39,1-.78,1.55-1.18L31,16.89l-.53.35.22.32L30,18l-1.61-2.45,1.14-.75-.38-.59c-.31.29-.63.55-1,.8l-.73-.27A16.82,16.82,0,0,0,28.9,13.6a14.37,14.37,0,0,0,1.19-1.18l.69.12a.16.16,0,0,1,.11.07s0,.08-.05.12l-.18.07A1.56,1.56,0,0,0,30.45,13Zm.15,3.35-.65-1-.53.34.65,1Zm.62-.41.52-.34-.65-1-.53.34Z"/></g></g></svg>