<svg xmlns="http://www.w3.org/2000/svg" viewBox="0 0 60.77 37.18"><defs><style>.cls-1{fill:#4e403c;}.cls-2{font-size:9.8px;fill:#c4e1c5;font-family:DFHeiStd-W7-B5pc-H, DFHei Std;}</style></defs><title>資產 5</title><g id="圖層_2" data-name="圖層 2"><g id="圖層_1-2" data-name="圖層 1"><polygon class="cls-1" points="60.77 5.79 0.87 5.79 0.87 18.39 60.77 18.39 56.71 12.06 60.77 5.79"/><path class="cls-1" d="M4.24,35.31v-32A1.76,1.76,0,0,0,5.7,1.71,1.89,1.89,0,0,0,3.67,0a1.88,1.88,0,0,0-2,1.71A1.77,1.77,0,0,0,3.2,3.33v32c-1.8.06-3.2.45-3.2.93s1.65.94,3.68.94,3.68-.42,3.68-.94S6,35.38,4.24,35.31Z"/><text class="cls-2" transform="translate(4 15.7)">南投縣19萬</text></g></g></svg>