<?xml version="1.0" encoding="utf-8"?>
<!-- Generator: Adobe Illustrator 24.0.1, SVG Export Plug-In . SVG Version: 6.00 Build 0)  -->
<svg version="1.1" id="圖層_1" xmlns="http://www.w3.org/2000/svg" xmlns:xlink="http://www.w3.org/1999/xlink" x="0px" y="0px"
	 viewBox="0 0 50 50" style="enable-background:new 0 0 50 50;" xml:space="preserve">
<style type="text/css">
	.st0{fill:#FFFFFF;}
</style>
<g>
	<g>
		<path class="st0" d="M38.9,15.88l-2.17,0v-2.24c0-0.51-0.38-0.95-0.88-1.03c-0.09-0.01-2.2-0.32-4.74,0.14
			c-2.83,0.52-5.09,1.79-6.63,3.71c-1.53-1.92-3.79-3.19-6.63-3.71c-2.54-0.46-4.65-0.16-4.74-0.14c-0.51,0.08-0.88,0.51-0.88,1.03
			v2.24h-2.17c-0.57,0-1.04,0.46-1.04,1.04v19.55c0,0.34,0.16,0.65,0.44,0.85c0.27,0.19,0.62,0.24,0.94,0.13
			c0.08-0.03,7.85-2.68,13.65-0.04c0.27,0.12,0.59,0.12,0.86,0c5.78-2.64,13.57,0.01,13.65,0.04c0.11,0.04,0.23,0.06,0.34,0.06
			c0.21,0,0.42-0.07,0.6-0.19c0.27-0.19,0.44-0.51,0.44-0.85V16.92C39.94,16.35,39.48,15.88,38.9,15.88z M11.11,35.07V17.95h1.13
			v13.81c0,0.3,0.13,0.59,0.36,0.78s0.53,0.29,0.83,0.24c0.06-0.01,4.56-0.63,7.86,1.63C17.22,33.73,13.17,34.53,11.11,35.07z
			 M23.45,33.49c-1.45-1.31-3.34-2.2-5.59-2.61c-1.08-0.2-2.09-0.25-2.89-0.25c-0.24,0-0.46,0.01-0.66,0.01V14.59h0
			c1.99-0.09,6.84,0.12,9.14,4.02V33.49z M25.52,18.61c2.29-3.88,7.14-4.1,9.14-4.01v16.05c-0.87-0.04-2.15-0.01-3.55,0.24
			c-2.25,0.41-4.14,1.3-5.59,2.61L25.52,18.61L25.52,18.61z M27.69,34.43c3.29-2.26,7.8-1.64,7.86-1.63c0.3,0.04,0.6-0.04,0.83-0.24
			c0.23-0.2,0.36-0.48,0.36-0.79V17.95h1.13v17.12C35.81,34.53,31.74,33.73,27.69,34.43z"/>
	</g>
</g>
<g>
	<path class="st0" d="M25,1.67c12.87,0,23.33,10.47,23.33,23.33S37.87,48.33,25,48.33S1.67,37.87,1.67,25S12.13,1.67,25,1.67 M25,0
		C11.19,0,0,11.19,0,25s11.19,25,25,25s25-11.19,25-25S38.81,0,25,0L25,0z"/>
</g>
</svg>
