<?xml version="1.0" encoding="utf-8"?>
<!-- Generator: Adobe Illustrator 24.0.1, SVG Export Plug-In . SVG Version: 6.00 Build 0)  -->
<svg version="1.1" id="圖層_1" xmlns="http://www.w3.org/2000/svg" xmlns:xlink="http://www.w3.org/1999/xlink" x="0px" y="0px"
	 viewBox="0 0 50 50" style="enable-background:new 0 0 50 50;" xml:space="preserve">
<style type="text/css">
	.st0{fill:#FFFFFF;}
</style>
<g>
	<path class="st0" d="M25,1.67c12.87,0,23.33,10.47,23.33,23.33S37.87,48.33,25,48.33S1.67,37.87,1.67,25S12.13,1.67,25,1.67 M25,0
		C11.19,0,0,11.19,0,25s11.19,25,25,25s25-11.19,25-25S38.81,0,25,0L25,0z"/>
</g>
<g>
	<path class="st0" d="M40,27.35v-4.71c0-1.45-0.96-2.68-2.28-3.09c-0.14-0.09-0.3-0.14-0.48-0.14h-0.06v-7.66h0.06
		c0.49,0,0.88-0.39,0.88-0.88S37.72,10,37.24,10H13.23C11.45,10,10,11.45,10,13.23v4.71c0,1.45,0.96,2.68,2.28,3.09
		c0.14,0.09,0.3,0.14,0.48,0.14h0.06v7.66h-0.06c-0.18,0-0.34,0.05-0.48,0.14C10.96,29.38,10,30.61,10,32.06v4.71
		c0,1.78,1.45,3.23,3.23,3.23h23.54c1.78,0,3.23-1.45,3.23-3.23v-4.71c0-0.93-0.39-1.76-1.02-2.35C39.61,29.12,40,28.28,40,27.35
		L40,27.35z M11.76,13.23c0-0.81,0.66-1.47,1.47-1.47h22.19v7.66H13.23c-0.81,0-1.47-0.66-1.47-1.47L11.76,13.23z M34.48,30.59v7.66
		H15.52v-7.66L34.48,30.59z M11.76,36.77v-4.71c0-0.81,0.66-1.47,1.47-1.47h0.53v7.66h-0.53C12.42,38.24,11.76,37.58,11.76,36.77
		L11.76,36.77z M38.24,32.06v4.71c0,0.81-0.66,1.47-1.47,1.47h-0.53v-7.66h0.53C37.58,30.59,38.24,31.25,38.24,32.06L38.24,32.06z
		 M14.58,28.83v-7.66h22.19c0.81,0,1.47,0.66,1.47,1.47v4.71c0,0.81-0.66,1.47-1.47,1.47L14.58,28.83z"/>
	<path class="st0" d="M20.29,35.29h9.41c0.49,0,0.88-0.39,0.88-0.88s-0.39-0.88-0.88-0.88h-9.41c-0.49,0-0.88,0.39-0.88,0.88
		S19.81,35.29,20.29,35.29z"/>
</g>
</svg>
